<svg width="321.764160" height="342.034912" viewBox="0 0 321.764 342.035" fill="none" xmlns="http://www.w3.org/2000/svg" xmlns:xlink="http://www.w3.org/1999/xlink">
	<desc>
			Created with Pixso.
	</desc>
	<defs/>
	<path id="Vector" d="M14 299.02L0.03 317.99L23.56 335.51C25.11 333.17 16.27 319.58 16.27 319.58L25.73 307.79L14 299.02Z" fill="#455A64" fill-opacity="1.000000" fill-rule="nonzero"/>
	<path id="Vector" d="M9.79 313.16C9.51 313.06 9.2 313.06 8.93 313.17C8.66 313.28 8.44 313.49 8.31 313.76C8.2 314.03 8.2 314.33 8.31 314.61C8.42 314.88 8.62 315.11 8.89 315.23C9.18 315.34 9.51 315.33 9.79 315.21C10.08 315.09 10.31 314.87 10.45 314.59C10.53 314.29 10.5 313.97 10.35 313.7C10.21 313.42 9.96 313.21 9.67 313.12L9.79 313.16Z" fill="#FFFFFF" fill-opacity="1.000000" fill-rule="nonzero"/>
	<path id="Vector" d="M0 318.04L1.48 316L23.46 333.7C23.46 333.7 24.16 334.95 23.46 335.59L0 318.04Z" fill="#263238" fill-opacity="1.000000" fill-rule="nonzero"/>
	<path id="Vector" d="M16.78 319.75C16.7 319.87 16.08 319.49 15.23 319.44C14.37 319.39 13.73 319.65 13.67 319.53C13.62 319.4 14.27 318.86 15.28 318.94C16.29 319.02 16.85 319.67 16.78 319.75Z" fill="#263238" fill-opacity="1.000000" fill-rule="nonzero"/>
	<path id="Vector" d="M18.46 322.61C18.39 322.74 17.76 322.57 17 322.76C16.25 322.95 15.76 323.39 15.64 323.3C15.52 323.2 15.94 322.52 16.89 322.28C17.83 322.04 18.53 322.5 18.46 322.61Z" fill="#263238" fill-opacity="1.000000" fill-rule="nonzero"/>
	<path id="Vector" d="M17.66 326.61C17.53 326.56 17.8 325.83 18.57 325.45C19.33 325.07 20.05 325.19 20.03 325.33C20 325.46 19.42 325.54 18.81 325.89C18.19 326.24 17.78 326.68 17.66 326.61Z" fill="#263238" fill-opacity="1.000000" fill-rule="nonzero"/>
	<path id="Vector" d="M18.6 316.83C18.47 316.9 18.07 316.34 17.38 315.91C16.7 315.47 16.05 315.29 16.05 315.13C16.06 314.97 16.83 314.94 17.66 315.47C18.48 315.99 18.73 316.78 18.6 316.83Z" fill="#263238" fill-opacity="1.000000" fill-rule="nonzero"/>
	<path id="Vector" d="M70.89 219.59C71.31 221.97 71.98 242.21 72.41 252.89C72.84 263.57 71.77 268.81 70.55 271.21C69.33 273.6 23.29 307.53 19.78 315.66L8.11 306.26C8.11 306.26 25.22 275.55 32.52 269.97C39.81 264.38 53.85 259.26 53.85 259.26L49.86 200.79L68.98 199.74L70.89 219.59Z" fill="#263238" fill-opacity="1.000000" fill-rule="nonzero"/>
	<path id="Vector" d="M28.1 317.78L27.9 341.32L57.22 341.73C57.09 338.93 42 333.09 42 333.09L42.77 317.99L28.1 317.78Z" fill="#455A64" fill-opacity="1.000000" fill-rule="nonzero"/>
	<path id="Vector" d="M32.94 331.73C32.66 331.81 32.42 331.99 32.26 332.24C32.11 332.49 32.05 332.79 32.1 333.08C32.17 333.37 32.35 333.61 32.6 333.77C32.84 333.93 33.14 333.99 33.43 333.93C33.73 333.85 33.99 333.65 34.15 333.38C34.32 333.12 34.38 332.8 34.32 332.5C34.22 332.21 34 331.97 33.73 331.83C33.45 331.69 33.13 331.67 32.83 331.77L32.94 331.73Z" fill="#FFFFFF" fill-opacity="1.000000" fill-rule="nonzero"/>
	<path id="Vector" d="M27.89 341.41L27.89 338.88L56.08 340.34C56.08 340.34 57.37 340.94 57.21 341.86L27.89 341.41Z" fill="#263238" fill-opacity="1.000000" fill-rule="nonzero"/>
	<path id="Vector" d="M42.45 332.98C42.45 333.13 41.72 333.18 41.02 333.63C40.31 334.08 39.92 334.67 39.79 334.62C39.66 334.56 39.88 333.73 40.75 333.2C41.62 332.68 42.51 332.85 42.45 332.98Z" fill="#263238" fill-opacity="1.000000" fill-rule="nonzero"/>
	<path id="Vector" d="M45.56 334.32C45.56 334.46 44.96 334.7 44.47 335.3C43.98 335.89 43.82 336.54 43.69 336.52C43.56 336.51 43.47 335.71 44.1 334.97C44.73 334.23 45.56 334.16 45.56 334.32Z" fill="#263238" fill-opacity="1.000000" fill-rule="nonzero"/>
	<path id="Vector" d="M47.23 338C47.1 338 46.91 337.31 47.28 336.53C47.66 335.75 48.34 335.45 48.4 335.57C48.45 335.68 48.04 336.1 47.74 336.75C47.43 337.4 47.37 337.99 47.23 338Z" fill="#263238" fill-opacity="1.000000" fill-rule="nonzero"/>
	<path id="Vector" d="M42.26 329.52C42.2 329.65 41.55 329.44 40.71 329.52C39.87 329.6 39.26 329.81 39.15 329.68C39.04 329.56 39.69 329.06 40.64 329.02C41.6 328.98 42.33 329.41 42.26 329.52Z" fill="#263238" fill-opacity="1.000000" fill-rule="nonzero"/>
	<path id="Vector" d="M73.01 197.33C73.01 198.7 75.24 233.55 63.85 258.76C63.85 258.76 59.91 266.64 59.18 270.09C58.46 273.53 43.72 330.68 43.72 330.68L26.69 330.05C26.69 330.05 23.97 301.43 26.69 284.86C29.41 268.29 34.47 270.23 34.47 259.53C34.47 248.83 31.93 226.64 31.93 226.64C31.93 226.64 28.21 220.58 26.94 208.83C25.91 199.29 30.4 189.07 30.4 189.07L34.84 181.2L72.41 179.24L73.01 197.33Z" fill="#263238" fill-opacity="1.000000" fill-rule="nonzero"/>
	<path id="Vector" d="M73.01 197.33C73.01 197.33 73.01 196.92 73.01 196.14C73.01 195.35 72.96 194.18 72.93 192.65C72.86 189.58 72.74 185.05 72.6 179.21L72.6 179.12L72.51 179.12L34.94 181.03L34.86 181.03L34.82 181.1C33.44 183.55 31.93 186.21 30.37 188.97C29.21 191.76 28.31 194.64 27.67 197.6C26.97 200.71 26.65 203.89 26.73 207.08C26.97 210.4 27.49 213.71 28.29 216.95C29.06 220.35 30.27 223.63 31.89 226.72L31.89 226.64C32.53 232.44 33.13 238.45 33.64 244.65C33.89 247.76 34.1 250.87 34.26 254.06C34.34 255.62 34.4 257.25 34.41 258.86C34.41 259.64 34.41 260.47 34.36 261.27C34.3 262.07 34.21 262.87 34.06 263.67C33.75 265.26 33.18 266.8 32.39 268.22C31.61 269.68 30.84 271.12 30.06 272.63C28.65 275.71 27.62 278.95 27 282.28C25.65 288.96 25.38 295.92 25.3 302.92C25.3 312.17 25.74 321.25 26.5 330.03L26.5 330.22L26.68 330.22L43.71 330.84L43.87 330.84L43.91 330.68C48.85 311.54 53.45 293.65 57.51 277.57L58.98 271.62C59.24 270.63 59.4 269.65 59.7 268.72C60.01 267.79 60.35 266.86 60.71 265.96C61.44 264.16 62.26 262.41 63.04 260.7L63.65 259.44C63.86 259.02 64.05 258.6 64.22 258.16C64.57 257.3 64.92 256.45 65.27 255.6C67.69 249.33 69.49 242.84 70.64 236.22C72.31 226.78 73.17 217.22 73.21 207.64C73.26 200.94 72.99 197.3 72.99 197.3C72.99 197.3 72.99 197.53 72.99 197.97C72.99 198.41 72.99 199.09 73.03 199.96C73.08 201.71 73.11 204.29 73.03 207.64C72.96 217.22 72.09 226.76 70.44 236.19C69.26 242.79 67.44 249.26 65 255.51L63.96 258.05C63.79 258.49 63.59 258.9 63.38 259.32C63.17 259.74 62.97 260.17 62.77 260.59C61.99 262.3 61.16 264.05 60.43 265.86C60.07 266.77 59.72 267.69 59.42 268.64C59.11 269.59 58.93 270.6 58.68 271.56C58.19 273.52 57.7 275.49 57.2 277.51C53.07 293.57 48.47 311.46 43.55 330.6L43.75 330.45L26.72 329.82L26.93 330.01C26.15 321.24 25.7 312.17 25.73 302.94C25.81 295.94 26.08 289.02 27.42 282.38C28.04 279.08 29.06 275.87 30.45 272.82C31.15 271.32 32 269.9 32.78 268.42C33.56 266.96 34.12 265.38 34.43 263.75C34.58 262.94 34.68 262.12 34.73 261.3C34.73 260.52 34.81 259.67 34.78 258.87C34.78 257.25 34.71 255.64 34.63 254.05C34.48 250.86 34.25 247.72 33.99 244.62C33.48 238.4 32.89 232.39 32.23 226.6L32.23 226.56C30.61 223.51 29.39 220.26 28.61 216.9C27.82 213.68 27.3 210.4 27.06 207.1C26.97 203.94 27.28 200.79 27.98 197.71C28.6 194.78 29.48 191.92 30.61 189.15L35.04 181.28L34.92 181.36L72.49 179.33L72.39 179.24C72.57 185.08 72.71 189.61 72.81 192.68C72.86 194.24 72.9 195.37 72.93 196.17C72.96 196.96 73.01 197.33 73.01 197.33Z" fill="#455A64" fill-opacity="1.000000" fill-rule="nonzero"/>
	<path id="Vector" d="M60.79 125.97C60.79 125.97 50.68 124.18 51.62 137.19C52.21 144.97 54.5 158.31 55.77 166.83C56.2 169.77 57.17 175.05 61.06 178.14L88.98 197.46L97.79 186.92L72.86 163.18L68.97 139.69L60.79 125.97Z" fill="#455A64" fill-opacity="1.000000" fill-rule="nonzero"/>
	<path id="Vector" d="M61.98 79.08C63.58 80.37 64.85 82.02 65.68 83.91C66.5 85.79 66.86 87.85 66.73 89.9C66.57 91.89 66.02 94.15 67.32 95.67C68.62 97.19 71.1 97.13 72.33 98.67C73.77 100.49 72.57 103.2 73.11 105.46C73.39 106.52 74.03 107.44 74.93 108.07C75.82 108.69 76.91 108.98 78 108.88C75.45 110.96 72.37 112.31 69.1 112.76L66.55 109.58C67.5 110.7 67.25 112.48 66.34 113.63C65.35 114.69 64.07 115.45 62.67 115.8C59.32 116.83 55.77 117.08 52.31 116.52C48.85 115.95 45.57 114.6 42.72 112.56L61.98 79.08Z" fill="#263238" fill-opacity="1.000000" fill-rule="nonzero"/>
	<path id="Vector" d="M24.63 96.63C25.13 95.07 25.97 93.69 26.3 92.13C27.02 88.76 25.38 84.97 27.01 81.94C28.18 79.78 30.65 78.73 33 78C35.35 77.28 37.85 76.67 39.6 74.95C40.88 73.69 41.61 71.95 42.88 70.69C44.7 68.89 47.39 68.27 49.94 68.12C52.58 67.86 55.23 68.29 57.65 69.37C58.85 69.92 59.91 70.74 60.73 71.77C61.55 72.8 62.12 74.01 62.39 75.3C62.6 76.56 62.44 77.89 62.84 79.11C63.28 80.45 64.33 81.49 64.98 82.75C65.64 84.09 65.83 85.61 65.52 87.08C65.22 88.54 64.43 89.86 63.3 90.83L45.27 114.12C41.48 115.55 32.31 113.82 29.38 111.01C26.46 108.19 23.38 100.48 24.63 96.63Z" fill="#263238" fill-opacity="1.000000" fill-rule="nonzero"/>
	<path id="Vector" d="M62.82 87.88C62.04 82.59 58.05 76.35 52.81 77.31L36.6 82.75C35.04 83.05 36.15 85.65 36.3 87.26L39.83 123.81C39.83 123.81 37.63 125.37 36.86 125.07C36.81 125.06 36.76 125.06 36.72 125.07C36.67 125.08 36.63 125.11 36.6 125.15C36.58 125.18 36.56 125.23 36.56 125.28C36.55 125.32 36.57 125.37 36.59 125.41C38.56 128.25 47.73 140.59 57.22 136.8C59.34 135.95 57 129.29 57.22 126.82L56.94 120.52C56.73 117.3 56.63 115.97 56.63 116.01C56.63 116.04 63.33 114.36 64.06 105.39C64.42 100.95 63.65 93.75 62.82 87.88Z" fill="#FFBF9D" fill-opacity="1.000000" fill-rule="nonzero"/>
	<path id="Vector" d="M61.69 96.01C61.72 96.31 61.63 96.6 61.44 96.83C61.25 97.06 60.98 97.21 60.68 97.24C60.54 97.26 60.39 97.26 60.25 97.22C60.11 97.19 59.98 97.13 59.86 97.04C59.74 96.95 59.64 96.84 59.57 96.72C59.5 96.59 59.45 96.45 59.43 96.31C59.41 96.01 59.5 95.72 59.69 95.49C59.88 95.26 60.15 95.11 60.44 95.08C60.59 95.06 60.73 95.06 60.87 95.1C61.02 95.13 61.15 95.19 61.27 95.28C61.38 95.37 61.48 95.48 61.55 95.6C61.63 95.73 61.67 95.87 61.69 96.01Z" fill="#263238" fill-opacity="1.000000" fill-rule="nonzero"/>
	<path id="Vector" d="M50.65 96.7C50.68 97 50.59 97.29 50.4 97.52C50.21 97.75 49.94 97.9 49.65 97.93C49.5 97.96 49.36 97.95 49.22 97.91C49.08 97.88 48.94 97.82 48.83 97.73C48.71 97.64 48.61 97.53 48.54 97.41C48.46 97.28 48.42 97.14 48.4 97C48.37 96.7 48.46 96.41 48.65 96.18C48.84 95.95 49.11 95.8 49.41 95.77C49.55 95.75 49.7 95.75 49.84 95.79C49.98 95.82 50.11 95.89 50.23 95.97C50.34 96.06 50.44 96.17 50.51 96.3C50.59 96.42 50.63 96.56 50.65 96.7Z" fill="#263238" fill-opacity="1.000000" fill-rule="nonzero"/>
	<path id="Vector" d="M62.1 92.26C61.97 92.47 60.92 91.81 59.59 92C58.27 92.19 57.42 93.1 57.26 92.93C57.1 92.77 57.26 92.5 57.64 92.09C58.12 91.55 58.77 91.2 59.49 91.1C60.2 91 60.92 91.16 61.53 91.55C61.97 91.85 62.16 92.17 62.1 92.26Z" fill="#263238" fill-opacity="1.000000" fill-rule="nonzero"/>
	<path id="Vector" d="M50.22 93.25C50.07 93.45 49.03 92.69 47.61 92.75C46.19 92.82 45.18 93.62 45.01 93.44C44.85 93.26 45.08 93.02 45.53 92.66C46.11 92.18 46.83 91.91 47.59 91.88C48.34 91.85 49.08 92.08 49.69 92.51C50.13 92.83 50.29 93.16 50.22 93.25Z" fill="#263238" fill-opacity="1.000000" fill-rule="nonzero"/>
	<path id="Vector" d="M54.68 101.63C55.31 101.37 55.97 101.2 56.64 101.11C56.94 101.06 57.24 100.97 57.27 100.76C57.27 100.43 57.18 100.11 56.99 99.85C56.64 99.11 56.27 98.35 55.88 97.51C54.33 94.22 53.2 91.52 53.33 91.46C53.47 91.39 54.83 94.01 56.37 97.29C56.74 98.1 57.1 98.84 57.43 99.62C57.66 99.98 57.75 100.41 57.69 100.83C57.65 100.95 57.59 101.05 57.51 101.14C57.43 101.22 57.33 101.29 57.21 101.33C57.05 101.39 56.87 101.43 56.69 101.44C56.03 101.58 55.36 101.64 54.68 101.63Z" fill="#263238" fill-opacity="1.000000" fill-rule="nonzero"/>
	<path id="Vector" d="M56.63 116.02C52.47 116.4 48.28 115.62 44.53 113.77C44.53 113.77 47.99 119.75 56.79 118.25L56.63 116.02Z" fill="#FF9A6C" fill-opacity="1.000000" fill-rule="nonzero"/>
	<path id="Vector" d="M50.95 105.19C51.09 104.88 51.31 104.61 51.58 104.41C51.91 104.25 52.28 104.22 52.63 104.31C53.16 104.39 53.65 104.63 54.02 105.01C54.2 105.2 54.33 105.44 54.39 105.69C54.45 105.95 54.45 106.22 54.37 106.47C54.23 106.99 53.47 107.25 52.95 107.36C52.41 107.44 51.85 107.32 51.39 107.04C51.19 106.95 51.01 106.81 50.88 106.63C50.74 106.45 50.65 106.25 50.61 106.03C50.65 105.72 50.77 105.43 50.95 105.19Z" fill="#FF9A6C" fill-opacity="1.000000" fill-rule="nonzero"/>
	<path id="Vector" d="M51.2 103.47C51.4 103.47 51.51 104.77 52.71 105.62C53.92 106.48 55.32 106.22 55.34 106.4C55.36 106.58 55.05 106.68 54.45 106.74C53.68 106.82 52.9 106.61 52.26 106.16C51.64 105.74 51.22 105.08 51.08 104.35C51 103.81 51.11 103.47 51.2 103.47Z" fill="#263238" fill-opacity="1.000000" fill-rule="nonzero"/>
	<path id="Vector" d="M50.11 88.47C50.01 88.8 48.79 88.74 47.36 89.03C45.94 89.32 44.81 89.81 44.6 89.5C44.51 89.37 44.68 89.04 45.12 88.69C45.72 88.24 46.4 87.94 47.13 87.81C47.86 87.67 48.61 87.71 49.32 87.91C49.87 88.06 50.15 88.31 50.11 88.47Z" fill="#263238" fill-opacity="1.000000" fill-rule="nonzero"/>
	<path id="Vector" d="M61.34 87.81C61.12 88.1 60.14 87.89 59.01 87.97C57.88 88.05 56.89 88.32 56.64 88.05C56.53 87.92 56.64 87.62 57.07 87.33C57.63 86.96 58.28 86.75 58.96 86.73C59.63 86.68 60.29 86.82 60.88 87.14C61.29 87.37 61.44 87.65 61.34 87.81Z" fill="#263238" fill-opacity="1.000000" fill-rule="nonzero"/>
	<path id="Vector" d="M33.01 84.03C33.79 82.77 35.3 82.12 36.7 81.59C42.75 79.25 49.05 77.65 55.47 76.8C56.25 78.12 55.54 79.91 54.33 80.87C53.12 81.83 51.57 82.21 50.13 82.75C48.69 83.28 47.21 84.12 46.61 85.54C46.01 86.97 46.51 88.84 45.95 90.38C45 93.04 41.29 93.9 40.36 96.55C39.65 98.56 40.81 100.7 41.14 102.82C41.29 103.89 41.21 104.98 40.9 106.02C40.6 107.06 40.07 108.02 39.36 108.85C38.65 109.67 37.78 110.33 36.8 110.78C35.81 111.24 34.74 111.48 33.66 111.49C33.22 103.87 32.79 96.26 32.35 88.66C32.21 87.07 32.15 85.36 33.01 84.03Z" fill="#263238" fill-opacity="1.000000" fill-rule="nonzero"/>
	<path id="Vector" d="M17.68 103.26C18.88 102.18 20.39 101.25 20.87 99.71C21.57 97.46 19.76 94.82 20.93 92.78C21.99 90.91 25.11 91.01 26.09 89.11C26.87 87.61 25.98 86.3 26.26 84.99C26.55 83.69 28.42 82.54 29.74 82.7L40.11 97.76C41.08 102.82 42.05 105.54 40.97 108.46C40.25 110.04 39.71 111.69 39.36 113.38C39.13 115.09 39.57 117.02 40.96 118.04C34.74 118.53 28.92 115.28 23.54 112.13L17.87 108.8C17.25 108.51 16.72 108.06 16.32 107.5C15.47 106.11 16.48 104.33 17.68 103.26Z" fill="#263238" fill-opacity="1.000000" fill-rule="nonzero"/>
	<path id="Vector" d="M23.41 110.6C23.63 110.67 23.85 110.72 24.08 110.73C24.73 110.8 25.38 110.75 26.02 110.59C27.03 110.35 27.96 109.85 28.71 109.14C29.71 108.18 30.34 106.89 30.49 105.51C30.58 104.71 30.51 103.89 30.28 103.12C30.01 102.3 29.62 101.51 29.13 100.79C28.62 100.05 28.22 99.25 27.94 98.39C27.8 97.96 27.75 97.49 27.81 97.04C27.87 96.58 28.03 96.14 28.28 95.76C28.84 94.98 29.89 94.81 30.87 94.43C31.4 94.24 31.86 93.89 32.19 93.44C32.5 92.95 32.65 92.39 32.62 91.81C32.48 90.72 32.25 89.63 31.91 88.58C31.79 88.07 31.79 87.53 31.91 87.02C32.05 86.51 32.36 86.06 32.8 85.76C33.75 85.21 34.82 84.92 35.91 84.92C37.05 84.88 38.15 84.55 39.12 83.97C40.06 83.4 40.83 82.57 41.33 81.59C41.75 80.64 42.01 79.64 42.11 78.61C42.22 77.66 42.42 76.72 42.72 75.81C43.05 74.98 43.54 74.23 44.18 73.61C45.35 72.49 46.87 71.81 48.48 71.66C49.83 71.55 51.17 71.82 52.37 72.44C53.27 72.9 54.08 73.52 54.77 74.26C55.34 74.91 55.83 75.62 56.24 76.38C56.24 76.38 56.24 76.33 56.19 76.22C56.12 76.07 56.05 75.92 55.97 75.77C55.67 75.21 55.31 74.68 54.89 74.2C54.21 73.43 53.39 72.78 52.48 72.29C51.27 71.63 49.9 71.32 48.52 71.42C46.83 71.54 45.24 72.24 44 73.4C43.32 74.06 42.79 74.85 42.45 75.73C42.14 76.66 41.93 77.61 41.81 78.59C41.7 79.58 41.44 80.55 41.03 81.46C40.56 82.38 39.84 83.15 38.96 83.69C38.04 84.24 36.99 84.54 35.91 84.57C34.74 84.57 33.6 84.88 32.59 85.48C32.08 85.82 31.72 86.33 31.56 86.92C31.42 87.5 31.42 88.1 31.56 88.67C31.89 89.71 32.12 90.77 32.26 91.84C32.29 92.34 32.17 92.84 31.9 93.27C31.6 93.66 31.19 93.96 30.73 94.13C30.27 94.32 29.77 94.46 29.29 94.66C28.79 94.85 28.34 95.17 28.01 95.58C27.73 96.01 27.56 96.5 27.49 97C27.43 97.51 27.47 98.02 27.63 98.51C27.92 99.39 28.34 100.22 28.88 100.98C29.35 101.67 29.73 102.42 30 103.21C30.23 103.94 30.3 104.71 30.22 105.48C30.09 106.81 29.51 108.05 28.56 108.99C27.83 109.69 26.94 110.2 25.96 110.45C25.13 110.67 24.26 110.72 23.41 110.6Z" fill="#455A64" fill-opacity="1.000000" fill-rule="nonzero"/>
	<path id="Vector" d="M15.12 99.89C15.02 100.05 14.95 100.22 14.92 100.4C14.81 100.93 14.91 101.48 15.18 101.95C15.37 102.29 15.64 102.57 15.96 102.79C16.36 103.03 16.82 103.15 17.29 103.14C17.86 103.13 18.41 102.96 18.89 102.66C19.37 102.35 19.76 101.92 20.01 101.41C20.31 100.82 20.46 100.18 20.45 99.52C20.44 98.81 20.29 98.12 20.02 97.47C19.53 96.12 18.63 94.81 18.61 93.24C18.58 92.85 18.63 92.46 18.76 92.09C18.88 91.73 19.08 91.39 19.33 91.1C19.97 90.58 20.78 90.33 21.59 90.4C22.5 90.46 23.41 90.37 24.28 90.12C24.74 89.93 25.12 89.6 25.39 89.18C25.64 88.77 25.79 88.3 25.84 87.82C25.89 86.89 25.81 85.96 25.62 85.05C25.48 84.19 25.53 83.32 25.77 82.49C26.21 80.9 27.24 79.54 28.65 78.69C29.99 78.01 31.48 77.67 32.98 77.7C34.32 77.7 35.65 77.49 36.92 77.08C37.95 76.7 38.9 76.12 39.7 75.37C40.32 74.8 40.84 74.14 41.26 73.41C41.62 72.8 41.87 72.13 42 71.44C41.76 72.09 41.48 72.73 41.13 73.34C40.15 74.97 38.64 76.22 36.86 76.88C35.6 77.27 34.28 77.46 32.97 77.44C31.42 77.4 29.89 77.74 28.5 78.44C27.02 79.31 25.92 80.71 25.44 82.36C25.19 83.24 25.13 84.16 25.28 85.06C25.46 85.94 25.53 86.84 25.5 87.74C25.48 88.16 25.35 88.58 25.11 88.93C24.87 89.29 24.54 89.57 24.16 89.75C23.33 89.99 22.46 90.07 21.6 90.01C20.7 89.93 19.8 90.21 19.1 90.79C18.82 91.11 18.6 91.49 18.47 91.9C18.33 92.31 18.28 92.74 18.32 93.17C18.36 93.98 18.55 94.77 18.89 95.51C19.19 96.21 19.53 96.86 19.79 97.51C20.05 98.13 20.19 98.79 20.22 99.47C20.23 100.08 20.1 100.69 19.83 101.24C19.61 101.72 19.25 102.12 18.81 102.41C18.37 102.7 17.86 102.87 17.34 102.89C16.9 102.9 16.48 102.8 16.1 102.58C15.78 102.4 15.51 102.13 15.32 101.81C15.05 101.37 14.94 100.86 15 100.35C15.04 100.07 15.14 99.9 15.12 99.89Z" fill="#263238" fill-opacity="1.000000" fill-rule="nonzero"/>
	<path id="Vector" d="M80.62 103.6C80.81 104.13 80.81 104.7 80.62 105.23C80.52 105.53 80.35 105.8 80.13 106.03C79.9 106.26 79.63 106.43 79.33 106.54C78.93 106.66 78.51 106.66 78.1 106.55C77.7 106.44 77.34 106.22 77.05 105.92C76.73 105.56 76.54 105.1 76.52 104.61C76.5 104.08 76.58 103.56 76.76 103.06C77.08 102.01 77.76 100.87 77.66 99.49C77.61 98.79 77.42 98.11 77.09 97.49C76.76 96.87 76.31 96.33 75.76 95.9C75.19 95.44 74.53 95.09 73.83 94.88C73.11 94.68 72.36 94.57 71.62 94.56C70.89 94.55 70.17 94.48 69.46 94.33C68.8 94.2 68.21 93.83 67.79 93.3C67.42 92.75 67.21 92.11 67.19 91.46C67.16 90.81 67.21 90.17 67.35 89.54C67.69 88.36 67.88 87.13 67.91 85.9C67.84 84.81 67.46 83.76 66.8 82.89C66.24 82.19 65.55 81.61 64.77 81.17C64.21 80.84 63.66 80.47 63.15 80.05C62.73 79.69 62.38 79.25 62.14 78.75C62.14 78.75 62.14 78.75 62.14 78.86C62.17 78.96 62.21 79.06 62.26 79.16C62.46 79.54 62.72 79.88 63.04 80.16C63.54 80.59 64.08 80.99 64.65 81.35C65.39 81.79 66.04 82.36 66.58 83.04C67.19 83.88 67.55 84.88 67.59 85.92C67.54 87.12 67.35 88.32 67.01 89.47C66.85 90.13 66.79 90.8 66.83 91.48C66.86 92.2 67.09 92.91 67.5 93.51C67.96 94.11 68.62 94.52 69.36 94.68C70.09 94.83 70.83 94.91 71.58 94.92C72.3 94.93 73.01 95.03 73.71 95.22C74.37 95.42 74.99 95.75 75.53 96.18C76.04 96.58 76.46 97.08 76.77 97.66C77.07 98.23 77.26 98.86 77.31 99.51C77.42 100.76 76.8 101.85 76.45 102.97C76.27 103.51 76.19 104.08 76.22 104.65C76.25 105.2 76.48 105.71 76.85 106.11C77.17 106.44 77.58 106.68 78.03 106.79C78.47 106.91 78.94 106.89 79.39 106.75C79.71 106.63 80 106.43 80.23 106.18C80.47 105.92 80.64 105.62 80.74 105.29C80.88 104.88 80.9 104.45 80.8 104.03C80.77 103.88 80.71 103.73 80.62 103.6Z" fill="#263238" fill-opacity="1.000000" fill-rule="nonzero"/>
	<path id="Vector" d="M73.19 164.52L73.19 155.92C74.15 151.09 73.69 145.36 71.45 140.95C69.82 138.11 68.01 135.37 66.05 132.75L57.49 121.64C52.78 125.07 45.4 122.58 39.07 120.28C39.07 120.28 32.85 123.74 29.91 126.99C26.85 130.42 37.31 173.23 37.31 173.23C32.57 182.7 26.46 191.11 25.53 199.74L74.99 201.65L72.89 178.97L73.19 164.52Z" fill="#455A64" fill-opacity="1.000000" fill-rule="nonzero"/>
	<path id="Vector" d="M72.5 179.21C72.45 178.89 72.44 178.57 72.46 178.24C72.46 177.53 72.46 176.69 72.46 175.61C72.5 173.27 72.55 170.26 72.6 166.91C72.66 163.56 72.76 160.44 72.87 158.22C72.92 157.11 72.98 156.2 73.02 155.58C73.03 155.26 73.07 154.94 73.15 154.62C73.18 154.94 73.18 155.27 73.15 155.59C73.15 156.3 73.15 157.14 73.15 158.22C73.11 160.56 73.06 163.57 73 166.92C72.95 170.27 72.85 173.39 72.74 175.61C72.69 176.73 72.64 177.63 72.58 178.25C72.59 178.57 72.57 178.9 72.5 179.21Z" fill="#263238" fill-opacity="1.000000" fill-rule="nonzero"/>
	<path id="Vector" d="M95.09 187.04C95.09 187.04 99.92 187.3 102.87 189.17C105.83 191.03 110.65 193.94 112.63 197.54C113.54 199.2 110.95 199.55 109.67 198.59C108.38 197.64 106.43 195.82 105.46 195.6L104.49 195.37C105.38 197.38 106.37 199.34 107.45 201.25C108.45 202.81 109.33 205.39 106.31 205.51C106.31 205.51 104.28 208.15 102.23 206.19C102.23 206.19 100.62 208.59 98.04 205.26C98.04 205.26 96.53 207.17 95.91 206.44C95.29 205.71 93.23 204.56 92.63 202.18C91.73 199.41 90.69 196.68 89.52 194.02L95.09 187.04Z" fill="#FFBF9D" fill-opacity="1.000000" fill-rule="nonzero"/>
	<path id="Vector" d="M203.04 120.21C203.58 120.21 225.65 117.87 225.65 117.87C225.65 117.87 227.53 108.9 227.43 106.57C227.33 104.23 225.76 88.8 225.76 88.8L234.02 84.91C234.02 84.91 245.07 122.17 242.66 125.27C240.25 128.36 235.72 131.14 235.33 131.15C234.94 131.17 213.93 140.49 199.32 135.64C184.71 130.8 203.04 120.21 203.04 120.21Z" fill="#FFBF9D" fill-opacity="1.000000" fill-rule="nonzero"/>
	<path id="Vector" d="M183.69 140.32C186.94 143.55 192.54 146.23 201.89 143.9C220.37 139.28 234.22 135.35 239.72 132.39C245.23 129.44 243.08 116.23 243.55 115.63C244.94 113.83 243.41 109.96 241.43 109.35C235.77 107.64 225.93 108.32 225.44 108.83C222.54 111.88 225.18 115.58 225.18 115.58L200.82 118.77C197.82 118.63 194.82 118.82 191.87 119.34L183.69 140.32Z" fill="#455A64" fill-opacity="1.000000" fill-rule="nonzero"/>
	<path id="Vector" d="M191.87 119.34L192.45 119.22C192.84 119.15 193.41 119.05 194.18 118.95C196.38 118.68 198.6 118.58 200.82 118.67L225.18 115.41L225.06 115.68C224.26 114.5 223.87 113.1 223.94 111.67C224.01 110.94 224.25 110.23 224.64 109.61C224.84 109.29 225.06 109 225.31 108.72C225.41 108.65 225.52 108.59 225.63 108.55L225.91 108.48C226.1 108.43 226.28 108.42 226.46 108.38C229.47 108.03 232.52 107.97 235.55 108.19C237.14 108.29 238.72 108.51 240.27 108.84C240.66 108.93 241.05 109.05 241.46 109.15C241.87 109.28 242.25 109.5 242.57 109.8C243.19 110.39 243.66 111.11 243.94 111.92C244.25 112.72 244.36 113.59 244.26 114.44C244.19 114.89 244.03 115.31 243.77 115.69C243.7 115.77 243.71 115.97 243.7 116.18L243.7 116.8C243.76 118.47 243.84 120.17 243.79 121.89C243.8 124.31 243.4 126.73 242.61 129.02C242.21 130.17 241.51 131.2 240.59 132C240.12 132.37 239.59 132.68 239.04 132.92C238.52 133.19 237.98 133.4 237.48 133.65C235.35 134.56 233.21 135.31 231.11 135.98C229 136.66 226.93 137.31 224.88 137.91C216.75 140.25 209.33 142.14 203.16 143.68C201.68 144.07 200.19 144.38 198.68 144.61C197.33 144.8 195.96 144.87 194.6 144.83C192.4 144.78 190.24 144.31 188.23 143.44C186.96 142.88 185.78 142.15 184.73 141.26C184.35 140.96 184.01 140.63 183.68 140.28C183.68 140.28 184.04 140.62 184.78 141.2C185.85 142.06 187.04 142.76 188.3 143.3C190.3 144.13 192.44 144.57 194.6 144.6C195.95 144.63 197.3 144.55 198.64 144.35C200.14 144.12 201.62 143.8 203.09 143.4C209.31 141.85 216.66 139.93 224.78 137.55C226.81 136.96 228.87 136.32 231 135.62C233.12 134.92 235.23 134.18 237.33 133.28C237.85 133.04 238.38 132.83 238.89 132.56C239.41 132.33 239.9 132.04 240.34 131.69C241.21 130.94 241.87 129.97 242.25 128.88C243.02 126.62 243.4 124.24 243.38 121.85C243.42 120.14 243.38 118.46 243.29 116.78L243.29 116.14C243.29 116.03 243.29 115.92 243.29 115.8C243.29 115.74 243.29 115.68 243.29 115.62C243.31 115.57 243.33 115.52 243.35 115.48L243.39 115.42C243.61 115.1 243.75 114.73 243.81 114.35C243.9 113.56 243.8 112.76 243.51 112.02C243.25 111.27 242.82 110.6 242.25 110.06C241.97 109.8 241.64 109.6 241.29 109.49C240.9 109.39 240.51 109.28 240.13 109.19C238.59 108.85 237.03 108.64 235.46 108.54C232.46 108.31 229.45 108.37 226.46 108.71C226.28 108.71 226.11 108.76 225.93 108.81L225.69 108.86C225.63 108.88 225.58 108.91 225.53 108.94C225.3 109.19 225.08 109.47 224.9 109.76C224.53 110.33 224.31 110.99 224.25 111.67C224.18 113 224.54 114.33 225.29 115.44L225.44 115.68L225.17 115.68L200.8 118.79C198.59 118.68 196.38 118.74 194.18 118.98C193.41 119.05 192.84 119.14 192.45 119.19C192.06 119.25 191.87 119.34 191.87 119.34Z" fill="#263238" fill-opacity="1.000000" fill-rule="nonzero"/>
	<path id="Vector" d="M125.9 144.67L115.98 126.84L303.68 22.36C305.84 21.16 308.39 20.87 310.77 21.54C313.15 22.22 315.17 23.82 316.37 25.98L317.22 27.51C318.42 29.67 318.72 32.22 318.04 34.6C317.36 36.98 315.77 39 313.6 40.2L125.9 144.67L125.9 144.67Z" fill="#029491" fill-opacity="1.000000" fill-rule="nonzero"/>
	<path id="Vector" d="M283.3 50.37L260.31 9.08C260.2 8.88 260.13 8.66 260.1 8.43C260.08 8.21 260.1 7.98 260.16 7.76C260.22 7.54 260.33 7.33 260.47 7.15C260.61 6.97 260.79 6.82 260.99 6.71L271.53 0.84C271.73 0.73 271.95 0.66 272.18 0.63C272.41 0.61 272.64 0.63 272.86 0.69C273.08 0.75 273.28 0.86 273.46 1C273.64 1.14 273.79 1.32 273.9 1.52L296.89 42.81L283.3 50.37Z" fill="#029491" fill-opacity="1.000000" fill-rule="nonzero"/>
	<path id="Vector" d="M254.83 61.24L238.08 31.15C237.4 29.93 237.84 28.4 239.05 27.72L248.24 22.61C249.45 21.93 250.99 22.37 251.67 23.58L268.42 53.68C269.09 54.89 268.66 56.43 267.44 57.1L258.25 62.22C257.04 62.89 255.5 62.46 254.83 61.24Z" fill="#029491" fill-opacity="1.000000" fill-rule="evenodd"/>
	<path id="Vector" d="M263.24 48.02L252.87 29.39L273.98 17.64L284.35 36.27L263.24 48.02Z" fill="#029491" fill-opacity="1.000000" fill-rule="evenodd"/>
	<path id="Vector" d="M300.93 23.93C300.99 24.03 264.15 44.63 218.67 69.95C173.19 95.27 136.24 115.73 136.24 115.62C136.24 115.52 173.02 94.92 218.51 69.6C264 44.27 300.88 23.83 300.93 23.93Z" fill="#263238" fill-opacity="1.000000" fill-rule="nonzero"/>
	<path id="Vector" d="M49.88 179.11C63.72 204 92.91 214.11 115.07 201.78C137.24 189.46 144 159.28 130.16 134.43C116.32 109.57 87.14 99.43 64.97 111.76C42.8 124.09 36.05 154.26 49.88 179.11ZM118.15 141.12C127.85 158.53 123.11 179.66 107.58 188.3C92.04 196.94 71.59 189.86 61.9 172.42C52.2 154.99 56.93 133.88 72.46 125.23C87.99 116.58 108.45 123.7 118.15 141.12Z" fill="#029491" fill-opacity="1.000000" fill-rule="nonzero"/>
	<path id="Vector" d="M157.81 127.44L147.57 109.04C146.21 106.59 147.09 103.5 149.54 102.14L150.37 101.68C152.81 100.32 155.9 101.2 157.26 103.64L167.5 122.04C168.87 124.49 167.99 127.58 165.54 128.94L164.71 129.4C162.26 130.76 159.17 129.88 157.81 127.44Z" fill="#029491" fill-opacity="1.000000" fill-rule="evenodd"/>
	<path id="Vector" d="M177.48 116.48L167.24 98.08C165.88 95.63 166.76 92.55 169.21 91.18L170.03 90.72C172.48 89.36 175.57 90.24 176.93 92.69L187.17 111.09C188.53 113.54 187.65 116.62 185.21 117.99L184.38 118.45C181.93 119.81 178.84 118.93 177.48 116.48Z" fill="#029491" fill-opacity="1.000000" fill-rule="evenodd"/>
	<path id="Vector" d="M157.04 103.36C157.14 103.31 159.52 107.48 162.35 112.69C165.19 117.9 167.41 122.15 167.31 122.2C167.21 122.26 164.83 118.09 162 112.87C159.16 107.65 156.94 103.36 157.04 103.36Z" fill="#263238" fill-opacity="1.000000" fill-rule="nonzero"/>
	<path id="Vector" d="M148.01 109.78C148.11 109.72 150.43 113.71 153.2 118.67C155.97 123.63 158.12 127.72 158.03 127.77C157.94 127.83 155.61 123.84 152.87 118.91C150.14 113.99 147.92 109.83 148.01 109.78Z" fill="#263238" fill-opacity="1.000000" fill-rule="nonzero"/>
	<path id="Vector" d="M176.83 92.53C176.93 92.47 179.35 96.63 182.24 101.81C185.12 106.99 187.38 111.24 187.28 111.29C187.18 111.35 184.77 107.19 181.88 102.01C179 96.83 176.74 92.58 176.83 92.53Z" fill="#263238" fill-opacity="1.000000" fill-rule="nonzero"/>
	<path id="Vector" d="M167.34 98.26C167.43 98.21 169.8 102.34 172.62 107.48C175.43 112.63 177.65 116.81 177.55 116.9C177.45 116.99 175.09 112.83 172.27 107.68C169.45 102.53 167.24 98.31 167.34 98.26Z" fill="#263238" fill-opacity="1.000000" fill-rule="nonzero"/>
	<path id="Vector" d="M223.74 70.21C224.65 70.32 225.56 70.08 226.3 69.55C227.04 69.02 227.56 68.24 227.76 67.35C227.95 66.46 227.81 65.52 227.35 64.73C226.9 63.94 226.16 63.35 225.3 63.07C225.86 62.5 226.22 61.76 226.34 60.97C226.46 60.17 226.33 59.36 225.96 58.65C225.59 57.93 225.01 57.35 224.3 56.99C223.58 56.62 222.77 56.49 221.98 56.62C221.94 55.83 221.71 55.06 221.29 54.39C220.87 53.72 220.29 53.16 219.6 52.79C218.9 52.41 218.12 52.21 217.33 52.23C216.54 52.24 215.77 52.45 215.09 52.85C214.2 52.13 213.09 51.72 211.94 51.69C210.79 51.67 209.67 52.03 208.75 52.71C207.97 52.56 207.17 52.67 206.47 53.01C205.76 53.36 205.18 53.92 204.81 54.62C204.45 55.32 204.32 56.11 204.45 56.89C204.57 57.67 204.94 58.38 205.51 58.93L223.74 70.21Z" fill="#263238" fill-opacity="1.000000" fill-rule="nonzero"/>
	<path id="Vector" d="M207.96 56.34L208.74 56.34C212.66 56.34 216.44 57.82 219.32 60.48C222.2 63.14 223.97 66.79 224.28 70.7C224.86 78.24 225.41 86.56 225.34 90.61C225.2 99.01 216.84 100.25 216.84 100.25L217.52 110.31L197.2 109.65L195.51 73.18C194.8 64.48 199.25 56.82 207.96 56.34Z" fill="#FFBF9D" fill-opacity="1.000000" fill-rule="nonzero"/>
	<path id="Vector" d="M216.91 100.25C213.03 100.24 209.22 99.11 205.96 97.01C205.96 97.01 208.65 103.35 217 102.62L216.91 100.25Z" fill="#FF9A6C" fill-opacity="1.000000" fill-rule="nonzero"/>
	<path id="Vector" d="M219.68 78.59C219.68 78.9 219.56 79.2 219.35 79.43C219.13 79.65 218.83 79.78 218.52 79.79C218.37 79.8 218.22 79.78 218.07 79.73C217.93 79.68 217.8 79.61 217.68 79.51C217.57 79.41 217.48 79.28 217.41 79.15C217.34 79.01 217.3 78.86 217.29 78.71C217.29 78.4 217.41 78.1 217.63 77.87C217.85 77.65 218.14 77.52 218.45 77.5C218.61 77.49 218.76 77.51 218.9 77.56C219.05 77.61 219.18 77.69 219.3 77.79C219.41 77.89 219.5 78.02 219.57 78.15C219.64 78.29 219.67 78.44 219.68 78.59Z" fill="#263238" fill-opacity="1.000000" fill-rule="nonzero"/>
	<path id="Vector" d="M222.47 74.81C222.32 74.97 221.41 74.3 220.13 74.3C218.86 74.3 217.9 74.94 217.76 74.78C217.62 74.63 217.85 74.43 218.26 74.13C218.82 73.75 219.48 73.54 220.16 73.55C220.83 73.55 221.48 73.76 222.02 74.16C222.4 74.46 222.54 74.75 222.47 74.81Z" fill="#263238" fill-opacity="1.000000" fill-rule="nonzero"/>
	<path id="Vector" d="M208.09 78.03C208.09 78.35 207.97 78.66 207.76 78.88C207.54 79.11 207.24 79.25 206.92 79.25C206.77 79.26 206.62 79.24 206.47 79.2C206.33 79.15 206.19 79.07 206.08 78.97C205.97 78.87 205.87 78.75 205.81 78.61C205.74 78.47 205.7 78.32 205.69 78.17C205.69 77.86 205.81 77.56 206.03 77.33C206.24 77.11 206.54 76.98 206.85 76.97C207 76.96 207.15 76.97 207.3 77.02C207.44 77.07 207.58 77.14 207.69 77.24C207.81 77.34 207.9 77.46 207.97 77.6C208.04 77.73 208.08 77.88 208.09 78.03Z" fill="#263238" fill-opacity="1.000000" fill-rule="nonzero"/>
	<path id="Vector" d="M209.82 75.02C209.67 75.17 208.76 74.5 207.49 74.5C206.21 74.5 205.26 75.14 205.12 74.98C204.98 74.83 205.2 74.63 205.61 74.33C206.17 73.95 206.83 73.75 207.51 73.76C208.18 73.75 208.83 73.97 209.37 74.36C209.76 74.67 209.89 74.95 209.82 75.02Z" fill="#263238" fill-opacity="1.000000" fill-rule="nonzero"/>
	<path id="Vector" d="M214.46 84.57C215.13 84.36 215.84 84.23 216.55 84.2C216.87 84.2 217.19 84.11 217.25 83.88C217.28 83.54 217.2 83.2 217.03 82.91L216.07 80.4C214.73 76.84 213.73 73.9 213.9 73.86C214.08 73.81 215.25 76.65 216.59 80.21C216.91 81.09 217.22 81.93 217.51 82.73C217.71 83.13 217.77 83.58 217.68 84.02C217.63 84.14 217.55 84.24 217.46 84.32C217.36 84.4 217.25 84.46 217.13 84.5C216.95 84.55 216.77 84.57 216.58 84.57C215.87 84.66 215.16 84.66 214.46 84.57Z" fill="#263238" fill-opacity="1.000000" fill-rule="nonzero"/>
	<path id="Vector" d="M210.95 70.07C210.78 70.4 209.68 70.07 208.32 69.99C206.96 69.91 205.82 70.17 205.7 69.83C205.65 69.67 205.89 69.38 206.38 69.11C207.01 68.8 207.71 68.66 208.41 68.69C209.11 68.72 209.79 68.93 210.38 69.3C210.82 69.6 211.03 69.92 210.95 70.07Z" fill="#263238" fill-opacity="1.000000" fill-rule="nonzero"/>
	<path id="Vector" d="M222.54 69.52C222.27 69.81 221.21 69.52 219.93 69.52C218.66 69.52 217.6 69.71 217.33 69.4C217.22 69.25 217.39 68.96 217.86 68.69C218.52 68.34 219.25 68.18 219.99 68.21C220.72 68.22 221.44 68.43 222.06 68.81C222.51 69.07 222.66 69.37 222.54 69.52Z" fill="#263238" fill-opacity="1.000000" fill-rule="nonzero"/>
	<path id="Vector" d="M223.48 66.89C223.48 66.89 221.29 61.64 218.76 60.41C215.71 58.92 214.39 62.27 211.47 61.45C208.55 60.62 205.64 59.2 202.65 61.45C199.39 63.9 200.91 65.64 200.69 69.35C199.84 84.41 197.07 88.66 196.31 81.56C196.23 80.79 194.07 80.16 193.76 76.9C193.36 72.64 193.21 67.47 194.17 64.46C194.95 61.91 196.44 60.15 199.04 58.23C203.16 55.19 208.81 55.12 212.64 55.54C216.48 55.95 223.85 60.33 223.48 66.89Z" fill="#263238" fill-opacity="1.000000" fill-rule="nonzero"/>
	<path id="Vector" d="M196.84 81.33C196.83 81.02 196.76 80.72 196.63 80.44C196.51 80.16 196.32 79.91 196.09 79.71C195.86 79.5 195.6 79.34 195.31 79.24C195.02 79.15 194.71 79.11 194.4 79.13C192.85 79.28 191.1 80.16 191.19 83.38C191.35 89.11 197.07 87.76 197.08 87.59C197.08 87.42 196.94 83.73 196.84 81.33Z" fill="#FFBF9D" fill-opacity="1.000000" fill-rule="nonzero"/>
	<path id="Vector" d="M195.76 85.48C195.76 85.48 195.67 85.55 195.5 85.63C195.27 85.74 195 85.75 194.76 85.67C194.38 85.45 194.07 85.13 193.86 84.74C193.65 84.36 193.54 83.92 193.55 83.48C193.52 83 193.6 82.51 193.79 82.05C193.84 81.87 193.93 81.71 194.06 81.57C194.18 81.44 194.34 81.34 194.52 81.28C194.63 81.24 194.75 81.25 194.86 81.29C194.97 81.34 195.06 81.43 195.12 81.53C195.19 81.69 195.16 81.8 195.19 81.81C195.22 81.82 195.31 81.71 195.26 81.48C195.22 81.34 195.14 81.21 195.02 81.13C194.94 81.07 194.85 81.03 194.76 81.01C194.67 80.98 194.57 80.98 194.47 81C194.24 81.05 194.02 81.16 193.84 81.32C193.66 81.48 193.53 81.69 193.45 81.91C193.22 82.41 193.12 82.96 193.15 83.52C193.22 84.67 193.84 85.73 194.7 85.95C194.86 85.99 195.02 86 195.18 85.96C195.33 85.93 195.48 85.87 195.61 85.77C195.76 85.62 195.79 85.48 195.76 85.48Z" fill="#FF9A6C" fill-opacity="1.000000" fill-rule="nonzero"/>
	<path id="Vector" d="M196.99 70.24C197.69 70.81 198.52 71.2 199.41 71.37C199.85 71.44 200.31 71.34 200.69 71.1C201.07 70.86 201.35 70.49 201.48 70.06C201.55 69.67 201.48 69.2 201.72 68.9C201.95 68.59 202.61 68.65 203.09 68.7C204.75 68.88 206.7 67.04 207.13 65.43C207.35 65.74 207.67 65.95 208.04 66.03C208.41 66.11 208.8 66.04 209.12 65.85C209.65 65.52 210.12 65.11 210.51 64.63C210.73 64.32 211.03 64.07 211.37 63.9C211.71 63.73 212.09 63.65 212.47 63.65C212.88 63.79 213.29 63.88 213.72 63.93C214.5 63.86 214.84 62.99 214.95 62.24C215.07 61.49 215.16 60.63 215.8 60.22C216.46 59.97 217.18 59.95 217.85 60.17C218.54 60.28 219.4 60.12 219.61 59.44C219.64 59.26 219.63 59.07 219.59 58.9C219.54 58.72 219.47 58.55 219.36 58.4C218.89 57.71 218.21 57.19 217.42 56.94C216.62 56.68 215.77 56.7 214.98 56.99C214.71 56.03 214.16 55.18 213.39 54.54C212.63 53.9 211.7 53.5 210.71 53.39C209.72 53.28 208.72 53.47 207.83 53.93C206.95 54.4 206.23 55.11 205.75 55.99C205.15 55.43 204.42 55.03 203.62 54.82C202.83 54.61 202 54.59 201.2 54.77C200.39 54.95 199.65 55.33 199.02 55.86C198.4 56.39 197.91 57.06 197.6 57.82C196.9 57.64 196.16 57.66 195.47 57.89C194.78 58.12 194.18 58.55 193.73 59.12C193.29 59.69 193.02 60.38 192.96 61.1C192.91 61.82 193.06 62.55 193.41 63.18C192.88 63.44 192.42 63.84 192.08 64.33C191.75 64.81 191.54 65.38 191.48 65.97C191.48 67.15 192.6 68.3 193.75 68.02C193.51 68.49 193.46 69.03 193.61 69.53C193.76 70.03 194.09 70.46 194.54 70.72C194.99 70.98 195.53 71.06 196.04 70.94C196.55 70.82 196.99 70.51 197.28 70.08L196.99 70.24Z" fill="#263238" fill-opacity="1.000000" fill-rule="nonzero"/>
	<path id="Vector" d="M215.4 58.67C215.4 58.67 215.4 58.67 215.4 58.78C215.4 58.89 215.4 58.95 215.37 59.08C215.29 59.47 215.14 59.84 214.95 60.19C214.63 60.72 214.2 61.18 213.68 61.53C212.99 62 212.17 62.23 211.35 62.19L211.44 62.07C211.61 62.58 211.56 63.14 211.32 63.62C211.07 64.13 210.74 64.61 210.34 65.02C210.15 65.27 209.93 65.49 209.7 65.68C209.27 65.96 208.77 66.08 208.26 66.02C207.76 65.96 207.3 65.72 206.95 65.35L207.16 65.29C207.08 65.88 206.88 66.45 206.56 66.96C206.25 67.47 205.83 67.91 205.33 68.25C204.79 68.65 204.13 68.87 203.45 68.86C202.82 68.83 202.19 68.69 201.6 68.45L201.76 68.38C201.46 69.07 200.99 69.68 200.4 70.15C200.13 70.38 199.81 70.55 199.46 70.64C199.12 70.73 198.76 70.75 198.41 70.68C197.8 70.55 197.25 70.25 196.82 69.81C196.39 69.37 196.1 68.81 195.98 68.21L196.11 68.27C195.51 68.59 194.81 68.69 194.14 68.55C193.65 68.46 193.18 68.25 192.78 67.94C192.53 67.74 192.31 67.51 192.14 67.24C192.07 67.15 192.03 67.04 192 66.94C192.21 67.29 192.5 67.61 192.83 67.86C193.23 68.15 193.68 68.34 194.17 68.41C194.8 68.53 195.46 68.43 196.03 68.12L196.13 68.06L196.13 68.18C196.25 68.74 196.53 69.26 196.94 69.66C197.34 70.07 197.86 70.35 198.42 70.47C198.74 70.52 199.07 70.51 199.38 70.42C199.7 70.33 199.99 70.17 200.23 69.96C200.79 69.52 201.23 68.94 201.51 68.29L201.55 68.19L201.66 68.19C202.23 68.41 202.82 68.55 203.43 68.58C204.06 68.58 204.67 68.38 205.17 68.01C205.64 67.69 206.03 67.28 206.33 66.79C206.63 66.31 206.82 65.78 206.9 65.22L206.9 64.94L207.08 65.15C207.28 65.38 207.53 65.55 207.82 65.65C208.1 65.76 208.4 65.79 208.7 65.75C208.98 65.71 209.25 65.61 209.48 65.45C209.7 65.27 209.91 65.06 210.09 64.84C210.47 64.44 210.79 63.99 211.05 63.5C211.16 63.28 211.23 63.04 211.26 62.8C211.28 62.55 211.25 62.3 211.17 62.07L211.13 61.93L211.28 61.93C212.07 61.98 212.86 61.77 213.52 61.33C214.03 61 214.46 60.56 214.78 60.05C215.07 59.63 215.28 59.16 215.4 58.67Z" fill="#455A64" fill-opacity="1.000000" fill-rule="nonzero"/>
	<path id="Vector" d="M214.44 88.84C214.39 88.63 213 88.97 211.71 88.03C210.42 87.08 210.21 85.55 210.02 85.59C209.82 85.63 209.82 86 209.96 86.63C210.15 87.45 210.63 88.18 211.31 88.68C211.95 89.16 212.76 89.37 213.56 89.27C214.16 89.18 214.47 88.94 214.44 88.84Z" fill="#263238" fill-opacity="1.000000" fill-rule="nonzero"/>
	<path id="Vector" d="M257.57 306.42L263.09 325.23C263.09 325.23 284.09 325.93 285.43 329.32L249.3 341.32L239.49 312.35L257.57 306.42Z" fill="#455A64" fill-opacity="1.000000" fill-rule="nonzero"/>
	<path id="Vector" d="M251.41 327.39C251.1 327.61 250.88 327.94 250.79 328.31C250.71 328.68 250.77 329.07 250.95 329.41C251.16 329.73 251.48 329.96 251.86 330.04C252.23 330.13 252.62 330.08 252.95 329.88C253.28 329.65 253.51 329.3 253.6 328.9C253.69 328.51 253.62 328.09 253.42 327.74C253.17 327.43 252.81 327.22 252.41 327.17C252.01 327.13 251.61 327.23 251.29 327.47L251.41 327.39Z" fill="#E0E0E0" fill-opacity="1.000000" fill-rule="nonzero"/>
	<path id="Vector" d="M283.39 327.95C283.39 327.95 285.24 328.12 285.43 329.32L249.3 341.32L248.43 338.36L283.36 327.94L283.39 327.95Z" fill="#263238" fill-opacity="1.000000" fill-rule="nonzero"/>
	<path id="Vector" d="M263.61 324.85C263.67 325.03 262.83 325.4 262.13 326.26C261.43 327.12 261.24 328.01 261.05 327.99C260.87 327.98 260.8 326.87 261.64 325.85C262.48 324.84 263.6 324.68 263.61 324.85Z" fill="#FFFFFF" fill-opacity="1.000000" fill-rule="nonzero"/>
	<path id="Vector" d="M267.92 325.16C268.02 325.32 267.36 325.87 267 326.81C266.64 327.75 266.75 328.61 266.57 328.65C266.39 328.7 265.94 327.75 266.4 326.58C266.86 325.41 267.87 324.99 267.92 325.16Z" fill="#FFFFFF" fill-opacity="1.000000" fill-rule="nonzero"/>
	<path id="Vector" d="M271.58 328.97C271.43 329.07 270.9 328.27 271.03 327.15C271.16 326.04 271.85 325.37 271.98 325.5C272.1 325.62 271.76 326.28 271.67 327.22C271.57 328.17 271.75 328.88 271.58 328.97Z" fill="#FFFFFF" fill-opacity="1.000000" fill-rule="nonzero"/>
	<path id="Vector" d="M261.88 320.71C261.88 320.89 260.97 320.92 260 321.31C259.02 321.71 258.35 322.29 258.21 322.17C258.07 322.05 258.6 321.17 259.76 320.71C260.92 320.26 261.92 320.54 261.88 320.71Z" fill="#FFFFFF" fill-opacity="1.000000" fill-rule="nonzero"/>
	<path id="Vector" d="M173.32 306.58L165.46 324.55C165.46 324.55 181.08 338.55 179.95 342.03L144.57 328.03L155.67 299.54L173.32 306.58Z" fill="#455A64" fill-opacity="1.000000" fill-rule="nonzero"/>
	<path id="Vector" d="M155.12 318.69C154.74 318.66 154.36 318.77 154.06 319.01C153.75 319.24 153.55 319.57 153.47 319.95C153.43 320.32 153.53 320.71 153.76 321.01C153.99 321.32 154.33 321.53 154.7 321.59C155.11 321.62 155.51 321.5 155.83 321.26C156.15 321.01 156.37 320.65 156.44 320.26C156.44 319.48 155.74 318.59 154.97 318.7L155.12 318.69Z" fill="#E0E0E0" fill-opacity="1.000000" fill-rule="nonzero"/>
	<path id="Vector" d="M179.26 339.68C179.26 339.68 180.57 341 179.95 342.01L144.57 328.02L145.81 325.19L179.24 339.66L179.26 339.68Z" fill="#263238" fill-opacity="1.000000" fill-rule="nonzero"/>
	<path id="Vector" d="M166.09 324.6C166.02 324.77 165.13 324.5 164.06 324.72C162.98 324.94 162.24 325.5 162.11 325.36C161.98 325.22 162.63 324.33 163.93 324.09C165.23 323.85 166.2 324.45 166.09 324.6Z" fill="#FFFFFF" fill-opacity="1.000000" fill-rule="nonzero"/>
	<path id="Vector" d="M169.2 327.6C169.2 327.78 168.32 327.78 167.44 328.27C166.56 328.77 166.09 329.48 165.88 329.41C165.67 329.34 165.99 328.31 167.09 327.71C168.19 327.12 169.27 327.43 169.2 327.6Z" fill="#FFFFFF" fill-opacity="1.000000" fill-rule="nonzero"/>
	<path id="Vector" d="M169.56 332.87C169.39 332.87 169.49 331.89 170.34 331.12C171.19 330.35 172.11 330.29 172.13 330.46C172.14 330.63 171.44 330.94 170.78 331.59C170.12 332.23 169.74 332.92 169.56 332.87Z" fill="#FFFFFF" fill-opacity="1.000000" fill-rule="nonzero"/>
	<path id="Vector" d="M167.44 320.33C167.31 320.45 166.61 319.91 165.6 319.55C164.6 319.19 163.72 319.24 163.69 319.06C163.66 318.88 164.63 318.54 165.81 318.93C166.98 319.32 167.58 320.2 167.44 320.33Z" fill="#FFFFFF" fill-opacity="1.000000" fill-rule="nonzero"/>
	<path id="Vector" d="M186.56 207.9L174.17 258.18C174.17 258.18 151.81 295.82 148.02 314.66L168.47 322.7C168.47 322.7 183.35 286.42 187.71 279.76C189.68 276.78 191.93 274 194.45 271.47C196.08 269.84 197.26 267.81 197.85 265.59L207.23 229.71L186.56 207.9Z" fill="#263238" fill-opacity="1.000000" fill-rule="nonzero"/>
	<path id="Vector" d="M181.28 199.86C181.28 199.86 183.01 213.33 195.97 219.3L223.28 263.78C223.28 263.78 225.42 278.25 229.5 290.43C233.59 302.62 241.84 326.1 241.84 326.1L264.3 317.71L249.99 268.76L247.65 251.78L225.37 195.02L206.22 183.54L181.28 199.86Z" fill="#263238" fill-opacity="1.000000" fill-rule="nonzero"/>
	<path id="Vector" d="M181.28 199.86L181.69 199.58L182.93 198.76L187.78 195.55L206.18 183.46L206.24 183.42L206.31 183.46L225.47 194.91L225.47 194.96L247.8 251.68L247.8 251.71C248.54 257.08 249.36 262.83 250.13 268.69C254.02 281.91 258.14 296.06 262.41 310.63C263.1 312.98 263.78 315.31 264.46 317.63L264.51 317.81L264.33 317.87L241.87 326.27L241.67 326.34L241.61 326.14C237.72 314.86 233.96 304 230.41 293.69C229.51 291.12 228.63 288.57 227.9 286.02C227.17 283.47 226.51 280.93 225.91 278.43C224.73 273.42 223.78 268.53 223.03 263.78L223.03 263.85L195.88 219.35L195.92 219.39C192.64 217.85 189.72 215.63 187.37 212.87C185.65 210.85 184.23 208.58 183.17 206.14C182.52 204.63 182 203.07 181.62 201.47C181.48 200.94 181.41 200.53 181.36 200.25C181.31 199.97 181.31 199.83 181.31 199.83C181.31 199.83 181.31 199.97 181.39 200.24C181.48 200.51 181.52 200.93 181.67 201.46C182.07 203.04 182.61 204.58 183.27 206.07C184.35 208.48 185.77 210.73 187.49 212.73C189.85 215.46 192.77 217.66 196.04 219.17L223.41 263.62L223.41 263.66C224.18 268.39 225.12 273.27 226.3 278.27C226.9 280.77 227.55 283.29 228.29 285.84C229.03 288.38 229.9 290.92 230.79 293.49C234.36 303.79 238.12 314.66 242.02 325.93L241.77 325.82L264.23 317.42L264.11 317.66C263.44 315.34 262.75 313.01 262.06 310.66L249.8 268.71C249.02 262.85 248.2 257.1 247.47 251.74L247.47 251.78L225.22 195.02L225.28 195.09L206.15 183.58L206.27 183.58L187.87 195.62L182.97 198.78L181.71 199.6L181.28 199.86Z" fill="#455A64" fill-opacity="1.000000" fill-rule="nonzero"/>
	<path id="Vector" d="M193.31 103.77C193.31 103.77 186.76 108.81 183.58 114.44C179.77 121.18 179.36 131.17 179.24 146.69C179.13 161.05 181.27 165.04 180.45 170.45C178.82 181.02 177.62 216.49 177.62 216.49C177.62 216.49 198.62 208.42 202.69 204.82L206.79 201.26L233.06 209.95L227.76 177.66L224.12 137.41L219.46 116.07L218.68 107.69L196.11 98.63L193.31 103.77Z" fill="#455A64" fill-opacity="1.000000" fill-rule="nonzero"/>
	<path id="Vector" d="M217.83 107.25C218.1 107.3 217.19 109.15 215.57 111.85L215.5 111.96L215.37 111.92C213.1 111.03 210.08 109.92 206.78 108.71C203.06 107.36 199.7 106.1 197.3 105.12C196.1 104.63 195.13 104.22 194.47 103.91C194.12 103.78 193.78 103.61 193.46 103.42C193.83 103.5 194.19 103.62 194.53 103.77L197.4 104.85L206.92 108.33C210.22 109.54 213.23 110.66 215.47 111.63L215.29 111.69C216.98 109.04 217.99 107.29 217.83 107.25Z" fill="#263238" fill-opacity="1.000000" fill-rule="nonzero"/>
	<path id="Vector" d="M244.99 90.48C244.99 90.48 243.32 87.89 241.75 85.51C240.18 83.12 237.8 81.94 237.42 80.7C237.04 79.46 234.95 73.91 234.61 72.53C234.32 71.2 234.19 69.84 234.21 68.48C234.21 68.48 235.93 67.74 236.75 70.2C237.25 71.68 238.84 76.7 239.18 76.94C239.52 77.19 239.95 76.83 239.95 76.83C239.25 74.95 238.64 73.04 238.13 71.1C238.05 70.19 238.37 64.15 238.37 64.15C238.79 64.07 239.24 64.14 239.62 64.35C240 64.56 240.29 64.9 240.44 65.31C241.25 66.87 241.29 70.75 241.29 70.75L242.52 75.09L242.09 70.8L242.71 62.91C243.31 62.99 243.88 63.26 244.32 63.68C244.77 64.1 245.07 64.64 245.2 65.24C245.72 67.37 245.03 70.34 245.38 70.97C245.73 71.6 246.11 75.41 246.11 75.41C246.11 75.41 246.53 66.16 247.52 65.89C248.51 65.63 249.32 66.61 249.18 68.48C249.04 70.34 249 74.29 249.51 76.03C250.03 77.78 255.29 84.59 254.86 87.57C254.6 89.38 254.44 91.2 254.37 93.02L245.35 93.02L244.99 90.48Z" fill="#FFBF9D" fill-opacity="1.000000" fill-rule="nonzero"/>
	<path id="Vector" d="M213.34 113.79C213.85 113.98 235.4 119.32 235.4 119.32C235.4 119.32 240.21 111.54 240.92 109.29C241.63 107.03 245.41 92.01 245.41 92.01L254.52 91.15C254.52 91.15 252.19 129.95 248.89 132.04C245.59 134.13 240.34 135.19 239.99 135.07C239.65 134.96 216.7 136.55 204.61 127.03C192.52 117.5 213.34 113.79 213.34 113.79Z" fill="#FFBF9D" fill-opacity="1.000000" fill-rule="nonzero"/>
	<g opacity="0.300000">
		<path id="Vector" d="M197.9 134.33C200.21 136.95 203.3 138.76 206.71 139.51C212.43 140.77 224.6 143 224.6 143L224.01 137.03L197.57 134.2L197.9 134.33Z" fill="#000000" fill-opacity="1.000000" fill-rule="nonzero"/>
	</g>
	<path id="Vector" d="M188.3 126.12C190.26 130.25 194.62 134.67 204.19 135.67C223.14 137.63 237.49 138.67 243.69 137.74C249.89 136.81 252.35 123.69 253.02 123.29C254.95 122.07 254.82 117.9 253.16 116.66C248.43 113.12 238.95 110.44 238.31 110.73C234.54 112.6 235.77 116.99 235.77 116.99L211.74 111.68C208.97 110.53 206.09 109.69 203.13 109.18L188.3 126.12Z" fill="#455A64" fill-opacity="1.000000" fill-rule="nonzero"/>
	<path id="Vector" d="M203.13 109.18C203.13 109.18 203.34 109.18 203.72 109.26C204.11 109.33 204.7 109.43 205.44 109.59C207.61 110.08 209.73 110.75 211.79 111.6L235.8 116.82L235.6 117.04C235.25 115.66 235.35 114.21 235.91 112.9C236.22 112.22 236.68 111.64 237.26 111.18C237.56 110.95 237.87 110.75 238.21 110.58C238.32 110.54 238.44 110.53 238.56 110.52L238.84 110.52C239.04 110.52 239.21 110.59 239.4 110.62C242.35 111.32 245.23 112.29 248 113.53C249.46 114.17 250.88 114.91 252.23 115.76C252.56 115.97 252.9 116.22 253.23 116.45C253.58 116.71 253.86 117.05 254.05 117.44C254.43 118.2 254.63 119.04 254.63 119.89C254.65 120.76 254.46 121.61 254.07 122.38C253.85 122.78 253.55 123.12 253.18 123.39C253.09 123.43 253.03 123.63 252.95 123.82L252.75 124.4C252.23 125.96 251.72 127.62 251.1 129.23C250.28 131.52 249.09 133.67 247.57 135.57C247.02 136.3 246.31 136.89 245.51 137.31C244.7 137.73 243.81 137.97 242.9 138.01C242.32 138.1 241.74 138.11 241.16 138.16C238.83 138.3 236.59 138.27 234.37 138.21C232.16 138.14 229.99 138.03 227.88 137.9C219.43 137.35 211.84 136.58 205.48 135.92C203.96 135.79 202.45 135.57 200.96 135.27C199.63 134.98 198.33 134.59 197.07 134.09C195.03 133.29 193.15 132.12 191.55 130.62C190.56 129.66 189.7 128.57 189 127.38C188.76 126.97 188.54 126.54 188.36 126.09C188.36 126.09 188.58 126.54 189.07 127.34C189.79 128.5 190.66 129.57 191.66 130.5C193.26 131.97 195.12 133.11 197.15 133.88C198.42 134.36 199.72 134.75 201.04 135.02C202.53 135.31 204.04 135.51 205.55 135.63C211.91 136.26 219.5 137 227.93 137.53C230.05 137.66 232.21 137.76 234.42 137.82C236.63 137.87 238.89 137.9 241.18 137.77C241.74 137.72 242.33 137.7 242.89 137.62C243.46 137.59 244.02 137.48 244.56 137.3C245.63 136.88 246.58 136.2 247.31 135.31C248.8 133.44 249.97 131.34 250.77 129.09C251.39 127.53 251.89 125.89 252.41 124.29L252.62 123.68C252.62 123.59 252.7 123.49 252.75 123.38C252.78 123.32 252.81 123.26 252.85 123.21C252.88 123.17 252.91 123.14 252.95 123.11L253 123.06C253.33 122.84 253.59 122.54 253.78 122.2C254.15 121.47 254.32 120.67 254.3 119.86C254.3 119.08 254.12 118.3 253.77 117.59C253.6 117.26 253.36 116.97 253.07 116.74C252.73 116.51 252.41 116.27 252.08 116.06C250.75 115.22 249.35 114.49 247.91 113.86C245.17 112.62 242.32 111.65 239.4 110.95C239.22 110.95 239.04 110.87 238.87 110.86L238.61 110.86L238.44 110.86C238.13 111.02 237.84 111.21 237.57 111.43C237.03 111.83 236.59 112.37 236.3 112.98C235.79 114.21 235.68 115.57 236 116.87L236.07 117.14L235.79 117.08L211.82 111.71C209.78 110.86 207.68 110.16 205.54 109.63C204.76 109.45 204.22 109.33 203.83 109.25C203.44 109.17 203.13 109.18 203.13 109.18Z" fill="#263238" fill-opacity="1.000000" fill-rule="nonzero"/>
	<path id="Vector" d="M243.69 124.49C243.14 124.35 242.61 124.12 242.13 123.81C240.94 123.15 239.84 122.33 238.87 121.37C237.89 120.42 237.03 119.35 236.32 118.18C235.99 117.71 235.74 117.18 235.58 116.63C236.64 118.2 237.84 119.68 239.15 121.05C240.55 122.33 242.07 123.48 243.69 124.49Z" fill="#263238" fill-opacity="1.000000" fill-rule="nonzero"/>
	<path id="Vector" d="M74.5 188.54C74.5 188.54 79.32 188.79 82.28 190.67C85.23 192.54 90.05 195.44 92.04 199.04C92.95 200.7 90.36 201.05 89.08 200.09C87.81 199.12 85.84 197.32 84.87 197.09L83.9 196.87C84.78 198.88 85.77 200.84 86.86 202.75C87.86 204.3 88.73 206.88 85.72 207.01C85.72 207.01 83.69 209.65 81.63 207.69C81.63 207.69 80.03 210.09 77.45 206.77C77.45 206.77 75.95 208.66 75.32 207.94C74.69 207.22 72.64 206.06 72.04 203.68C71.14 200.91 70.1 198.18 68.93 195.52L74.5 188.54Z" fill="#FFBF9D" fill-opacity="1.000000" fill-rule="nonzero"/>
	<path id="Vector" d="M33.47 125.14C31 125.93 28.87 127.53 27.42 129.68C25.56 132.53 25 137.46 25.53 141.13C26.65 148.87 30.19 161.93 32.19 170.31C32.87 173.2 34.28 178.38 38.41 181.13L67.88 198.79L75.75 187.13L48.89 165.24L43.58 135.24L33.47 125.14Z" fill="#455A64" fill-opacity="1.000000" fill-rule="nonzero"/>
	<path id="Vector" d="M28.38 154.62C28.42 154.72 28.45 154.82 28.47 154.93L28.72 155.84C28.93 156.66 29.23 157.84 29.62 159.36C30.39 162.47 31.5 166.89 32.87 172.39C33.67 175.38 35.37 178.06 37.73 180.07C39.08 181.15 40.52 182.11 42.04 182.93L46.77 185.79L67.99 198.61L67.72 198.67L70.56 194.46L75.6 186.97L75.64 187.25L49.02 165.32L48.97 165.32L48.97 165.27C47.21 157.87 45.94 151.82 45.13 147.6C44.73 145.49 44.45 143.85 44.27 142.73C44.2 142.19 44.13 141.76 44.09 141.46C44.04 141.16 44.03 141.02 44.03 141.02C44.08 141.16 44.11 141.31 44.13 141.45C44.19 141.75 44.27 142.17 44.36 142.72C44.57 143.83 44.87 145.47 45.31 147.57C46.16 151.77 47.48 157.81 49.27 165.2L49.22 165.11L75.89 186.94L76.03 187.05L75.92 187.2L70.89 194.69L68.05 198.9L67.95 199.05L67.78 198.96L46.58 186.1L41.86 183.23C40.33 182.4 38.88 181.44 37.52 180.35C35.12 178.29 33.4 175.55 32.61 172.49C31.28 166.97 30.21 162.52 29.5 159.43C29.15 157.87 28.87 156.72 28.67 155.89L28.45 154.94C28.42 154.83 28.4 154.73 28.38 154.62Z" fill="#263238" fill-opacity="1.000000" fill-rule="nonzero"/>
	<path id="Vector" d="M28.86 129.28C29.04 129.16 29.25 129.07 29.46 129.02C30.02 128.85 30.6 128.72 31.19 128.64C33.14 128.33 35.13 128.6 36.93 129.41C38.67 130.32 40.15 131.66 41.23 133.3C41.55 133.8 41.81 134.33 42 134.89C42.09 135.1 42.13 135.31 42.14 135.53C41.81 134.81 41.42 134.12 40.99 133.46C39.88 131.93 38.43 130.68 36.75 129.8C35.02 129.03 33.11 128.74 31.22 128.95C29.76 129.06 28.89 129.35 28.86 129.28Z" fill="#263238" fill-opacity="1.000000" fill-rule="nonzero"/>
</svg>
