<svg width="59.000000" height="12.000000" viewBox="0 0 59 12" fill="none" xmlns="http://www.w3.org/2000/svg" xmlns:xlink="http://www.w3.org/1999/xlink">
	<desc>
			Created with Pixso.
	</desc>
	<defs/>
	<path id="Vector" d="M30.37 5.82C29.88 5.82 29.53 5.99 29.17 6.15L29.17 9.94C29.52 9.97 29.71 9.97 30.04 9.97C31.2 9.97 31.36 9.42 31.36 8.65L31.36 6.85C31.36 6.28 31.18 5.82 30.37 5.82ZM22.6 5.62C21.79 5.62 21.61 6.07 21.61 6.64L21.61 6.96L23.6 6.96L23.6 6.64C23.6 6.07 23.41 5.62 22.6 5.62ZM7.56 9.56C7.56 10 7.77 10.24 8.22 10.24C8.71 10.24 9 10.07 9.35 9.91L9.35 9.01L8.29 9.01C7.78 9.01 7.56 9.1 7.56 9.56ZM37.92 5.82C37.11 5.82 36.83 6.28 36.83 6.85L36.83 8.92C36.83 9.49 37.11 9.94 37.92 9.94C38.73 9.94 39.02 9.49 39.02 8.92L39.02 6.85C39.02 6.28 38.73 5.82 37.92 5.82ZM3.58 11.88L1.19 11.88L1.19 5.94L0 5.94L0 3.89L1.19 3.89L1.19 2.66C1.19 0.99 1.86 0 3.78 0L5.37 0L5.37 2.04L4.38 2.04C3.63 2.04 3.58 2.33 3.58 2.86L3.58 3.89L5.38 3.89L5.17 5.94L3.58 5.94L3.58 11.88ZM11.74 11.89L9.75 11.89L9.67 11.38C8.76 11.89 7.94 11.98 7.41 11.98C5.95 11.98 5.17 10.97 5.17 9.59C5.17 7.95 6.08 7.37 7.7 7.37L9.35 7.37L9.35 7.02C9.35 6.18 9.26 5.94 8.01 5.94L5.97 5.94L6.17 3.89L8.4 3.89C11.14 3.89 11.74 4.78 11.74 7.03L11.74 11.89ZM18.51 6.09C17.27 5.87 16.92 5.82 16.32 5.82C15.25 5.82 14.93 6.06 14.93 7L14.93 8.76C14.93 9.7 15.25 9.94 16.32 9.94C16.92 9.94 17.27 9.89 18.51 9.68L18.51 11.67C17.43 11.92 16.72 11.99 16.12 11.99C13.56 11.99 12.54 10.6 12.54 8.6L12.54 7.17C12.54 5.16 13.56 3.77 16.12 3.77C16.72 3.77 17.43 3.84 18.51 4.09L18.51 6.09ZM25.99 8.6L21.61 8.6L21.61 8.76C21.61 9.7 21.93 9.94 23 9.94C23.96 9.94 24.55 9.89 25.79 9.68L25.79 11.67C24.6 11.92 23.97 11.99 22.8 11.99C20.24 11.99 19.22 10.6 19.22 8.6L19.22 6.96C19.22 5.21 19.98 3.77 22.6 3.77C25.23 3.77 25.99 5.19 25.99 6.96L25.99 8.6ZM33.75 8.64C33.75 10.57 33.22 11.98 29.95 11.98C28.78 11.98 28.09 11.88 26.79 11.67L26.79 0.61L29.17 0.2L29.17 4.07C29.69 3.87 30.36 3.77 30.97 3.77C33.36 3.77 33.75 4.87 33.75 6.64L33.75 8.64L33.75 8.64ZM41.41 8.68C41.41 10.35 40.74 11.97 37.93 11.97C35.12 11.97 34.44 10.35 34.44 8.68L34.44 7.07C34.44 5.4 35.12 3.78 37.93 3.78C40.74 3.78 41.41 5.4 41.41 7.07L41.41 8.68ZM49.06 8.68C49.06 10.35 48.39 11.97 45.58 11.97C42.77 11.97 42.09 10.35 42.09 8.68L42.09 7.07C42.09 5.4 42.77 3.78 45.58 3.78C48.39 3.78 49.06 5.4 49.06 7.07L49.06 8.68ZM56.91 11.88L54.32 11.88L52.13 8.12L52.13 11.88L49.74 11.88L49.74 0.61L52.13 0.2L52.13 7.45L54.32 3.89L56.91 3.89L54.52 7.78L56.91 11.88ZM45.57 5.82C44.76 5.82 44.48 6.28 44.48 6.85L44.48 8.92C44.48 9.49 44.76 9.94 45.57 9.94C46.38 9.94 46.67 9.49 46.67 8.92L46.67 6.85C46.67 6.28 46.38 5.82 45.57 5.82ZM58.27 10.48C58.67 10.48 59 10.81 59 11.23C59 11.66 58.67 12 58.27 12C57.87 12 57.54 11.66 57.54 11.23C57.54 10.81 57.87 10.48 58.27 10.48L58.27 10.48ZM58.27 10.59C57.95 10.59 57.68 10.88 57.68 11.23C57.68 11.59 57.95 11.88 58.27 11.88C58.6 11.88 58.86 11.59 58.86 11.24C58.86 10.88 58.6 10.59 58.27 10.59L58.27 10.59ZM58.13 11.68L58 11.68L58 10.83C58.07 10.82 58.13 10.81 58.23 10.81C58.36 10.81 58.44 10.84 58.49 10.87C58.54 10.91 58.56 10.97 58.56 11.05C58.56 11.16 58.49 11.23 58.4 11.25L58.4 11.26C58.48 11.28 58.52 11.34 58.54 11.47C58.56 11.6 58.58 11.65 58.59 11.68L58.46 11.68C58.44 11.65 58.42 11.57 58.4 11.46C58.38 11.35 58.33 11.31 58.22 11.31L58.13 11.31L58.13 11.68L58.13 11.68ZM58.13 11.21L58.23 11.21C58.33 11.21 58.43 11.17 58.43 11.06C58.43 10.99 58.37 10.91 58.23 10.91C58.18 10.91 58.15 10.92 58.13 10.92L58.13 11.21Z" fill="#26559A" fill-opacity="1.000000" fill-rule="nonzero"/>
</svg>
