<svg width="140.608398" height="68.393555" viewBox="0 0 140.608 68.3936" fill="none" xmlns="http://www.w3.org/2000/svg" xmlns:xlink="http://www.w3.org/1999/xlink">
	<desc>
			Created with Pixso.
	</desc>
	<defs/>
	<path id="Vector" d="M3.83 60.24C2.66 60.07 1.6 59.44 0.89 58.49C0.18 57.54 -0.13 56.35 0.04 55.17L5.57 16.67C5.75 15.7 6.3 14.84 7.1 14.28C7.91 13.72 8.91 13.5 9.88 13.67L13.49 14.19C14.2 14.3 14.92 14.21 15.58 13.93C16.24 13.66 16.81 13.21 17.23 12.62L18.23 11.15C18.65 10.57 19.22 10.12 19.88 9.84C20.54 9.57 21.26 9.48 21.97 9.59L39.18 12.06C39.83 12.14 40.44 12.39 40.97 12.78C41.5 13.16 41.92 13.68 42.19 14.27L42.85 15.73C43.12 16.32 43.54 16.83 44.07 17.22C44.59 17.61 45.21 17.86 45.85 17.94L67.75 21.09C68.73 21.2 69.62 21.69 70.24 22.46C70.85 23.23 71.14 24.2 71.03 25.18L65.37 64.56C65.29 65.14 65.09 65.7 64.79 66.2C64.49 66.71 64.1 67.15 63.63 67.5C63.16 67.85 62.62 68.11 62.05 68.25C61.48 68.4 60.89 68.43 60.31 68.34L3.83 60.24Z" fill="#455A64" fill-opacity="1.000000" fill-rule="nonzero"/>
	<g opacity="0.300000">
		<path id="Vector" d="M3.83 60.24C2.66 60.07 1.6 59.44 0.89 58.49C0.18 57.54 -0.13 56.35 0.04 55.17L5.57 16.67C5.75 15.7 6.3 14.84 7.1 14.28C7.91 13.72 8.91 13.5 9.88 13.67L13.49 14.19C14.2 14.3 14.92 14.21 15.58 13.93C16.24 13.66 16.81 13.21 17.23 12.62L18.23 11.15C18.65 10.57 19.22 10.12 19.88 9.84C20.54 9.57 21.26 9.48 21.97 9.59L39.18 12.06C39.83 12.14 40.44 12.39 40.97 12.78C41.5 13.16 41.92 13.68 42.19 14.27L42.85 15.73C43.12 16.32 43.54 16.83 44.07 17.22C44.59 17.61 45.21 17.86 45.85 17.94L67.75 21.09C68.73 21.2 69.62 21.69 70.24 22.46C70.85 23.23 71.14 24.2 71.03 25.18L65.37 64.56C65.29 65.14 65.09 65.7 64.79 66.2C64.49 66.71 64.1 67.15 63.63 67.5C63.16 67.85 62.62 68.11 62.05 68.25C61.48 68.4 60.89 68.43 60.31 68.34L3.83 60.24Z" fill="#000000" fill-opacity="1.000000" fill-rule="nonzero"/>
	</g>
	<path id="Vector" d="M43.66 17.64L29.73 15.6L28.82 13.1C28.51 12.28 27.98 11.56 27.29 11.02C26.6 10.48 25.78 10.13 24.91 10.02L11.3 8.06C10.18 7.86 9.03 8.11 8.1 8.76C7.16 9.4 6.52 10.39 6.31 11.51L6.09 13.1L0.07 54.9C-0.07 56.18 0.3 57.47 1.11 58.48C1.91 59.49 3.09 60.14 4.37 60.29L59.72 68.31C60.99 68.53 62.3 68.24 63.36 67.5C64.42 66.76 65.14 65.63 65.37 64.36L71.05 24.87C71.11 24.45 71.09 24.03 70.99 23.61C70.88 23.2 70.7 22.82 70.45 22.48C70.19 22.14 69.87 21.85 69.51 21.64C69.15 21.42 68.74 21.28 68.32 21.22L43.66 17.64Z" fill="#455A64" fill-opacity="1.000000" fill-rule="nonzero"/>
	<path id="Vector" d="M21.92 30.09L54.84 34.82L52.85 48.67L19.92 43.94L21.92 30.09Z" fill="#FFFFFF" fill-opacity="1.000000" fill-rule="evenodd"/>
	<path id="Vector" d="M48.87 40.21C48.87 40.33 43.78 39.7 37.53 38.81C31.28 37.91 26.23 37.08 26.25 36.96C26.28 36.83 31.35 37.46 37.6 38.36C43.85 39.25 48.89 40.09 48.87 40.21Z" fill="#263238" fill-opacity="1.000000" fill-rule="nonzero"/>
	<path id="Vector" d="M48.45 43.16C48.45 43.28 43.36 42.65 37.11 41.76C30.86 40.86 25.81 40.04 25.83 39.91C25.84 39.78 30.92 40.41 37.17 41.31C43.42 42.2 48.47 43.04 48.45 43.16Z" fill="#263238" fill-opacity="1.000000" fill-rule="nonzero"/>
	<path id="Vector" d="M103.75 43.13C103.39 43.26 103 43.33 102.61 43.31C102.23 43.3 101.85 43.21 101.49 43.05C101.14 42.89 100.82 42.66 100.56 42.38C100.29 42.1 100.09 41.77 99.95 41.4L90.83 17.56C90.73 17.26 90.68 16.94 90.7 16.63C90.72 16.31 90.8 15.99 90.94 15.71C91.08 15.42 91.28 15.16 91.52 14.95C91.75 14.74 92.03 14.58 92.34 14.48L94.57 13.61C95.01 13.45 95.4 13.17 95.69 12.8C95.98 12.43 96.16 11.99 96.22 11.52L96.32 10.36C96.37 9.89 96.56 9.45 96.85 9.08C97.14 8.71 97.52 8.43 97.96 8.27L108.6 4.19C109 4.04 109.43 3.98 109.86 4.04C110.28 4.09 110.69 4.25 111.04 4.5L111.9 5.13C112.25 5.38 112.65 5.54 113.07 5.59C113.5 5.64 113.93 5.59 114.33 5.44L127.89 0.27C128.49 0.03 129.16 0.02 129.75 0.27C130.35 0.51 130.83 0.98 131.08 1.57L140.41 25.96C140.55 26.32 140.61 26.7 140.6 27.09C140.59 27.48 140.5 27.86 140.34 28.21C140.18 28.57 139.95 28.88 139.67 29.15C139.39 29.41 139.05 29.62 138.69 29.75L103.75 43.13Z" fill="#029491" fill-opacity="1.000000" fill-rule="nonzero"/>
	<g opacity="0.300000">
		<path id="Vector" d="M103.75 43.13C103.39 43.26 103 43.33 102.61 43.31C102.23 43.3 101.85 43.21 101.49 43.05C101.14 42.89 100.82 42.66 100.56 42.38C100.29 42.1 100.09 41.77 99.95 41.4L90.83 17.56C90.72 17.26 90.68 16.94 90.7 16.62C90.72 16.31 90.8 15.99 90.94 15.71C91.08 15.42 91.28 15.16 91.51 14.95C91.75 14.74 92.03 14.58 92.33 14.48L94.57 13.61C95.01 13.45 95.4 13.17 95.68 12.8C95.97 12.43 96.16 11.99 96.22 11.52L96.32 10.36C96.37 9.89 96.55 9.45 96.84 9.08C97.13 8.71 97.52 8.43 97.96 8.27L108.6 4.19C109 4.04 109.43 3.98 109.86 4.04C110.28 4.09 110.69 4.25 111.04 4.5L111.9 5.13C112.25 5.38 112.65 5.54 113.07 5.59C113.5 5.64 113.93 5.59 114.32 5.44L127.89 0.27C128.48 0.03 129.15 0.02 129.75 0.27C130.35 0.51 130.83 0.98 131.08 1.57L140.41 25.96C140.55 26.32 140.61 26.7 140.6 27.09C140.59 27.48 140.5 27.86 140.34 28.21C140.18 28.57 139.95 28.88 139.67 29.15C139.39 29.41 139.05 29.62 138.69 29.75L103.75 43.13Z" fill="#000000" fill-opacity="1.000000" fill-rule="nonzero"/>
	</g>
	<path id="Vector" d="M112.97 5.97L104.37 9.26L103.04 8.11C102.6 7.74 102.07 7.5 101.51 7.41C100.94 7.32 100.36 7.38 99.82 7.6L91.39 10.83C90.69 11.08 90.11 11.59 89.79 12.27C89.47 12.94 89.42 13.71 89.67 14.41L90.05 15.4L99.95 41.28C100.29 42.07 100.91 42.69 101.7 43.01C102.49 43.33 103.37 43.33 104.15 43.01L138.42 29.89C139.22 29.61 139.88 29.03 140.25 28.26C140.63 27.5 140.68 26.61 140.4 25.81L131.04 1.35C130.84 0.83 130.43 0.4 129.92 0.18C129.41 -0.05 128.83 -0.07 128.3 0.14L112.97 5.97Z" fill="#029491" fill-opacity="1.000000" fill-rule="nonzero"/>
	<path id="Vector" d="M104.48 20.04L124.87 12.23L128.16 20.81L107.77 28.61L104.48 20.04Z" fill="#FFFFFF" fill-opacity="1.000000" fill-rule="evenodd"/>
	<path id="Vector" d="M123.17 17.25C120.92 18.35 118.61 19.32 116.24 20.14C113.93 21.11 111.57 21.93 109.16 22.61C111.4 21.51 113.7 20.55 116.05 19.72C118.37 18.75 120.75 17.93 123.17 17.25Z" fill="#263238" fill-opacity="1.000000" fill-rule="nonzero"/>
	<path id="Vector" d="M123.87 19.08C121.63 20.17 119.33 21.13 116.99 21.96C114.65 22.92 112.26 23.74 109.83 24.42C112.08 23.31 114.4 22.35 116.76 21.52C119.08 20.57 121.45 19.75 123.87 19.08Z" fill="#263238" fill-opacity="1.000000" fill-rule="nonzero"/>
</svg>
