<svg width="59.460449" height="19.573242" viewBox="0 0 59.4604 19.5732" fill="none" xmlns="http://www.w3.org/2000/svg" xmlns:xlink="http://www.w3.org/1999/xlink">
	<desc>
			Created with Pixso.
	</desc>
	<defs/>
	<path id="Vector" d="M25.44 10.3C25.44 13.11 23.24 15.19 20.53 15.19C17.83 15.19 15.63 13.11 15.63 10.3C15.63 7.46 17.83 5.4 20.53 5.4C23.24 5.4 25.44 7.46 25.44 10.3ZM23.29 10.3C23.29 8.54 22.02 7.33 20.53 7.33C19.05 7.33 17.78 8.54 17.78 10.3C17.78 12.04 19.05 13.26 20.53 13.26C22.02 13.26 23.29 12.04 23.29 10.3Z" fill="#EA4335" fill-opacity="1.000000" fill-rule="nonzero"/>
	<path id="Vector" d="M36.03 10.3C36.03 13.11 33.82 15.19 31.12 15.19C28.42 15.19 26.21 13.11 26.21 10.3C26.21 7.46 28.42 5.4 31.12 5.4C33.82 5.4 36.03 7.46 36.03 10.3ZM33.88 10.3C33.88 8.54 32.6 7.33 31.12 7.33C29.64 7.33 28.36 8.54 28.36 10.3C28.36 12.04 29.64 13.26 31.12 13.26C32.6 13.26 33.88 12.04 33.88 10.3Z" fill="#FBBC05" fill-opacity="1.000000" fill-rule="nonzero"/>
	<path id="Vector" d="M46.17 5.7L46.17 14.48C46.17 18.09 44.04 19.57 41.52 19.57C39.15 19.57 37.72 17.98 37.19 16.69L39.06 15.91C39.39 16.7 40.2 17.64 41.52 17.64C43.13 17.64 44.13 16.65 44.13 14.78L44.13 14.07L44.05 14.07C43.57 14.67 42.65 15.18 41.48 15.18C39.03 15.18 36.79 13.05 36.79 10.31C36.79 7.55 39.03 5.4 41.48 5.4C42.65 5.4 43.57 5.92 44.05 6.5L44.13 6.5L44.13 5.7L46.17 5.7L46.17 5.7ZM44.28 10.31C44.28 8.59 43.13 7.33 41.67 7.33C40.19 7.33 38.95 8.59 38.95 10.31C38.95 12.02 40.19 13.26 41.67 13.26C43.13 13.26 44.28 12.02 44.28 10.31Z" fill="#4285F4" fill-opacity="1.000000" fill-rule="nonzero"/>
	<path id="Vector" d="M49.53 0.55L49.53 14.89L47.44 14.89L47.44 0.55L49.53 0.55Z" fill="#34A853" fill-opacity="1.000000" fill-rule="nonzero"/>
	<path id="Vector" d="M57.7 11.91L59.36 13.02C58.82 13.81 57.53 15.18 55.29 15.18C52.51 15.18 50.43 13.04 50.43 10.29C50.43 7.38 52.53 5.4 55.05 5.4C57.59 5.4 58.83 7.42 59.23 8.51L59.46 9.07L52.92 11.78C53.42 12.76 54.2 13.26 55.29 13.26C56.38 13.26 57.14 12.72 57.7 11.91ZM52.56 10.15L56.93 8.33C56.69 7.72 55.97 7.29 55.12 7.29C54.03 7.29 52.51 8.26 52.56 10.15Z" fill="#EA4335" fill-opacity="1.000000" fill-rule="nonzero"/>
	<path id="Vector" d="M7.7 9.02L7.7 6.95L14.69 6.95C14.76 7.31 14.79 7.74 14.79 8.2C14.79 9.76 14.37 11.68 13 13.05C11.66 14.44 9.96 15.18 7.7 15.18C3.51 15.18 0 11.78 0 7.59C0 3.4 3.51 0 7.7 0C10.02 0 11.66 0.9 12.9 2.09L11.44 3.55C10.55 2.72 9.35 2.07 7.7 2.07C4.64 2.07 2.25 4.53 2.25 7.59C2.25 10.65 4.64 13.11 7.7 13.11C9.68 13.11 10.81 12.31 11.53 11.59C12.12 11 12.5 10.17 12.66 9.02L7.7 9.02Z" fill="#4285F4" fill-opacity="1.000000" fill-rule="nonzero"/>
</svg>
