<svg width="552.557617" height="369.000244" viewBox="0 0 552.558 369" fill="none" xmlns="http://www.w3.org/2000/svg" xmlns:xlink="http://www.w3.org/1999/xlink">
	<desc>
			Created with Pixso.
	</desc>
	<defs/>
	<path id="Vector" d="M384.6 196.01C350.03 205.59 284.72 272.37 325.21 303.7C365.69 335.02 486.66 167.72 384.6 196.01Z" fill="#ECF2FA" fill-opacity="1.000000" fill-rule="nonzero"/>
	<path id="Vector" d="M184.15 33.2L183.65 33.09L185.18 25.91C182.83 24.64 180.7 23.01 178.86 21.08L179.27 20.72C181.1 22.66 183.23 24.29 185.59 25.53L185.78 25.62L184.15 33.2Z" fill="#101C3A" fill-opacity="1.000000" fill-rule="nonzero"/>
	<path id="Vector" d="M219.98 25.75C240.63 51.22 256.38 48.46 243.67 76.78C230.96 105.1 277.97 90.38 275.38 119.02C272.79 147.65 250.58 145.6 270.92 169.42C291.26 193.24 248.33 236.75 248.33 236.75L120.63 236.75C120.63 236.75 74.7 215.09 87.41 178.92C100.11 142.75 78 142.39 108.62 117.11C128.19 100.99 110.21 91.23 110.21 67.65C110.21 41.6 136.08 29.4 147.97 31.92C159.86 34.43 185.56 -16.69 219.98 25.75Z" fill="#101C3A" fill-opacity="1.000000" fill-rule="nonzero"/>
	<path id="Vector" d="M234.38 265.93C234.38 265.93 242.46 314.97 258.13 334.48L103.87 336.14C103.87 336.14 125.14 293.25 125.88 268.45L234.38 265.93Z" fill="#364AC0" fill-opacity="1.000000" fill-rule="nonzero"/>
	<path id="Vector" d="M103.13 336.6L103.45 335.94C103.67 335.51 124.71 292.82 125.42 268.38L125.42 267.95L125.85 267.95L234.77 265.49L234.84 265.86C234.84 266.35 243.08 315.01 258.49 334.19L259.08 334.91L258.14 334.91L103.13 336.6ZM126.31 268.88C125.43 291.88 107.25 330.21 104.59 335.68L257.21 334.03C242.73 315.23 234.77 270.99 233.99 266.35L126.31 268.88Z" fill="#101C3A" fill-opacity="1.000000" fill-rule="nonzero"/>
	<path id="Vector" d="M208.48 150.27C200.72 156.9 193.79 180.39 211.7 197.71C229.61 215.03 279.74 246.84 297.58 251.83C323.35 259.02 364.26 238.78 347.14 199.74C336.1 174.56 273.57 153.55 251.23 146.03C228.89 138.51 218.45 141.76 208.48 150.27Z" fill="#5970FF" fill-opacity="1.000000" fill-rule="nonzero"/>
	<path id="Vector" d="M285.34 201.66L286.97 201.04C283.44 191.76 272.81 181.1 272.35 180.66L271.13 181.9C271.24 182.05 281.95 192.76 285.34 201.66Z" fill="#101C3A" fill-opacity="1.000000" fill-rule="nonzero"/>
	<path id="Vector" d="M149.44 173.33C149.83 163.7 137.94 143.87 114.52 145.17C91.1 146.46 33.15 148.9 18.29 158.1C-3.27 171.34 -11.63 224.52 26.37 237.67C50.81 246.15 105.43 216.32 124.98 205.67C144.53 195.02 148.93 185.68 149.44 173.33Z" fill="#5970FF" fill-opacity="1.000000" fill-rule="nonzero"/>
	<path id="Vector" d="M79.18 174C87.46 173.04 95.6 171.16 103.47 168.4L102.9 166.84C102.7 166.92 82.48 174.19 69.34 172.29L69.11 173.92C72.45 174.34 75.83 174.36 79.18 174Z" fill="#364AC0" fill-opacity="1.000000" fill-rule="nonzero"/>
	<path id="Vector" d="M256.94 233.76C260.01 224.73 258.72 199.03 256.94 186.77C255.5 172.55 257.1 150.73 242.91 143.21C236.51 139.82 208.68 138.22 196.21 134.69L164.55 134.69C154.74 137.19 130.89 141.99 121.82 146.66C115.74 149.79 110.74 152.17 107.27 162.56C103.48 182.33 102.7 197.79 99.45 217.62C97.58 228.24 99.29 236.67 105.76 252.12C115.12 278.44 92.37 319.8 92.37 319.8C92.37 319.8 187.17 357.42 268.47 319.05C268.47 319.07 244.72 269.67 256.94 233.76Z" fill="#5970FF" fill-opacity="1.000000" fill-rule="nonzero"/>
	<path id="Vector" d="M98.89 307.54L97.66 307.02C103.09 294.08 111.31 269.64 105.13 252.39C98.49 236.58 96.95 228.04 98.79 217.55C100.23 208.92 101.25 200.3 102.24 191.87C103.24 183.45 104.26 175.02 105.65 166.48L106.97 166.7C105.54 175.21 104.56 183.76 103.57 192.03C102.57 200.3 101.54 209.04 100.12 217.78C98.32 227.98 99.84 236.28 106.38 251.92C112.41 268.79 105.62 291.48 98.89 307.54Z" fill="#364AC0" fill-opacity="1.000000" fill-rule="nonzero"/>
	<path id="Vector" d="M257.77 291.19C253.53 275.38 249.82 252.58 256.33 233.55C259.21 225.12 258.25 201.14 256.48 187.8L257.8 187.63C259.58 201.1 260.54 225.35 257.6 233.98C251.23 252.67 254.9 275.24 259.04 290.83L257.77 291.19Z" fill="#101C3A" fill-opacity="1.000000" fill-rule="nonzero"/>
	<path id="Vector" d="M196.37 107.52L196.37 135.12C209.54 169.2 180.14 211.72 180.14 211.72C180.14 211.72 152.57 165.72 165.08 135L165.08 95.28C175.25 99.99 185.7 104.08 196.37 107.52Z" fill="#FFAE99" fill-opacity="1.000000" fill-rule="nonzero"/>
	<path id="Vector" d="M137.45 141.16L137.1 139.62C138.05 139.4 160.33 134.24 165.03 134.24L165.03 135.81C160.52 135.81 137.69 141.1 137.45 141.16Z" fill="#101C3A" fill-opacity="1.000000" fill-rule="nonzero"/>
	<path id="Vector" d="M219.69 139.5C205.07 137.32 196.18 135.48 196.1 135.45L196.42 133.92C196.5 133.92 205.36 135.78 219.92 137.95L219.69 139.5Z" fill="#364AC0" fill-opacity="1.000000" fill-rule="nonzero"/>
	<path id="Vector" d="M311.42 99.6C311.42 105.16 314.44 106.01 314.17 119.99C316.26 143.8 294.24 208.96 294.89 217.98C296.97 246.93 343.53 247.36 349.14 219.9C353.61 198.04 341.44 142.36 334.03 121.3C330.17 110.36 343.29 108.82 346.73 103.19C350.16 97.55 311.41 95.93 311.42 99.6Z" fill="#FFAE99" fill-opacity="1.000000" fill-rule="nonzero"/>
	<path id="Vector" d="M193.08 118.49C195.21 116.41 197.39 108.22 199.72 107.44L199.72 100.47C188.08 96.88 176.66 92.59 165.52 87.63L165.52 111.38C167.13 112.66 169.84 119.79 173.2 122.22C178.86 126.35 186.27 125.16 193.08 118.49Z" fill="#101C3A" fill-opacity="1.000000" fill-rule="nonzero"/>
	<path id="Vector" d="M206.82 74.45C205.72 65.91 205.27 60.08 191.54 55.36C176.87 50.39 163.9 56.8 158.92 71.43C157.21 76.49 160.36 99.28 162.32 106.38C163.65 111.27 178.88 119.84 178.88 119.84C179.71 121.06 185.86 121.03 186.71 119.75C186.71 119.75 201.51 109.77 202.73 106.48C205.3 99.6 207.15 76.98 206.82 74.45Z" fill="#FFAE99" fill-opacity="1.000000" fill-rule="nonzero"/>
	<path id="Vector" d="M180.89 97.41L180.26 96.15C180.26 96.15 184.08 94.19 183.28 92.41C180.86 87.06 181.84 79.8 181.84 79.47L183.28 79.67C183.28 79.74 182.31 86.86 184.56 91.8C185.89 94.87 181.09 97.31 180.89 97.41Z" fill="#101C3A" fill-opacity="1.000000" fill-rule="nonzero"/>
	<path id="Vector" d="M164.33 77.57L163.54 76.39C170.63 71.62 175.89 75.99 175.93 76.03L175.03 77.11C174.77 76.95 170.43 73.42 164.33 77.57Z" fill="#101C3A" fill-opacity="1.000000" fill-rule="nonzero"/>
	<path id="Vector" d="M199.16 77.92C199 77.73 195.24 73.6 188.52 76.77L187.92 75.5C195.63 71.84 200.18 76.94 200.23 76.94L199.16 77.92Z" fill="#101C3A" fill-opacity="1.000000" fill-rule="nonzero"/>
	<path id="Vector" d="M179.87 104.54C177.66 104.58 175.45 104.29 173.33 103.68L173.77 102.34C175.76 102.9 177.81 103.17 179.87 103.13C183.55 103.13 190.55 100.93 190.62 100.92L191.05 102.26C190.75 102.36 183.77 104.54 179.87 104.54Z" fill="#101C3A" fill-opacity="1.000000" fill-rule="nonzero"/>
	<path id="Vector" d="M170.4 52.66C170.4 52.66 193.99 71.75 210.52 76.11C210.52 76.11 214.64 39.13 170.4 52.66Z" fill="#101C3A" fill-opacity="1.000000" fill-rule="nonzero"/>
	<path id="Vector" d="M167.06 82.99C167.06 83.65 167.25 84.29 167.61 84.83C167.97 85.38 168.49 85.8 169.09 86.06C169.7 86.31 170.36 86.38 171.01 86.25C171.65 86.12 172.24 85.81 172.7 85.35C173.17 84.89 173.48 84.3 173.61 83.66C173.74 83.01 173.68 82.35 173.43 81.74C173.18 81.14 172.75 80.62 172.21 80.26C171.66 79.89 171.02 79.7 170.37 79.7C169.49 79.7 168.66 80.05 168.04 80.66C167.42 81.28 167.07 82.12 167.06 82.99Z" fill="#101C3A" fill-opacity="1.000000" fill-rule="nonzero"/>
	<path id="Vector" d="M190.02 82.99C190.02 83.65 190.21 84.29 190.57 84.83C190.93 85.38 191.45 85.81 192.05 86.06C192.66 86.31 193.32 86.38 193.97 86.25C194.61 86.12 195.2 85.81 195.66 85.34C196.13 84.88 196.44 84.29 196.57 83.65C196.7 83.01 196.63 82.34 196.38 81.73C196.13 81.13 195.7 80.61 195.15 80.25C194.61 79.89 193.97 79.7 193.31 79.7C192.44 79.7 191.6 80.05 190.99 80.67C190.37 81.28 190.02 82.12 190.02 82.99Z" fill="#101C3A" fill-opacity="1.000000" fill-rule="nonzero"/>
	<path id="Vector" d="M120.93 90.67C120.93 90.67 112.51 111.33 110.15 114.22C106.64 118.53 103.78 117.32 95.21 128.39C78.65 145.64 54.96 210.19 48.78 216.8C29 238.03 -7.54 209.18 5.31 184.27C15.56 164.43 59.94 128.71 78.92 116.95C88.8 110.85 83.34 107.76 84.19 101.22C85.04 94.68 122.1 83.11 120.93 90.67Z" fill="#FFAE99" fill-opacity="1.000000" fill-rule="nonzero"/>
	<path id="Vector" d="M103.08 117.44C103.08 117.44 107.59 121.49 113.44 117.22C119.29 112.95 121.92 111.47 126.38 110.77C130.84 110.06 126.98 102.79 116.43 106.31C105.88 109.83 102.43 108.94 103.08 117.44Z" fill="#FFAE99" fill-opacity="1.000000" fill-rule="nonzero"/>
	<path id="Vector" d="M116.23 106.78C115.84 106.99 115.49 107.27 115.21 107.6C114.91 107.94 114.69 108.33 114.56 108.75C114.5 108.97 114.46 109.19 114.45 109.41C114.45 109.64 114.48 109.86 114.53 110.08C114.58 110.29 114.66 110.5 114.76 110.69C114.81 110.79 114.87 110.89 114.93 110.98L115.12 111.24C115.05 111.04 114.93 110.85 114.88 110.65C114.75 110.26 114.69 109.84 114.69 109.43C114.71 109.22 114.75 109.02 114.81 108.82C114.93 108.43 115.12 108.05 115.37 107.72C115.62 107.38 115.91 107.06 116.23 106.78Z" fill="#D17F80" fill-opacity="1.000000" fill-rule="nonzero"/>
	<path id="Vector" d="M82.39 117.85L86.21 116.42L83.53 109.8L79.7 111.24C79.27 111.41 78.87 111.66 78.53 111.98C78.2 112.31 77.93 112.7 77.74 113.12C77.56 113.55 77.46 114.01 77.46 114.48C77.45 114.95 77.54 115.41 77.72 115.84C78.08 116.72 78.77 117.42 79.64 117.8C80.52 118.18 81.5 118.19 82.39 117.85Z" fill="#390D9F" fill-opacity="1.000000" fill-rule="nonzero"/>
	<path id="Vector" d="M77.59 112.81C78 112.02 78.69 111.42 79.51 111.1L83.54 109.53L86.41 116.54L82.39 118.11C81.45 118.47 80.4 118.45 79.48 118.06C78.55 117.66 77.82 116.91 77.43 115.98C77.24 115.53 77.14 115.04 77.14 114.55C77.14 114.05 77.24 113.56 77.43 113.11C77.47 113 77.52 112.9 77.59 112.81ZM83.34 110.05L79.73 111.48C79.32 111.64 78.94 111.87 78.63 112.18C78.31 112.48 78.05 112.84 77.88 113.24C77.71 113.65 77.62 114.08 77.62 114.52C77.62 114.96 77.7 115.39 77.88 115.8C78.21 116.62 78.86 117.28 79.68 117.64C80.5 117.99 81.43 118.01 82.26 117.69L85.87 116.26L83.34 110.05Z" fill="#101C3A" fill-opacity="1.000000" fill-rule="nonzero"/>
	<path id="Vector" d="M134.43 90.96L127.9 93.49L129.89 98.36L136.33 95.86L134.43 90.96Z" fill="#390D9F" fill-opacity="1.000000" fill-rule="nonzero"/>
	<path id="Vector" d="M127.61 93.36L134.56 90.67L136.61 95.99L129.83 98.65L127.61 93.36ZM134.3 91.23L128.19 93.6L130.02 98.07L136.05 95.73L134.3 91.23Z" fill="#101C3A" fill-opacity="1.000000" fill-rule="nonzero"/>
	<g opacity="0.300000" style="mix-blend-mode:screen">
		<path id="Vector" d="M169.68 106.37C163.58 108.71 156.81 108.58 150.82 105.99C144.82 103.41 140.07 98.58 137.59 92.54C136.37 89.57 135.75 86.39 135.78 83.18C135.8 79.97 136.47 76.8 137.73 73.86C139 70.91 140.85 68.24 143.16 66.02C145.48 63.8 148.21 62.06 151.21 60.91C157.3 58.57 164.07 58.7 170.07 61.28C176.07 63.87 180.81 68.7 183.29 74.74C184.52 77.71 185.13 80.89 185.11 84.1C185.09 87.3 184.42 90.48 183.15 93.42C181.88 96.37 180.04 99.03 177.72 101.26C175.41 103.48 172.67 105.22 169.68 106.37Z" fill="#364AC0" fill-opacity="1.000000" fill-rule="nonzero"/>
	</g>
	<path id="Vector" d="M132.47 89.36L130.48 90.15C130.33 90.2 130.19 90.29 130.08 90.39C129.97 90.5 129.87 90.63 129.81 90.78C129.75 90.92 129.71 91.07 129.71 91.23C129.71 91.39 129.74 91.54 129.8 91.69L132.53 98.39C132.65 98.68 132.88 98.92 133.17 99.05C133.47 99.18 133.8 99.18 134.1 99.06L136.11 98.29L132.47 89.36Z" fill="#390D9F" fill-opacity="1.000000" fill-rule="nonzero"/>
	<path id="Vector" d="M129.64 90.6C129.8 90.29 130.07 90.06 130.39 89.93L132.59 89.09L136.4 98.42L134.18 99.28C134.01 99.35 133.82 99.38 133.63 99.38C133.44 99.38 133.26 99.34 133.08 99.26C132.91 99.19 132.75 99.08 132.62 98.95C132.49 98.81 132.39 98.65 132.32 98.47L129.6 91.78C129.52 91.61 129.49 91.42 129.49 91.24C129.49 91.05 129.52 90.87 129.6 90.7C129.61 90.66 129.62 90.63 129.64 90.6ZM132.36 89.65L130.55 90.35C130.31 90.45 130.12 90.63 130.01 90.87C129.91 91.11 129.91 91.38 130 91.62L132.73 98.3C132.83 98.55 133.02 98.74 133.27 98.85C133.51 98.95 133.78 98.96 134.03 98.86L135.82 98.16L132.36 89.65Z" fill="#101C3A" fill-opacity="1.000000" fill-rule="nonzero"/>
	<path id="Vector" d="M125.13 91.66L84.11 107.6C83.46 107.85 82.87 108.23 82.36 108.72C81.86 109.2 81.46 109.78 81.18 110.42C80.91 111.06 80.76 111.75 80.76 112.45C80.75 113.15 80.89 113.84 81.15 114.49C81.69 115.8 82.73 116.86 84.03 117.42C85.34 117.98 86.81 118.01 88.14 117.49L129.15 101.55C129.39 101.46 129.6 101.33 129.78 101.16C129.96 100.98 130.1 100.78 130.2 100.55C130.3 100.32 130.36 100.07 130.36 99.82C130.36 99.57 130.31 99.32 130.22 99.09L127.63 92.74C127.44 92.27 127.07 91.89 126.6 91.69C126.13 91.49 125.6 91.48 125.13 91.66Z" fill="#029491" fill-opacity="1.000000" fill-rule="nonzero"/>
	<path id="Vector" d="M193.04 142.49C196.36 139.27 199.72 126.52 203.37 125.33L203.37 114.47C170.31 103.95 150.18 94.49 150.18 94.49L150.18 131.45C152.7 133.43 156.94 144.52 162.13 148.31C170.8 154.72 182.33 152.87 193.04 142.49Z" fill="#FF7761" fill-opacity="1.000000" fill-rule="nonzero"/>
	<path id="Vector" d="M214.31 73.99C212.59 60.71 211.88 51.54 190.52 44.29C167.69 36.56 147.52 46.45 139.79 69.28C137.12 77.17 142.03 112.6 145.05 123.66C147.14 131.28 170.83 144.59 170.83 144.59C172.12 146.52 181.71 146.46 183.02 144.46C183.02 144.46 206.02 128.95 207.93 123.82C211.93 113.01 214.81 77.93 214.31 73.99Z" fill="#FFAE99" fill-opacity="1.000000" fill-rule="nonzero"/>
	<path id="Vector" d="M215.95 30.99C215.95 30.99 159.14 37.78 132.82 54.42C132.82 54.42 183.37 108.73 215.95 30.99Z" fill="#101C3A" fill-opacity="1.000000" fill-rule="nonzero"/>
	<path id="Vector" d="M173.94 109.66L172.98 107.69C172.98 107.69 178.92 104.64 177.67 101.94C173.92 93.61 175.44 82.33 175.51 81.81L177.68 82.11C177.68 82.23 176.25 93.25 179.68 101C181.79 105.75 174.35 109.54 173.94 109.66Z" fill="#101C3A" fill-opacity="1.000000" fill-rule="nonzero"/>
	<path id="Vector" d="M171.36 110.51C174.9 109.15 178.13 107.09 180.86 104.46C183.6 101.84 185.78 98.69 187.28 95.21C188.77 91.72 189.56 87.98 189.59 84.19C189.62 80.39 188.89 76.64 187.45 73.13C184.52 65.99 178.91 60.28 171.82 57.23C164.73 54.17 156.73 54.01 149.52 56.79C145.99 58.15 142.75 60.2 140.02 62.83C137.29 65.46 135.11 68.6 133.61 72.09C132.11 75.57 131.32 79.32 131.29 83.11C131.27 86.9 131.99 90.66 133.44 94.16C136.37 101.3 141.98 107.01 149.07 110.06C156.16 113.12 164.16 113.28 171.36 110.51ZM151.24 60.97C157.32 58.62 164.09 58.76 170.08 61.34C176.07 63.92 180.82 68.75 183.29 74.78C184.52 77.75 185.14 80.93 185.12 84.13C185.1 87.34 184.43 90.51 183.17 93.46C181.9 96.41 180.06 99.07 177.75 101.3C175.44 103.52 172.7 105.26 169.71 106.41C163.62 108.76 156.85 108.62 150.86 106.04C144.87 103.46 140.13 98.63 137.65 92.59C136.42 89.63 135.8 86.45 135.82 83.25C135.84 80.04 136.5 76.87 137.76 73.93C139.03 70.98 140.87 68.31 143.18 66.09C145.48 63.86 148.22 62.12 151.21 60.97L151.24 60.97Z" fill="#390D9F" fill-opacity="1.000000" fill-rule="nonzero"/>
	<path id="Vector" d="M148.08 78.84L146.85 77.01C157.86 69.59 166.05 76.38 166.14 76.45L164.7 78.12C164.43 77.89 157.67 72.37 148.08 78.84Z" fill="#101C3A" fill-opacity="1.000000" fill-rule="nonzero"/>
	<path id="Vector" d="M202.38 79.37C202.14 79.09 196.27 72.64 185.82 77.6L184.89 75.62C196.87 69.86 203.96 77.84 204.03 77.93L202.38 79.37Z" fill="#101C3A" fill-opacity="1.000000" fill-rule="nonzero"/>
	<path id="Vector" d="M172.35 120.81C168.91 120.86 165.49 120.41 162.19 119.47L162.88 117.39C165.96 118.24 169.15 118.65 172.35 118.61C178.1 118.61 188.98 115.19 189.1 115.16L189.76 117.25C189.3 117.39 178.42 120.81 172.35 120.81Z" fill="#101C3A" fill-opacity="1.000000" fill-rule="nonzero"/>
	<path id="Vector" d="M162.72 87.27C162.72 90.11 160.42 92.41 157.59 92.41C154.75 92.41 152.45 90.11 152.45 87.27C152.45 84.44 154.75 82.14 157.59 82.14C160.42 82.14 162.72 84.44 162.72 87.27Z" fill="#101C3A" fill-opacity="1.000000" fill-rule="evenodd"/>
	<path id="Vector" d="M198.43 87.27C198.43 90.11 196.13 92.41 193.29 92.41C190.46 92.41 188.16 90.11 188.16 87.27C188.16 84.44 190.46 82.14 193.29 82.14C196.13 82.14 198.43 84.44 198.43 87.27Z" fill="#101C3A" fill-opacity="1.000000" fill-rule="evenodd"/>
	<g opacity="0.500000">
		<path id="Vector" d="M169.68 106.37C163.58 108.71 156.81 108.58 150.82 105.99C144.82 103.41 140.07 98.58 137.59 92.54C136.37 89.57 135.75 86.39 135.78 83.18C135.8 79.97 136.47 76.8 137.73 73.86C139 70.91 140.85 68.24 143.16 66.02C145.48 63.8 148.21 62.06 151.21 60.91C157.3 58.57 164.07 58.7 170.07 61.28C176.07 63.87 180.81 68.7 183.29 74.74C184.52 77.71 185.13 80.89 185.11 84.1C185.09 87.3 184.42 90.48 183.15 93.42C181.88 96.37 180.04 99.03 177.72 101.26C175.41 103.48 172.67 105.22 169.68 106.37Z" fill="#EBF1FD" fill-opacity="1.000000" fill-rule="nonzero"/>
	</g>
	<path id="Vector" d="M112.95 92.84C105.77 86.47 101.57 96.53 101.57 96.53C94.85 91.57 91.12 98.68 91.12 98.68C88.96 98.63 86.83 99.05 84.85 99.9C83.81 101.23 83.56 107.92 89.49 109.4C95.43 110.88 96.03 105.53 96.03 105.53C98.75 109.59 103.87 109.85 105.65 108.58C107.43 107.32 106.5 103.02 106.47 102.83C107.37 103.63 108.43 104.21 109.59 104.53C110.75 104.86 111.96 104.91 113.14 104.7C117.08 103.97 117.17 98.95 117.18 98.76C117.87 100.3 118.96 101.61 120.34 102.57C121.91 103.51 123.58 103.33 125.69 103.25C129.24 103.1 132.71 96.23 124.25 90.52C115.8 84.82 112.95 92.84 112.95 92.84Z" fill="#FFAE99" fill-opacity="1.000000" fill-rule="nonzero"/>
	<path id="Vector" d="M106.33 102.56C106.1 101.32 105.6 100.15 104.89 99.12C104.53 98.59 104.11 98.11 103.64 97.68C103.17 97.27 102.64 96.93 102.07 96.68C102.55 97.05 103.01 97.46 103.42 97.9C103.84 98.35 104.22 98.83 104.56 99.34C104.9 99.84 105.21 100.36 105.49 100.89C105.81 101.44 106.08 101.98 106.33 102.56Z" fill="#D17F80" fill-opacity="1.000000" fill-rule="nonzero"/>
	<path id="Vector" d="M95.9 105.02C95.69 103.78 95.2 102.6 94.47 101.58C94.11 101.05 93.7 100.57 93.23 100.14C92.76 99.73 92.23 99.39 91.65 99.15C92.13 99.52 92.59 99.93 93.01 100.37C93.42 100.82 93.8 101.3 94.14 101.81C94.48 102.3 94.78 102.83 95.08 103.36C95.39 103.89 95.66 104.44 95.9 105.02Z" fill="#D17F80" fill-opacity="1.000000" fill-rule="nonzero"/>
	<path id="Vector" d="M117.16 98.76C116.95 97.53 116.45 96.36 115.73 95.34C115.38 94.81 114.96 94.33 114.49 93.9C114.02 93.49 113.5 93.15 112.92 92.9C113.4 93.28 113.85 93.69 114.27 94.13C114.68 94.58 115.06 95.06 115.4 95.57C115.74 96.06 116.06 96.58 116.34 97.11C116.66 97.65 116.89 98.16 117.16 98.76Z" fill="#D17F80" fill-opacity="1.000000" fill-rule="nonzero"/>
	<path id="Vector" d="M400.43 337.94C391.12 348.17 379.76 356.32 367.1 361.89C348.31 369.98 327.27 371.2 307.67 365.35C303.66 364.17 299.73 362.73 295.91 361.04C285.01 356.24 274.99 349.66 266.25 341.56L266.05 341.38C259.38 335.24 253.37 328.42 248.14 321.02C247.32 319.89 246.54 318.74 245.75 317.56C244.21 315.28 242.76 312.96 241.44 310.6C206.74 251.98 213.77 170.97 257.32 124.03C282.98 96.39 316.19 87.1 347.34 95.01C348.16 95.21 348.98 95.43 349.8 95.66L349.95 95.66C352.82 96.46 355.61 97.41 358.4 98.53C363.56 100.56 368.53 103.01 373.28 105.88C388.36 115.25 401.2 127.83 410.88 142.72C425.36 164.82 434.25 190.12 436.76 216.43C437 218.57 437.19 220.74 437.32 222.88C440.17 265.5 427.6 308.69 400.43 337.94Z" fill="#101C3A" fill-opacity="1.000000" fill-rule="nonzero"/>
	<path id="Vector" d="M243.39 290.07C245.3 294.78 247.45 299.38 249.82 303.87C252.14 308.32 254.7 312.63 257.48 316.81C263.66 326.12 271.05 334.58 279.45 341.95L279.66 342.15C283.54 345.51 287.65 348.59 291.97 351.37C296.07 353.99 300.35 356.3 304.79 358.3C324.36 367.31 346.6 368.6 367.08 361.93C382.77 356.6 396.84 347.35 407.95 335.05C413.42 329.13 418.3 322.68 422.51 315.8C423.35 314.47 424.14 313.1 424.91 311.72C433.78 295.81 439.71 278.44 442.41 260.43C444.38 247.79 444.93 234.98 444.06 222.22C444.06 221.5 443.97 220.78 443.9 220.05C443.82 218.61 443.67 217.17 443.5 215.74C442.92 210.04 442.05 204.39 440.88 198.79C440.61 197.44 440.31 196.07 439.99 194.73C435.86 176.55 428.47 159.27 418.18 143.71C410.16 131.48 399.98 120.8 388.15 112.19C386.47 110.98 384.76 109.83 383.04 108.74C380.48 107.13 377.87 105.65 375.2 104.3C370.08 101.68 364.73 99.54 359.22 97.9C356.17 97.01 353.07 96.28 349.94 95.71L349.86 95.71L347.36 95.33C319.43 91.19 290.57 100.95 267.79 125.52C229.8 166.34 220.93 234.9 243.39 290.07Z" fill="#029491" fill-opacity="1.000000" fill-rule="nonzero"/>
	<path id="Vector" d="M268.97 304.4C302.16 354.04 359.84 361 397.93 320.06C436.03 279.12 439.89 205.7 406.7 156.18C373.51 106.65 315.77 99.57 277.74 140.52C239.7 181.48 235.79 254.85 268.97 304.4Z" fill="#EBF1FD" fill-opacity="1.000000" fill-rule="nonzero"/>
	<path id="Vector" d="M280.45 292.04C308.11 333.37 356.23 339.21 387.92 305.09C419.62 270.98 422.89 209.8 395.23 168.53C367.57 127.25 319.45 121.36 287.76 155.49C256.06 189.61 252.8 250.71 280.45 292.04Z" fill="#029491" fill-opacity="1.000000" fill-rule="nonzero"/>
	<path id="Vector" d="M291.93 279.68C314.05 312.74 352.55 317.41 377.9 290.11C403.26 262.81 405.88 213.92 383.76 180.86C361.63 147.8 323.13 143.12 297.78 170.42C272.42 197.72 269.8 246.63 291.93 279.68Z" fill="#EBF1FD" fill-opacity="1.000000" fill-rule="nonzero"/>
	<path id="Vector" d="M303.4 267.33C320 292.13 348.87 295.63 367.89 275.15C386.9 254.66 388.87 217.98 372.2 193.21C355.52 168.44 326.77 164.89 307.8 185.36C288.82 205.83 286.81 242.53 303.4 267.33Z" fill="#029491" fill-opacity="1.000000" fill-rule="nonzero"/>
	<path id="Vector" d="M314.88 254.97C325.94 271.5 345.19 273.84 357.87 260.18C370.54 246.53 371.85 222.07 360.74 205.56C349.63 189.04 330.42 186.68 317.74 200.34C305.06 214 303.77 238.43 314.88 254.97Z" fill="#EBF1FD" fill-opacity="1.000000" fill-rule="nonzero"/>
	<path id="Vector" d="M326.35 242.62C331.89 250.88 341.51 252.05 347.92 245.22C354.33 238.39 354.9 226.17 349.36 217.91C343.81 209.64 334.2 208.48 327.86 215.3C321.52 222.13 320.84 234.35 326.35 242.62Z" fill="#029491" fill-opacity="1.000000" fill-rule="nonzero"/>
	<path id="Vector" d="M511.48 204L341.15 233.36C340.22 233.52 339.27 233.31 338.51 232.77C337.74 232.23 337.22 231.41 337.05 230.48C336.89 229.56 337.1 228.61 337.64 227.84C338.18 227.08 339 226.55 339.93 226.39L510.33 197.03L511.48 204Z" fill="#101C3A" fill-opacity="1.000000" fill-rule="nonzero"/>
	<path id="Vector" d="M464.7 205.67L498.29 176.59L543.87 168.76L523 198.31L552.55 219.18L506.97 227.03L465.6 210.88L464.7 205.67Z" fill="#101C3A" fill-opacity="1.000000" fill-rule="nonzero"/>
	<path id="Vector" d="M330.24 87.12C338.72 79.17 344.15 91.21 344.15 91.21C352.12 84.99 356.86 93.46 356.86 93.46C359.47 93.35 362.07 93.78 364.49 94.74C365.79 96.33 366.33 104.41 359.19 106.4C352.04 108.38 351.14 101.92 351.14 101.92C347.99 106.93 341.81 107.4 339.64 105.94C337.47 104.47 338.43 99.24 338.46 99.02C337.4 100.02 336.13 100.76 334.74 101.19C333.35 101.61 331.89 101.72 330.45 101.49C325.65 100.75 325.38 94.75 325.36 94.45C324.59 96.33 323.3 97.97 321.65 99.16C319.8 100.34 317.77 100.2 315.22 100.17C310.9 100.17 306.49 91.89 316.65 84.72C326.82 77.54 330.24 87.12 330.24 87.12Z" fill="#FFAE99" fill-opacity="1.000000" fill-rule="nonzero"/>
	<path id="Vector" d="M338.59 98.68C338.8 97.17 339.34 95.74 340.18 94.48C340.59 93.84 341.07 93.25 341.62 92.72C342.18 92.21 342.81 91.78 343.49 91.46C342.92 91.93 342.38 92.44 341.9 93C341.41 93.54 340.97 94.12 340.57 94.74C340.17 95.35 339.81 95.99 339.48 96.65C339.18 97.3 338.86 97.97 338.59 98.68Z" fill="#D17F80" fill-opacity="1.000000" fill-rule="nonzero"/>
	<path id="Vector" d="M351.28 101.29C351.5 99.79 352.04 98.36 352.88 97.09C353.28 96.46 353.76 95.87 354.32 95.35C354.87 94.84 355.5 94.41 356.18 94.09C355.61 94.56 355.08 95.07 354.59 95.63C354.1 96.17 353.66 96.75 353.27 97.37C352.87 97.98 352.5 98.61 352.17 99.26C351.87 99.93 351.56 100.6 351.28 101.29Z" fill="#D17F80" fill-opacity="1.000000" fill-rule="nonzero"/>
	<path id="Vector" d="M325.34 94.45C325.54 92.95 326.09 91.51 326.93 90.25C327.33 89.6 327.81 89.02 328.37 88.5C328.92 87.98 329.55 87.55 330.24 87.23C329.66 87.7 329.13 88.21 328.64 88.77C328.15 89.31 327.71 89.89 327.32 90.51C326.92 91.12 326.55 91.75 326.23 92.41C325.93 93.07 325.61 93.74 325.34 94.45Z" fill="#D17F80" fill-opacity="1.000000" fill-rule="nonzero"/>
</svg>
