<svg width="442.573242" height="470.213867" viewBox="0 0 442.573 470.214" fill="none" xmlns="http://www.w3.org/2000/svg" xmlns:xlink="http://www.w3.org/1999/xlink">
	<desc>
			Created with Pixso.
	</desc>
	<defs/>
	<path id="Vector" d="M91.82 118.72L391.55 118.72L391.55 343.94L91.82 343.94L91.82 118.72Z" fill="#FFFFFF" fill-opacity="1.000000" fill-rule="evenodd"/>
	<path id="Vector" d="M391.55 343.94C391.55 343.94 391.55 343.58 391.55 342.89C391.55 342.19 391.55 341.16 391.55 339.81C391.55 337.1 391.55 333.08 391.5 327.83C391.5 317.36 391.44 301.96 391.39 282.32C391.34 243.08 391.26 186.82 391.17 118.75L391.6 119.18L91.9 119.27L92.42 118.75C92.42 199.73 92.42 276.41 92.42 343.97L91.95 343.5L308.28 343.73L369.73 343.86L386.03 343.92L390.24 343.92L391.31 343.92L390.26 343.92L386.11 343.92L369.9 343.98L308.56 344.11L91.92 344.34L91.35 344.34L91.35 343.87C91.35 276.31 91.35 199.63 91.3 118.65L91.3 118.13L91.85 118.13L391.55 118.23L391.99 118.23L391.99 118.65C391.9 186.88 391.83 243.22 391.77 282.52C391.72 302.13 391.69 317.48 391.66 327.93C391.66 333.14 391.66 337.14 391.66 339.83C391.66 341.16 391.66 342.17 391.66 342.84C391.66 343.5 391.55 343.94 391.55 343.94Z" fill="#263238" fill-opacity="1.000000" fill-rule="nonzero"/>
	<path id="Vector" d="M390.05 146.3C389.8 146.34 389.55 146.35 389.29 146.35L387.07 146.35L378.52 146.44C371.1 146.5 360.35 146.53 347.09 146.52C320.53 146.52 283.87 146.33 243.37 146L139.64 145.17L108.21 144.92L99.67 144.82L97.44 144.76C97.19 144.79 96.94 144.79 96.69 144.76C96.93 144.71 97.19 144.7 97.44 144.71L99.67 144.71L108.21 144.62C115.63 144.56 126.37 144.53 139.64 144.53C166.19 144.53 202.87 144.73 243.38 145.06L347.09 145.89L378.53 146.13L387.07 146.24L389.29 146.24C389.55 146.24 389.8 146.26 390.05 146.3Z" fill="#263238" fill-opacity="1.000000" fill-rule="nonzero"/>
	<path id="Vector" d="M111.4 130.12C111.4 130.82 111.19 131.5 110.81 132.08C110.42 132.67 109.87 133.12 109.22 133.39C108.58 133.66 107.87 133.73 107.18 133.59C106.49 133.46 105.86 133.12 105.37 132.63C104.87 132.13 104.54 131.5 104.4 130.81C104.27 130.13 104.34 129.42 104.6 128.77C104.87 128.13 105.33 127.57 105.91 127.19C106.49 126.8 107.18 126.59 107.88 126.6C108.81 126.6 109.7 126.97 110.36 127.63C111.02 128.29 111.39 129.18 111.4 130.12Z" fill="#263238" fill-opacity="1.000000" fill-rule="nonzero"/>
	<path id="Vector" d="M125.52 130.12C125.52 130.82 125.31 131.5 124.93 132.08C124.54 132.66 123.99 133.12 123.34 133.39C122.7 133.66 121.99 133.73 121.3 133.59C120.62 133.46 119.99 133.12 119.49 132.63C119 132.14 118.66 131.5 118.52 130.82C118.38 130.13 118.45 129.42 118.72 128.78C118.99 128.13 119.44 127.58 120.02 127.19C120.6 126.8 121.29 126.6 121.98 126.6C122.92 126.6 123.82 126.97 124.48 127.63C125.14 128.29 125.51 129.18 125.52 130.12Z" fill="#263238" fill-opacity="1.000000" fill-rule="nonzero"/>
	<path id="Vector" d="M139.64 130.16C139.64 132.11 138.06 133.69 136.1 133.69C134.15 133.69 132.57 132.11 132.57 130.16C132.57 128.21 134.15 126.63 136.1 126.63C138.06 126.63 139.64 128.21 139.64 130.16Z" fill="#263238" fill-opacity="1.000000" fill-rule="evenodd"/>
	<path id="Vector" d="M144.06 277.04L205.65 277.04L205.65 323.15L144.06 323.15L144.06 277.04Z" fill="#EBEBEB" fill-opacity="1.000000" fill-rule="evenodd"/>
	<path id="Vector" d="M211.71 277.04L273.3 277.04L273.3 323.15L211.71 323.15L211.71 277.04Z" fill="#EBEBEB" fill-opacity="1.000000" fill-rule="evenodd"/>
	<path id="Vector" d="M290.54 277.04L352.13 277.04L352.13 323.15L290.54 323.15L290.54 277.04Z" fill="#EBEBEB" fill-opacity="1.000000" fill-rule="evenodd"/>
	<path id="Vector" d="M252.11 256.16C223.12 236.89 226.5 196.72 233.99 179.56L256.59 175.62C248.97 185.02 248.16 219.11 257.78 226.47C267.4 233.83 285.28 233.74 292.36 223.91C297.92 216.19 298.7 198.31 308.1 196.87C304.16 176.92 318.3 155.13 338.12 150.6C339.2 144.97 341.54 139.66 344.96 135.06C348.38 130.46 352.8 126.7 357.88 124.05C362.97 121.4 368.58 119.94 374.31 119.77C380.04 119.61 385.74 120.74 390.97 123.09L390.53 187.77C390.53 187.77 396.69 218.46 377.54 225.62C370.99 228.07 364.51 226.64 358.99 224.01C358.57 224.99 357.96 225.88 357.21 226.64C354.23 229.54 349.59 230.3 345.51 229.43C344.98 229.32 344.49 229.18 343.95 229C339.64 242.24 327.3 256.46 315.87 262.41C299.34 271.07 267.71 266.52 252.11 256.16Z" fill="#F5F5F5" fill-opacity="1.000000" fill-rule="nonzero"/>
	<path id="Vector" d="M311.92 203.71C311.92 203.71 311.89 203.6 311.79 203.4L311.36 202.5C311.16 202.11 310.93 201.62 310.69 201.03C310.46 200.43 310.15 199.76 309.9 198.97C308.33 194.55 307.65 189.86 307.88 185.17C308.02 181.95 308.62 178.77 309.64 175.72C310.8 172.2 312.55 168.89 314.81 165.96C320.04 159.18 327.52 154.5 335.9 152.76C337.1 152.5 338.32 152.37 339.45 152.24L339.68 152.21L339.69 152C340.07 147.07 341.49 142.27 343.85 137.92C346.22 133.57 349.47 129.77 353.4 126.77C354.77 125.76 356.19 124.84 357.67 124.01C360.31 122.48 363.13 121.29 366.06 120.46C370.29 119.23 374.74 118.96 379.1 119.67C379.87 119.77 380.53 119.93 381.12 120.07C381.61 120.17 382.1 120.3 382.58 120.45L383.48 120.7C383.58 120.74 383.69 120.76 383.79 120.77C383.79 120.77 383.7 120.71 383.5 120.65L382.62 120.35C382.14 120.18 381.65 120.04 381.16 119.93C380.57 119.77 379.91 119.6 379.11 119.45C374.72 118.66 370.21 118.88 365.92 120.09C362.95 120.9 360.09 122.09 357.42 123.62C355.92 124.45 354.47 125.37 353.08 126.38C351.62 127.48 350.25 128.69 348.98 130.01C343.24 135.94 339.74 143.69 339.09 151.92L339.33 151.67C334.43 152.16 329.69 153.65 325.39 156.05C321.09 158.45 317.33 161.71 314.35 165.63C312.06 168.61 310.3 171.96 309.14 175.53C308.12 178.64 307.54 181.87 307.42 185.14C307.21 189.87 307.96 194.59 309.61 199.03C309.86 199.72 310.14 200.41 310.46 201.07C310.66 201.57 310.9 202.06 311.16 202.54C311.37 202.9 311.52 203.19 311.64 203.41C311.72 203.52 311.81 203.62 311.92 203.71Z" fill="#263238" fill-opacity="1.000000" fill-rule="nonzero"/>
	<path id="Vector" d="M300.17 209.34C300.27 209.32 300.18 208.43 300.43 207.04C300.58 206.23 300.82 205.44 301.14 204.69C301.54 203.77 302.06 202.89 302.67 202.09C303.31 201.31 304.03 200.61 304.84 199.99C305.5 199.5 306.21 199.09 306.96 198.76C308.26 198.19 309.15 198.08 309.13 197.98C309.12 197.89 308.9 197.95 308.5 197.99C307.92 198.07 307.36 198.21 306.82 198.42C306.02 198.71 305.25 199.11 304.55 199.61C302.82 200.83 301.47 202.53 300.68 204.5C300.36 205.3 300.15 206.14 300.05 206.99C299.97 207.56 299.96 208.14 300.03 208.72C300.09 209.13 300.14 209.34 300.17 209.34Z" fill="#263238" fill-opacity="1.000000" fill-rule="nonzero"/>
	<path id="Vector" d="M310.38 233.65C310.38 233.65 310.43 233.02 310.64 231.9C310.95 230.31 311.57 228.79 312.48 227.45C313.82 225.41 315.77 223.86 318.06 223.03C320.92 221.99 324.05 222.09 326.84 223.3L327.23 223.47L327.2 223.06C327.15 221.69 327.26 220.31 327.51 218.97C328.18 215.5 329.81 212.29 332.22 209.71C334.22 207.62 336.67 206.04 339.39 205.07C341.22 204.41 343.14 204.04 345.09 203.96C346.47 203.91 347.24 203.99 347.23 203.94C347.05 203.88 346.87 203.85 346.68 203.84C346.15 203.78 345.61 203.75 345.08 203.75C342.62 203.76 340.18 204.27 337.91 205.23C335.64 206.2 333.59 207.61 331.88 209.38C330.14 211.2 328.78 213.35 327.89 215.7C327 218.06 326.59 220.56 326.69 223.08L327.06 222.83C324.14 221.56 320.85 221.47 317.88 222.58C315.52 223.47 313.51 225.11 312.16 227.25C311.27 228.64 310.68 230.21 310.43 231.85C310.36 232.29 310.33 232.74 310.33 233.18C310.32 233.34 310.34 233.5 310.38 233.65Z" fill="#263238" fill-opacity="1.000000" fill-rule="nonzero"/>
	<path id="Vector" d="M237.46 241.02C237.57 241.26 237.71 241.5 237.86 241.73C238.14 242.18 238.54 242.86 239.11 243.69C240.75 246.03 242.6 248.21 244.64 250.21C247.68 253.16 251.05 255.74 254.68 257.9C256.83 259.19 259.05 260.35 261.33 261.38C263.77 262.49 266.27 263.47 268.82 264.3C277.79 267.28 287.19 268.71 296.63 268.51C299.49 268.46 302.33 268.15 305.14 267.58C306.12 267.36 306.88 267.17 307.39 267C307.65 266.93 307.91 266.84 308.15 266.73C307.88 266.77 307.62 266.82 307.35 266.9C306.84 267.04 306.08 267.18 305.09 267.38C302.29 267.87 299.46 268.12 296.63 268.15C287.24 268.23 277.91 266.77 269.01 263.82C266.47 262.99 263.99 262.02 261.56 260.92C259.29 259.91 257.08 258.76 254.95 257.5C251.32 255.37 247.94 252.83 244.88 249.95C242.85 247.99 240.99 245.86 239.31 243.6C238.71 242.79 238.3 242.13 238 241.66C237.84 241.43 237.66 241.22 237.46 241.02Z" fill="#263238" fill-opacity="1.000000" fill-rule="nonzero"/>
	<path id="Vector" d="M252.71 217.78C252.78 218.24 252.91 218.68 253.1 219.1C253.51 220.25 254.02 221.36 254.64 222.41C256.65 225.95 259.61 228.85 263.18 230.8C266.74 232.75 270.78 233.67 274.84 233.46C276.06 233.41 277.27 233.25 278.45 232.97C278.9 232.89 279.33 232.75 279.74 232.57C278.12 232.83 276.48 233.01 274.83 233.09C270.86 233.19 266.92 232.24 263.43 230.34C259.94 228.43 257.02 225.63 254.96 222.22C254.11 220.79 253.36 219.31 252.71 217.78Z" fill="#263238" fill-opacity="1.000000" fill-rule="nonzero"/>
	<path id="Vector" d="M248.19 172.42C250.27 176.63 251.5 181.21 251.79 185.9C251.83 186.57 251.66 187.23 251.3 187.79C250.94 188.35 250.41 188.79 249.79 189.03C249.17 189.28 248.49 189.32 247.84 189.16C247.19 189 246.61 188.64 246.18 188.12L246.11 188.08C246.81 193.78 247.13 199.52 247.06 205.27C247.06 206.07 246.81 206.86 246.34 207.52C245.88 208.18 245.22 208.68 244.46 208.95C243.69 209.22 242.87 209.24 242.09 209.03C241.31 208.81 240.62 208.35 240.11 207.73C230.89 196.5 226.05 182.31 226.49 167.78L248.19 172.42Z" fill="#029491" fill-opacity="1.000000" fill-rule="nonzero"/>
	<g opacity="0.300000">
		<path id="Vector" d="M245.67 177.64C246.07 178.34 246.32 179.11 246.41 179.91C246.45 180.31 246.38 180.71 246.2 181.06C246.02 181.42 245.74 181.72 245.39 181.92C244.3 182.44 242.92 181.56 241.85 182.16C240.78 182.75 240.85 184.38 241.14 185.62L242.05 189.53C242.28 190.5 242.42 191.7 241.6 192.27C240.79 192.85 239.48 192.27 238.68 191.54C236.81 189.82 235.39 187.67 234.54 185.28C233.69 182.89 233.43 180.33 233.79 177.81L245.67 177.64Z" fill="#000000" fill-opacity="1.000000" fill-rule="nonzero"/>
	</g>
	<path id="Vector" d="M246.65 223.06C247.42 223.56 247.97 224.34 248.17 225.23C248.38 226.13 248.23 227.06 247.75 227.85C247.27 228.63 246.5 229.19 245.61 229.41C244.72 229.64 243.77 229.5 242.98 229.03C242.19 228.57 241.62 227.81 241.38 226.92C241.14 226.03 241.26 225.09 241.71 224.29C242.16 223.49 242.91 222.9 243.79 222.65C244.68 222.4 245.62 222.5 246.43 222.94L246.65 223.06Z" fill="#029491" fill-opacity="1.000000" fill-rule="nonzero"/>
	<path id="Vector" d="M236.03 2.64C241.26 2.43 251.38 15.59 261.15 37.82C266.93 50.92 270.58 64.87 271.96 79.13L275.63 176.28L250.03 177.24L235.19 177.81L209.6 178.78L206.27 90.61C205.94 81.99 206.43 73.35 207.75 64.82C209.03 56.28 211 47.84 213.63 39.61C221.16 16.62 230.8 2.83 236.03 2.64Z" fill="#F5F5F5" fill-opacity="1.000000" fill-rule="nonzero"/>
	<path id="Vector" d="M207.32 117.86L207.08 118.07C200.15 124.08 194.66 131.57 191.01 139.98C187.36 148.4 185.66 157.53 186.01 166.69L186.45 178.33L208.96 161.39L207.32 117.86Z" fill="#029491" fill-opacity="1.000000" fill-rule="nonzero"/>
	<path id="Vector" d="M207.32 117.86L207.32 118.09L207.34 118.71L207.43 121.1L207.7 130.12L208.79 161.39L208.86 161.27L188.38 176.72L186.35 178.19L186.61 178.34L186.34 171.49C186.27 169.23 186.14 167.01 186.15 164.84C186.12 160.66 186.51 156.49 187.31 152.39C188.04 148.68 189.12 145.05 190.53 141.55C191.15 139.89 191.93 138.37 192.62 136.87C193.3 135.38 194.09 134.02 194.91 132.75C197.34 128.69 200.24 124.92 203.55 121.53C204.68 120.29 205.69 119.46 206.3 118.84L207.28 117.91L207.01 118.13L206.27 118.7C205.63 119.3 204.61 120.12 203.45 121.35C200.09 124.72 197.15 128.49 194.69 132.56C193.87 133.83 193.12 135.23 192.37 136.7C191.62 138.16 190.89 139.72 190.26 141.38C188.83 144.9 187.73 148.54 186.99 152.27C186.17 156.39 185.77 160.58 185.8 164.78C185.78 166.98 185.92 169.19 185.99 171.45L186.27 178.33L186.28 178.66L186.55 178.46L188.58 176.99L209.09 161.54L209.13 161.47L209.17 161.41L207.88 130.01L207.5 121.05L207.41 118.66C207.39 118.41 207.39 118.21 207.38 118.06L207.32 117.86Z" fill="#263238" fill-opacity="1.000000" fill-rule="nonzero"/>
	<path id="Vector" d="M273.35 115.38C273.35 115.38 273.48 115.45 273.62 115.53C280.88 120.93 286.83 127.89 291.04 135.89C295.26 143.89 297.61 152.74 297.95 161.78L298.39 173.27L274.98 158.31L273.35 115.38Z" fill="#029491" fill-opacity="1.000000" fill-rule="nonzero"/>
	<path id="Vector" d="M273.35 115.38L273.35 115.56L273.37 116.16L273.42 118.52L273.72 127.36L274.79 158.34L274.8 158.42L274.86 158.46C281.43 162.67 288.63 167.29 296.19 172.12C296.91 172.55 297.61 173.03 298.26 173.45L298.54 173.62L298.53 173.28L298.28 166.52C298.18 164.29 298.14 162.11 297.97 159.95C297.68 155.81 296.97 151.72 295.86 147.72C294.86 144.12 293.51 140.62 291.83 137.28C291.1 135.68 290.2 134.23 289.41 132.81C288.62 131.39 287.73 130.11 286.81 128.95C284.1 125.12 280.95 121.64 277.41 118.56C276.18 117.45 275.12 116.71 274.44 116.17C274.1 115.91 273.85 115.72 273.64 115.56C273.43 115.4 273.35 115.39 273.35 115.39C273.52 115.49 273.79 115.74 274.38 116.23C274.96 116.71 276.09 117.54 277.31 118.66C280.82 121.76 283.95 125.25 286.65 129.08C287.54 130.27 288.33 131.6 289.24 132.93C290.14 134.26 290.89 135.79 291.62 137.38C293.28 140.71 294.61 144.2 295.6 147.79C296.7 151.77 297.39 155.84 297.67 159.95C297.84 162.09 297.87 164.29 297.97 166.51L298.22 173.28L298.49 173.12C297.82 172.73 297.12 172.26 296.42 171.8C288.87 166.97 281.65 162.36 275.08 158.15L275.15 158.28L273.9 127.44L273.52 118.56L273.43 116.18L273.39 115.56L273.35 115.38Z" fill="#263238" fill-opacity="1.000000" fill-rule="nonzero"/>
	<path id="Vector" d="M236.03 2.64C240.07 2.33 247.05 10.3 254.52 24.16L217.78 28.05C224.15 13.43 230.85 3.02 236.03 2.64Z" fill="#029491" fill-opacity="1.000000" fill-rule="nonzero"/>
	<path id="Vector" d="" fill="#F5F5F5" fill-opacity="1.000000" fill-rule="nonzero"/>
	<path id="Vector" d="M209.69 162.93C209.7 163.03 224.34 162.64 242.38 162.06C260.43 161.48 275.07 160.95 275.06 160.85C275.05 160.75 260.47 161.14 242.38 161.72C224.28 162.3 209.68 162.83 209.69 162.93Z" fill="#263238" fill-opacity="1.000000" fill-rule="nonzero"/>
	<path id="Vector" d="" fill="#F5F5F5" fill-opacity="1.000000" fill-rule="nonzero"/>
	<path id="Vector" d="M210.1 165.86C210.06 165.93 224.74 165.57 242.79 164.99C260.84 164.41 275.48 163.88 275.47 163.78C275.46 163.68 260.84 164.08 242.78 164.65C224.72 165.22 210.09 165.76 210.1 165.86Z" fill="#263238" fill-opacity="1.000000" fill-rule="nonzero"/>
	<path id="Vector" d="" fill="#F5F5F5" fill-opacity="1.000000" fill-rule="nonzero"/>
	<path id="Vector" d="M210.15 168.97C210.17 169.07 224.8 168.68 242.85 168.1C260.9 167.53 275.54 166.99 275.53 166.89C275.52 166.79 260.9 167.19 242.84 167.76C224.79 168.34 210.15 168.88 210.15 168.97Z" fill="#263238" fill-opacity="1.000000" fill-rule="nonzero"/>
	<path id="Vector" d="" fill="#F5F5F5" fill-opacity="1.000000" fill-rule="nonzero"/>
	<path id="Vector" d="M210.22 172.09C210.23 172.18 224.87 171.79 242.91 171.22C260.96 170.65 275.62 170.06 275.57 170.04C275.53 170.01 260.94 170.34 242.89 170.91C224.83 171.48 210.22 171.98 210.22 172.09Z" fill="#263238" fill-opacity="1.000000" fill-rule="nonzero"/>
	<path id="Vector" d="" fill="#F5F5F5" fill-opacity="1.000000" fill-rule="nonzero"/>
	<path id="Vector" d="M210.26 175.17C210.22 175.24 224.9 174.88 242.96 174.31C261.01 173.73 275.64 173.19 275.64 173.09C275.64 173 261.01 173.39 242.95 173.97C224.89 174.54 210.3 175.11 210.26 175.17Z" fill="#263238" fill-opacity="1.000000" fill-rule="nonzero"/>
	<path id="Vector" d="M240.21 116.7C240.21 116.7 240.14 116.83 240.15 117.15C240.17 117.48 240.14 117.9 240.12 118.47C240.11 119.63 240.16 121.28 240.22 123.32C240.34 127.41 240.58 133.05 240.87 139.29C241.17 145.52 241.47 151.16 241.71 155.25L242.01 160.09L242.11 161.39C242.11 161.55 242.13 161.7 242.17 161.85C242.19 161.69 242.19 161.54 242.18 161.38L242.15 160.07L241.95 155.23L241.2 139.29L240.45 123.33L240.22 118.54C240.21 117.97 240.17 117.52 240.18 117.22L240.21 116.7Z" fill="#263238" fill-opacity="1.000000" fill-rule="nonzero"/>
	<path id="Vector" d="M207.32 117.86C207.33 117.96 221.99 117.5 240.06 116.82C258.12 116.15 272.79 115.54 272.79 115.44C272.79 115.35 258.13 115.81 240.05 116.48C221.97 117.15 207.31 117.77 207.32 117.86Z" fill="#263238" fill-opacity="1.000000" fill-rule="nonzero"/>
	<path id="Vector" d="M236.12 148.93C236.01 148.8 235.86 148.72 235.7 148.68C235.27 148.5 234.79 148.48 234.35 148.62C234.01 148.72 233.7 148.9 233.45 149.15C233.2 149.4 233.02 149.71 232.93 150.05C232.8 150.48 232.81 150.93 232.95 151.35C233.09 151.78 233.36 152.14 233.72 152.4C234.08 152.66 234.52 152.8 234.96 152.81C235.41 152.81 235.84 152.67 236.2 152.41C236.5 152.22 236.74 151.95 236.9 151.64C237.06 151.32 237.14 150.97 237.12 150.62C237.12 150.17 236.97 149.73 236.69 149.37C236.48 149.13 236.31 149.05 236.3 149.07C236.29 149.08 236.42 149.19 236.58 149.45C236.81 149.81 236.93 150.22 236.92 150.64C236.92 150.95 236.83 151.24 236.68 151.51C236.52 151.77 236.3 151.99 236.04 152.14C235.73 152.34 235.36 152.45 234.99 152.44C234.62 152.43 234.26 152.31 233.96 152.09C233.66 151.87 233.43 151.57 233.31 151.22C233.19 150.87 233.17 150.49 233.27 150.13C233.34 149.84 233.48 149.57 233.69 149.34C233.89 149.12 234.15 148.96 234.44 148.86C234.82 148.72 235.25 148.69 235.65 148.79C235.96 148.87 236.11 148.95 236.12 148.93Z" fill="#263238" fill-opacity="1.000000" fill-rule="nonzero"/>
	<path id="Vector" d="M235.07 130.17C235.07 130.17 234.96 130.02 234.64 129.92C234.21 129.74 233.73 129.72 233.29 129.87C232.95 129.96 232.64 130.14 232.39 130.39C232.14 130.64 231.97 130.95 231.88 131.29C231.75 131.72 231.75 132.17 231.89 132.6C232.03 133.02 232.3 133.38 232.67 133.64C233.03 133.91 233.46 134.05 233.9 134.05C234.35 134.05 234.78 133.91 235.15 133.65C235.44 133.46 235.68 133.19 235.84 132.88C236.01 132.56 236.08 132.21 236.06 131.86C236.05 131.41 235.9 130.97 235.63 130.62C235.53 130.48 235.4 130.38 235.24 130.31C235.24 130.31 235.36 130.44 235.52 130.7C235.75 131.06 235.87 131.47 235.86 131.89C235.85 132.19 235.77 132.49 235.62 132.75C235.46 133.01 235.24 133.23 234.98 133.38C234.67 133.58 234.31 133.69 233.94 133.68C233.57 133.67 233.21 133.55 232.91 133.34C232.6 133.12 232.38 132.82 232.25 132.47C232.13 132.12 232.11 131.74 232.21 131.38C232.28 131.09 232.42 130.81 232.63 130.59C232.83 130.37 233.09 130.2 233.38 130.11C233.77 129.97 234.19 129.94 234.59 130.03C234.91 130.11 235.05 130.19 235.07 130.17Z" fill="#263238" fill-opacity="1.000000" fill-rule="nonzero"/>
	<path id="Vector" d="M244.09 100.55C243.97 100.44 243.83 100.35 243.67 100.3C243.23 100.14 242.76 100.12 242.31 100.25C241.96 100.34 241.64 100.53 241.39 100.79C241.13 101.05 240.95 101.37 240.87 101.73C240.74 102.15 240.75 102.61 240.89 103.03C241.03 103.45 241.3 103.82 241.67 104.08C242.03 104.34 242.46 104.48 242.9 104.48C243.35 104.48 243.78 104.34 244.14 104.08C244.44 103.89 244.68 103.62 244.84 103.31C245 102.99 245.08 102.64 245.06 102.29C245.06 101.84 244.9 101.4 244.63 101.04C244.42 100.79 244.25 100.72 244.24 100.73C244.33 100.87 244.42 101 244.52 101.12C244.75 101.48 244.86 101.89 244.86 102.31C244.85 102.61 244.77 102.91 244.62 103.17C244.46 103.44 244.24 103.65 243.98 103.81C243.66 103.99 243.3 104.08 242.93 104.07C242.57 104.06 242.21 103.95 241.9 103.75C241.62 103.52 241.4 103.21 241.28 102.87C241.16 102.52 241.14 102.14 241.22 101.78C241.29 101.49 241.43 101.22 241.64 101C241.84 100.77 242.1 100.61 242.39 100.52C242.78 100.37 243.2 100.34 243.6 100.44C243.93 100.49 244.08 100.58 244.09 100.55Z" fill="#263238" fill-opacity="1.000000" fill-rule="nonzero"/>
	<path id="Vector" d="M248.06 87.34C247.97 87.36 247.78 93.91 247.6 101.96C247.42 110 247.43 116.56 247.53 116.55C247.63 116.54 247.82 109.98 248 101.93C248.17 93.88 248.18 87.35 248.06 87.34Z" fill="#263238" fill-opacity="1.000000" fill-rule="nonzero"/>
	<g opacity="0.300000">
		<path id="Vector" d="M274.92 157.19C274.92 157.19 273.21 129.04 273.35 115.38C276.32 121.87 279.65 129.29 280.51 136.38C281.31 143.77 279.32 151.19 274.92 157.19Z" fill="#000000" fill-opacity="1.000000" fill-rule="nonzero"/>
	</g>
	<path id="Vector" d="M219.87 65.04C217.2 75.63 223.62 86.39 234.22 89.06C244.82 91.73 255.57 85.31 258.24 74.71C260.92 64.11 254.49 53.36 243.89 50.68C233.3 48.01 222.54 54.44 219.87 65.04Z" fill="#FFFFFF" fill-opacity="1.000000" fill-rule="evenodd"/>
	<path id="Vector" d="M230 87.49C229.91 87.43 229.82 87.37 229.72 87.33C229.51 87.21 229.24 87.05 228.91 86.85C228.46 86.6 228.04 86.31 227.64 86C227.07 85.6 226.53 85.16 226.02 84.69C224.6 83.43 223.38 81.96 222.39 80.34C221.07 78.2 220.17 75.82 219.75 73.34C219.18 70.12 219.44 66.8 220.49 63.71C221.54 60.61 223.35 57.82 225.76 55.61C227.13 54.32 228.7 53.24 230.39 52.43C231.27 52.01 232.17 51.64 233.08 51.33C234.03 51.06 234.98 50.84 235.95 50.69C240.06 50.02 244.27 50.7 247.97 52.6C251.67 54.51 254.66 57.55 256.5 61.28C256.94 62.14 257.32 63.04 257.65 63.95C257.94 64.88 258.16 65.83 258.31 66.79C258.63 68.65 258.67 70.54 258.42 72.41C257.98 75.87 256.63 79.14 254.5 81.9C252.8 84.1 250.64 85.91 248.19 87.21C245.73 88.52 243.03 89.29 240.26 89.47C238.36 89.61 236.46 89.47 234.6 89.04C233.92 88.9 233.26 88.72 232.6 88.49C232.11 88.35 231.63 88.17 231.17 87.95C230.82 87.8 230.53 87.68 230.3 87.59C230.21 87.54 230.1 87.5 230 87.48C230.09 87.54 230.18 87.6 230.28 87.65C230.48 87.77 230.78 87.88 231.12 88.05C231.58 88.29 232.05 88.49 232.54 88.64C233.19 88.88 233.85 89.08 234.53 89.23C236.39 89.72 238.32 89.91 240.25 89.81C243.07 89.65 245.84 88.89 248.35 87.58C250.86 86.27 253.07 84.44 254.82 82.22C257.02 79.39 258.43 76.03 258.89 72.48C259.16 70.56 259.12 68.62 258.79 66.71C258.5 64.72 257.89 62.78 256.97 60.98C256.05 59.1 254.84 57.39 253.37 55.9C251.86 54.37 250.12 53.08 248.21 52.08C244.42 50.14 240.11 49.46 235.9 50.13C234.89 50.29 233.9 50.51 232.93 50.82C231.99 51.14 231.07 51.52 230.18 51.95C228.44 52.79 226.84 53.9 225.44 55.22C222.82 57.66 220.9 60.75 219.88 64.18C219.08 66.9 218.87 69.76 219.26 72.57C219.65 75.38 220.64 78.07 222.15 80.47C223.17 82.11 224.43 83.58 225.89 84.84C226.41 85.31 226.96 85.74 227.55 86.12C227.96 86.43 228.4 86.71 228.85 86.94C229.19 87.14 229.46 87.3 229.66 87.42C229.77 87.46 229.88 87.48 230 87.49Z" fill="#263238" fill-opacity="1.000000" fill-rule="nonzero"/>
	<path id="Vector" d="M236.03 2.64C235.95 2.64 235.88 2.64 235.8 2.65C235.57 2.66 235.34 2.7 235.12 2.77C234.25 3.05 233.44 3.48 232.73 4.04C230.05 6.3 227.76 8.99 225.96 12C222.98 16.71 220.41 21.66 218.27 26.8C215.37 33.62 212.96 40.64 211.06 47.81C210.02 51.81 209.08 56.04 208.24 60.49C207.38 65.13 206.75 69.82 206.36 74.53C205.96 79.58 205.84 84.66 206 89.73L206.59 105.9L209.32 178.74L209.33 179.01L209.59 179C220.19 178.59 231.29 178.17 242.6 177.76C253.91 177.34 265.02 176.9 275.62 176.5L275.88 176.5L275.87 176.23L273.13 103.36L272.5 87.2L272.19 79.51C272.03 76.96 271.66 74.47 271.34 72.03C269.91 63.08 267.64 54.3 264.55 45.78C261.93 38.84 258.87 32.07 255.38 25.52C252.82 20.58 249.9 15.84 246.63 11.34C244.64 8.46 242.21 5.91 239.41 3.81C238.67 3.29 237.83 2.91 236.95 2.7C236.72 2.65 236.49 2.62 236.26 2.63C236.18 2.62 236.1 2.62 236.02 2.63C236.33 2.64 236.63 2.68 236.93 2.75C237.8 2.98 238.62 3.37 239.35 3.9C242.14 6.02 244.56 8.58 246.53 11.48C249.77 15.99 252.66 20.74 255.19 25.68C258.63 32.23 261.65 38.99 264.23 45.92C267.28 54.42 269.52 63.18 270.93 72.1C271.29 74.51 271.63 76.99 271.77 79.5L272.06 87.22L272.66 103.38L275.38 176.25L275.63 175.97L242.61 177.22L209.6 178.47L209.87 178.72L207.09 105.87L206.49 89.71C206.32 84.65 206.43 79.59 206.82 74.55C207.19 69.68 207.86 65.02 208.65 60.57C209.44 56.12 210.36 51.88 211.39 47.89C213.27 40.74 215.65 33.72 218.52 26.91C220.62 21.77 223.15 16.82 226.08 12.1C227.86 9.1 230.12 6.4 232.77 4.12C233.47 3.55 234.26 3.11 235.11 2.81C235.41 2.73 235.72 2.67 236.03 2.64Z" fill="#263238" fill-opacity="1.000000" fill-rule="nonzero"/>
	<path id="Vector" d="M328.82 261.98L154.55 261.98C149.09 261.98 143.85 259.81 139.98 255.94C136.12 252.08 133.95 246.84 133.95 241.37C133.95 235.91 136.12 230.67 139.98 226.81C143.85 222.94 149.09 220.77 154.55 220.77L328.82 220.77C334.29 220.77 339.53 222.94 343.39 226.81C347.26 230.67 349.43 235.91 349.43 241.37C349.43 246.84 347.26 252.08 343.39 255.94C339.53 259.81 334.29 261.98 328.82 261.98Z" fill="#FFFFFF" fill-opacity="1.000000" fill-rule="nonzero"/>
	<path id="Vector" d="M328.82 261.98L330.05 261.89C330.55 261.88 331.06 261.83 331.55 261.74C332.25 261.65 332.93 261.52 333.61 261.34L334.83 261.02C335.26 260.88 335.69 260.71 336.15 260.54L336.85 260.28L337.56 259.93C338.07 259.7 338.57 259.45 339.04 259.16C341.36 257.82 343.39 256.04 345.01 253.92C345.49 253.31 345.93 252.67 346.32 252C346.75 251.31 347.13 250.59 347.46 249.84C347.81 249.07 348.12 248.27 348.38 247.46C348.49 247.03 348.6 246.61 348.71 246.17L348.88 245.52L348.98 244.85L349.19 243.47L349.25 242.07L349.25 241.34L349.25 240.62C349.25 240.13 349.25 239.62 349.16 239.15C348.92 237.1 348.38 235.1 347.57 233.21C345.71 229.01 342.51 225.55 338.48 223.36C336.29 222.19 333.91 221.44 331.45 221.12C328.92 220.84 326.26 220.98 323.57 220.95L154.59 221.03C152.55 221.06 150.53 221.36 148.57 221.93C146.64 222.55 144.81 223.43 143.13 224.55C141.49 225.68 140.01 227.03 138.73 228.56C137.49 230.12 136.48 231.84 135.72 233.69C134.99 235.53 134.52 237.46 134.32 239.43C134.16 241.38 134.26 243.35 134.62 245.28C135.37 249.1 137.22 252.63 139.93 255.43C142.58 258.2 145.97 260.15 149.69 261.06C150.6 261.29 151.53 261.46 152.46 261.56C153.4 261.56 154.33 261.69 155.28 261.67L182.88 261.67L258.85 261.74L310.03 261.82L323.96 261.87L327.58 261.87L328.81 261.87L327.58 261.87L323.96 261.87L310.03 261.87L258.85 261.96L182.88 262.01L155.28 262.01C154.34 262.01 153.36 261.94 152.41 261.9C151.45 261.79 150.5 261.61 149.57 261.38C145.75 260.45 142.27 258.46 139.53 255.62C138.16 254.19 137 252.58 136.06 250.83C135.14 249.05 134.47 247.16 134.06 245.21C133.69 243.22 133.59 241.2 133.76 239.19C134.14 235.11 135.71 231.23 138.28 228.04C140.89 224.8 144.4 222.42 148.38 221.19C150.38 220.61 152.45 220.3 154.53 220.27L323.51 220.34C326.2 220.34 328.84 220.24 331.43 220.54C333.95 220.85 336.38 221.63 338.61 222.83C342.7 225.06 345.94 228.59 347.81 232.86C348.63 234.79 349.16 236.81 349.41 238.89C349.46 239.39 349.46 239.89 349.49 240.38L349.49 241.11L349.49 241.84C349.49 242.32 349.43 242.84 349.42 243.27C349.39 243.7 349.27 244.2 349.19 244.66L349.09 245.34L348.92 246C348.8 246.44 348.69 246.87 348.58 247.29C348.25 248.12 348.03 248.96 347.64 249.71C347.3 250.46 346.91 251.19 346.47 251.89C346.08 252.56 345.63 253.2 345.14 253.81C343.5 255.94 341.45 257.73 339.12 259.07C338.64 259.35 338.14 259.6 337.62 259.83L336.9 260.17L336.2 260.43C335.73 260.6 335.3 260.77 334.86 260.9L333.64 261.21C332.96 261.39 332.26 261.51 331.56 261.58C331.07 261.66 330.56 261.71 330.06 261.71L328.82 261.98Z" fill="#263238" fill-opacity="1.000000" fill-rule="nonzero"/>
	<path id="Vector" d="M327.41 232.59C330.99 236.17 330.99 241.98 327.41 245.56C323.83 249.14 318.02 249.14 314.44 245.56C310.85 241.98 310.85 236.17 314.44 232.59C318.02 229 323.83 229 327.41 232.59Z" fill="#FFFFFF" fill-opacity="1.000000" fill-rule="evenodd"/>
	<path id="Vector" d="M320.92 249.91C319 249.92 317.13 249.35 315.54 248.29C313.95 247.23 312.7 245.71 311.97 243.95C311.24 242.18 311.04 240.23 311.42 238.36C311.79 236.48 312.71 234.75 314.07 233.4C315.42 232.05 317.14 231.13 319.02 230.75C320.9 230.38 322.85 230.57 324.61 231.31C326.38 232.04 327.89 233.28 328.95 234.87C330.02 236.46 330.58 238.34 330.58 240.25C330.58 242.81 329.56 245.27 327.75 247.08C325.93 248.89 323.48 249.91 320.92 249.91ZM320.92 231.58C319.2 231.58 317.52 232.09 316.1 233.04C314.67 233.99 313.56 235.34 312.9 236.93C312.24 238.51 312.07 240.25 312.4 241.94C312.73 243.62 313.56 245.16 314.77 246.38C315.98 247.59 317.53 248.42 319.21 248.75C320.89 249.09 322.64 248.92 324.22 248.26C325.81 247.61 327.16 246.49 328.11 245.07C329.07 243.64 329.58 241.97 329.58 240.25C329.58 237.95 328.66 235.75 327.04 234.12C325.42 232.5 323.21 231.58 320.92 231.58Z" fill="#263238" fill-opacity="1.000000" fill-rule="nonzero"/>
	<path id="Vector" d="M328.04 246.1L328.58 245.25L336.34 250.15L335.81 251L328.04 246.1Z" fill="#263238" fill-opacity="1.000000" fill-rule="evenodd"/>
	<path id="Vector" d="M65.7 438.83L66.31 468.01L27.9 468.91C28.03 465.44 47.72 458.01 47.72 458.01L46.51 439.33L65.7 438.83Z" fill="#455A64" fill-opacity="1.000000" fill-rule="nonzero"/>
	<g opacity="0.600000">
		<path id="Vector" d="M59.56 456.16C59.92 456.25 60.24 456.47 60.45 456.77C60.65 457.08 60.74 457.46 60.68 457.83C60.58 458.19 60.35 458.5 60.02 458.7C59.7 458.9 59.32 458.97 58.95 458.9C58.75 458.87 58.55 458.8 58.38 458.7C58.21 458.59 58.06 458.45 57.95 458.28C57.84 458.11 57.77 457.92 57.74 457.72C57.7 457.52 57.72 457.31 57.77 457.12C57.83 456.92 57.92 456.74 58.05 456.59C58.18 456.43 58.34 456.31 58.53 456.22C58.71 456.13 58.91 456.09 59.11 456.08C59.31 456.08 59.51 456.12 59.7 456.2L59.56 456.16Z" fill="#FFFFFF" fill-opacity="1.000000" fill-rule="nonzero"/>
	</g>
	<g opacity="0.600000">
		<path id="Vector" d="M66.31 468.01L66.12 465.07L29.37 467.08C29.37 467.08 27.68 467.82 27.9 468.95L66.31 468.01Z" fill="#FFFFFF" fill-opacity="1.000000" fill-rule="nonzero"/>
	</g>
	<path id="Vector" d="M47.09 457.84C47.09 458.02 48.04 458.08 48.98 458.63C49.92 459.18 50.43 459.9 50.6 459.83C50.77 459.76 50.47 458.74 49.31 458.1C48.16 457.45 47.04 457.68 47.09 457.84Z" fill="#263238" fill-opacity="1.000000" fill-rule="nonzero"/>
	<path id="Vector" d="M43.1 459.51C43.1 459.68 43.88 459.96 44.55 460.7C45.21 461.43 45.41 462.22 45.55 462.21C45.69 462.2 45.83 461.21 45 460.29C44.17 459.38 43.1 459.34 43.1 459.51Z" fill="#263238" fill-opacity="1.000000" fill-rule="nonzero"/>
	<path id="Vector" d="M40.93 464.12C41.11 464.12 41.35 463.26 40.84 462.3C40.34 461.34 39.45 460.98 39.37 461.13C39.29 461.28 39.85 461.78 40.25 462.57C40.65 463.37 40.75 464.11 40.93 464.12Z" fill="#263238" fill-opacity="1.000000" fill-rule="nonzero"/>
	<path id="Vector" d="M47.34 453.55C47.42 453.71 48.28 453.45 49.34 453.49C50.41 453.53 51.24 453.83 51.35 453.68C51.46 453.53 50.63 452.91 49.34 452.88C48.06 452.85 47.23 453.42 47.34 453.55Z" fill="#263238" fill-opacity="1.000000" fill-rule="nonzero"/>
	<path id="Vector" d="M48.12 449.23C48.76 449.37 49.42 449.36 50.05 449.18C50.74 449.04 51.41 448.83 52.05 448.54C52.43 448.37 52.79 448.18 53.14 447.96C53.35 447.84 53.54 447.7 53.71 447.52C53.83 447.4 53.9 447.23 53.91 447.06C53.92 446.89 53.87 446.72 53.77 446.58C53.67 446.45 53.54 446.35 53.4 446.28C53.26 446.21 53.1 446.18 52.94 446.19C52.7 446.19 52.46 446.23 52.22 446.3C51.81 446.4 51.41 446.54 51.03 446.72C50.39 447 49.81 447.39 49.29 447.86C48.42 448.65 48.13 449.33 48.2 449.36C48.27 449.39 48.7 448.85 49.59 448.18C50.12 447.8 50.68 447.48 51.28 447.23C51.64 447.09 52.01 446.98 52.38 446.89C52.79 446.78 53.13 446.77 53.24 446.89C53.35 447.01 53.24 446.98 53.24 447.1C53.12 447.22 52.98 447.33 52.83 447.42C52.5 447.63 52.17 447.82 51.82 447.99C51.23 448.29 50.61 448.53 49.98 448.7C49.34 448.83 48.72 449.01 48.12 449.23Z" fill="#263238" fill-opacity="1.000000" fill-rule="nonzero"/>
	<path id="Vector" d="M48.34 449.48C48.69 448.96 48.85 448.33 48.8 447.71C48.82 447.03 48.72 446.35 48.49 445.7C48.36 445.32 48.18 444.96 47.97 444.61C47.85 444.37 47.68 444.16 47.46 444C47.24 443.85 46.98 443.75 46.72 443.72C46.55 443.72 46.39 443.78 46.25 443.87C46.11 443.97 45.99 444.1 45.92 444.25C45.83 444.46 45.77 444.69 45.75 444.92C45.69 445.33 45.69 445.74 45.75 446.15C45.88 446.83 46.18 447.46 46.62 448C47.4 448.92 48.18 449.12 48.2 449.06C48.22 449 47.6 448.64 47 447.75C46.66 447.24 46.43 446.66 46.34 446.06C46.29 445.71 46.29 445.35 46.34 445C46.34 444.62 46.54 444.3 46.69 444.34C46.84 444.38 47.22 444.61 47.38 444.92C47.58 445.24 47.74 445.58 47.88 445.92C48.11 446.5 48.25 447.11 48.3 447.73C48.45 448.78 48.27 449.45 48.34 449.48Z" fill="#263238" fill-opacity="1.000000" fill-rule="nonzero"/>
	<path id="Vector" d="M94.81 441.26L98.51 470.21L136.65 465.47C136 462.06 115.44 457.6 115.44 457.6L113.9 438.94L94.81 441.26Z" fill="#455A64" fill-opacity="1.000000" fill-rule="nonzero"/>
	<g opacity="0.600000">
		<path id="Vector" d="M103.42 457.5C103.08 457.63 102.79 457.9 102.63 458.23C102.47 458.57 102.44 458.95 102.55 459.31C102.71 459.65 102.98 459.93 103.33 460.08C103.68 460.22 104.07 460.24 104.43 460.11C104.8 459.97 105.1 459.69 105.27 459.33C105.43 458.97 105.46 458.56 105.34 458.19C105.14 457.86 104.82 457.61 104.45 457.49C104.09 457.38 103.69 457.4 103.33 457.56L103.42 457.5Z" fill="#FFFFFF" fill-opacity="1.000000" fill-rule="nonzero"/>
	</g>
	<g opacity="0.600000">
		<path id="Vector" d="M98.51 470.21L98.26 467.27L134.91 463.84C134.91 463.84 136.65 464.28 136.65 465.47L98.51 470.21Z" fill="#FFFFFF" fill-opacity="1.000000" fill-rule="nonzero"/>
	</g>
	<path id="Vector" d="M116 457.33C116 457.52 115.09 457.71 114.24 458.39C113.39 459.07 113 459.86 112.81 459.81C112.63 459.76 112.81 458.72 113.82 457.92C114.82 457.11 116.02 457.16 116 457.33Z" fill="#263238" fill-opacity="1.000000" fill-rule="nonzero"/>
	<path id="Vector" d="M120.18 458.4C120.25 458.57 119.48 458.97 118.94 459.79C118.39 460.62 118.3 461.42 118.12 461.44C117.94 461.46 117.69 460.43 118.38 459.43C119.08 458.43 120.16 458.26 120.18 458.4Z" fill="#263238" fill-opacity="1.000000" fill-rule="nonzero"/>
	<path id="Vector" d="M123 462.64C122.84 462.7 122.48 461.86 122.84 460.84C123.2 459.81 124.02 459.32 124.11 459.45C124.21 459.58 123.73 460.17 123.45 461.02C123.17 461.86 123.19 462.6 123 462.64Z" fill="#263238" fill-opacity="1.000000" fill-rule="nonzero"/>
	<path id="Vector" d="M115.14 453.13C115.08 453.3 114.2 453.13 113.14 453.36C112.07 453.59 111.31 453.97 111.2 453.83C111.09 453.69 111.79 452.97 113.03 452.75C114.26 452.53 115.22 452.98 115.14 453.13Z" fill="#263238" fill-opacity="1.000000" fill-rule="nonzero"/>
	<path id="Vector" d="M113.72 448.97C113.11 449.2 112.46 449.28 111.81 449.19C111.11 449.16 110.42 449.05 109.75 448.85C109.35 448.75 108.96 448.61 108.58 448.44C108.35 448.36 108.14 448.24 107.95 448.09C107.81 447.99 107.72 447.84 107.68 447.67C107.65 447.5 107.67 447.32 107.75 447.17C107.83 447.03 107.94 446.91 108.08 446.82C108.21 446.74 108.36 446.68 108.52 446.66C108.76 446.63 109 446.63 109.24 446.66C109.66 446.7 110.08 446.78 110.48 446.9C111.15 447.09 111.79 447.38 112.37 447.77C113.38 448.43 113.73 449.06 113.67 449.1C113.61 449.14 113.1 448.66 112.12 448.14C111.21 447.64 110.21 447.34 109.17 447.26C108.75 447.21 108.41 447.26 108.33 447.43C108.25 447.6 108.33 447.53 108.4 447.63C108.54 447.74 108.7 447.82 108.86 447.88C109.21 448.05 109.57 448.19 109.94 448.3C110.56 448.51 111.21 448.65 111.86 448.74C112.49 448.77 113.11 448.84 113.72 448.97Z" fill="#263238" fill-opacity="1.000000" fill-rule="nonzero"/>
	<path id="Vector" d="M113.51 449.23C113.09 448.76 112.84 448.17 112.8 447.54C112.68 446.88 112.68 446.2 112.8 445.53C112.87 445.14 112.99 444.75 113.15 444.38C113.23 444.12 113.37 443.89 113.56 443.71C113.75 443.52 113.99 443.39 114.25 443.32C114.42 443.3 114.59 443.32 114.74 443.4C114.89 443.47 115.02 443.58 115.11 443.72C115.23 443.92 115.32 444.13 115.38 444.36C115.5 444.75 115.55 445.16 115.53 445.57C115.52 446.28 115.32 446.97 114.95 447.58C114.32 448.58 113.57 448.92 113.54 448.86C113.51 448.79 114.08 448.35 114.54 447.39C114.8 446.83 114.93 446.23 114.93 445.61C114.93 445.27 114.88 444.93 114.77 444.61C114.67 444.23 114.48 443.94 114.33 444C114.18 444.06 113.86 444.35 113.74 444.67C113.59 444.99 113.47 445.33 113.38 445.67C113.24 446.28 113.19 446.9 113.23 447.52C113.33 448.57 113.57 449.23 113.51 449.23Z" fill="#263238" fill-opacity="1.000000" fill-rule="nonzero"/>
	<path id="Vector" d="M35.91 283.96L95.71 285.88C95.71 285.88 109.81 379.99 109.41 386.54L118.1 454.78L92.82 455.67C92.82 455.67 88.8 433.52 86.06 418.37C84.22 408.33 80.84 393.5 79.93 385.08C79.02 376.66 64.23 317.85 64.23 317.85C64.23 317.85 65.32 386.09 65.29 388.9C65.26 391.71 68.22 455.59 68.22 455.59L43.13 455.59C41.84 444.06 38.76 397.92 38.12 388.6C36.91 371.76 33.1 324.19 32.59 312.04C32.08 299.89 35.91 283.96 35.91 283.96Z" fill="#263238" fill-opacity="1.000000" fill-rule="nonzero"/>
	<path id="Vector" d="M39.85 284.42C40.13 283.01 40.13 281.55 39.85 280.14C39.56 281.55 39.56 283.01 39.85 284.42Z" fill="#455A64" fill-opacity="1.000000" fill-rule="nonzero"/>
	<path id="Vector" d="M37.36 285.56C37.84 283.75 37.68 281.84 36.91 280.14C36.94 281.05 37.03 281.95 37.17 282.85C37.17 283.75 37.24 284.66 37.36 285.56Z" fill="#455A64" fill-opacity="1.000000" fill-rule="nonzero"/>
	<path id="Vector" d="M59.7 281.07C60.18 281.17 60.63 281.42 60.96 281.78C61.13 281.98 61.26 282.2 61.33 282.45C61.4 282.69 61.41 282.95 61.37 283.2C61.29 283.49 61.13 283.75 60.9 283.95C60.68 284.15 60.41 284.29 60.11 284.34C59.81 284.4 59.51 284.37 59.23 284.27C58.95 284.16 58.7 283.98 58.51 283.74C58.39 283.52 58.31 283.28 58.29 283.02C58.26 282.77 58.29 282.52 58.37 282.28C58.55 281.81 58.87 281.42 59.3 281.15C59.3 281.15 59.13 281.15 58.88 281.26C58.52 281.47 58.24 281.78 58.09 282.17C57.97 282.45 57.91 282.76 57.92 283.07C57.94 283.38 58.02 283.68 58.17 283.95C58.39 284.27 58.7 284.52 59.06 284.67C59.42 284.81 59.82 284.85 60.2 284.78C60.58 284.71 60.93 284.53 61.21 284.26C61.49 283.99 61.69 283.65 61.78 283.27C61.82 282.96 61.79 282.65 61.69 282.35C61.58 282.06 61.42 281.79 61.19 281.57C60.91 281.28 60.54 281.08 60.13 281.02C59.85 280.99 59.7 281.05 59.7 281.07Z" fill="#455A64" fill-opacity="1.000000" fill-rule="nonzero"/>
	<path id="Vector" d="M87.27 384.92C89.45 384.26 91.59 383.46 93.67 382.52C95.81 381.72 97.89 380.79 99.91 379.72C97.72 380.39 95.58 381.19 93.5 382.12C91.36 382.93 89.28 383.86 87.27 384.92Z" fill="#455A64" fill-opacity="1.000000" fill-rule="nonzero"/>
	<path id="Vector" d="M90.49 142.52C90.3 139.04 88.15 136.89 85.15 135.11C83.64 134.24 81.93 133.74 80.19 133.66C78.44 133.58 76.7 133.92 75.11 134.66C73.01 135.67 71.16 137.37 68.85 137.67C65.04 138.17 61.44 134.66 57.7 135.52C56.59 135.78 55.6 136.43 54.91 137.34C54.22 138.25 53.86 139.38 53.91 140.52C53.95 141.67 54.38 142.76 55.14 143.62C55.9 144.48 56.93 145.05 58.06 145.23C55.57 145.59 54.16 148.75 55.05 151.09C55.95 153.43 58.59 154.8 61.07 154.85C63.61 154.77 66.07 154 68.2 152.62C70.38 151.35 72.41 149.83 74.69 148.74C76.93 147.53 79.52 147.15 82.01 147.67C85.31 148.54 87.65 151.68 88.5 154.95C89.35 158.22 88.99 161.75 88.5 165.12C88.01 168.49 87.34 171.89 87.66 175.29C87.65 175.49 87.7 175.68 87.78 175.85C87.86 176.03 87.99 176.18 88.14 176.3C88.64 176.58 89.22 176.11 89.59 175.67C93.82 170.65 97.02 164.85 99.01 158.61C100.16 154.99 100.79 151.47 99.42 147.94C98.04 144.41 93.4 141.05 90.45 142.48L90.49 142.52Z" fill="#263238" fill-opacity="1.000000" fill-rule="nonzero"/>
	<path id="Vector" d="M93.73 159.34L88.16 193.73C87.15 200.15 82.94 206.36 72.87 204.25C64.25 201.77 64.9 195.57 66.02 187.94C66.02 187.94 56.55 185.48 57.4 175.85C57.8 171.19 59.41 161.68 61 153.09C61.82 148.64 64.28 144.66 67.89 141.94C71.51 139.23 76.01 137.97 80.51 138.43L81.45 138.52C91.39 140.15 95.59 149.44 93.73 159.34Z" fill="#FFBE9D" fill-opacity="1.000000" fill-rule="nonzero"/>
	<path id="Vector" d="M66.02 187.94C70.46 188.37 74.93 187.53 78.91 185.5C78.91 185.5 75.13 192.64 65.63 190.82L66.02 187.94Z" fill="#EB996E" fill-opacity="1.000000" fill-rule="nonzero"/>
	<path id="Vector" d="M62.89 161.51C62.85 161.86 62.95 162.22 63.17 162.5C63.39 162.79 63.72 162.97 64.07 163.02C64.25 163.05 64.42 163.05 64.6 163.01C64.77 162.98 64.93 162.9 65.08 162.8C65.22 162.7 65.34 162.57 65.43 162.42C65.52 162.27 65.58 162.1 65.61 161.93C65.65 161.57 65.55 161.21 65.33 160.93C65.11 160.64 64.78 160.46 64.43 160.41C64.25 160.38 64.08 160.38 63.9 160.42C63.73 160.46 63.57 160.53 63.43 160.63C63.28 160.74 63.16 160.87 63.07 161.02C62.98 161.17 62.92 161.33 62.89 161.51Z" fill="#263238" fill-opacity="1.000000" fill-rule="nonzero"/>
	<path id="Vector" d="M62.59 158.01C62.74 158.21 63.86 157.54 65.34 157.7C66.81 157.86 67.83 158.71 68.01 158.54C68.19 158.37 67.95 158.12 67.52 157.73C66.92 157.22 66.18 156.91 65.4 156.84C64.63 156.75 63.86 156.92 63.19 157.32C62.7 157.62 62.52 157.92 62.59 158.01Z" fill="#263238" fill-opacity="1.000000" fill-rule="nonzero"/>
	<path id="Vector" d="M76.35 163.63C76.31 163.99 76.41 164.35 76.63 164.63C76.85 164.92 77.18 165.1 77.53 165.15C77.71 165.18 77.88 165.18 78.06 165.14C78.23 165.1 78.39 165.03 78.53 164.93C78.68 164.83 78.8 164.7 78.89 164.55C78.98 164.4 79.04 164.23 79.07 164.06C79.11 163.7 79.01 163.34 78.78 163.06C78.56 162.77 78.24 162.59 77.88 162.54C77.71 162.51 77.53 162.51 77.36 162.55C77.19 162.59 77.03 162.66 76.88 162.76C76.74 162.86 76.62 162.99 76.53 163.14C76.44 163.29 76.37 163.46 76.35 163.63Z" fill="#263238" fill-opacity="1.000000" fill-rule="nonzero"/>
	<path id="Vector" d="M76.81 159.75C76.97 159.94 78.08 159.28 79.56 159.43C81.04 159.58 82.05 160.43 82.23 160.27C82.41 160.11 82.17 159.86 81.74 159.47C81.14 158.96 80.4 158.65 79.62 158.58C78.85 158.49 78.08 158.66 77.41 159.05C76.92 159.35 76.74 159.66 76.81 159.75Z" fill="#263238" fill-opacity="1.000000" fill-rule="nonzero"/>
	<path id="Vector" d="M70.63 170.18C69.87 169.85 69.08 169.62 68.27 169.49C67.9 169.42 67.55 169.31 67.51 169.04C67.52 168.65 67.64 168.27 67.87 167.95C68.32 167.08 68.79 166.15 69.27 165.19C71.28 161.25 72.7 158 72.53 157.92C71.08 160.16 69.79 162.51 68.7 164.95L67.34 167.74C67.06 168.17 66.94 168.68 67 169.19C67.03 169.33 67.11 169.46 67.2 169.57C67.3 169.68 67.42 169.76 67.56 169.82C67.76 169.89 67.97 169.94 68.19 169.97C68.99 170.14 69.81 170.21 70.63 170.18Z" fill="#263238" fill-opacity="1.000000" fill-rule="nonzero"/>
	<path id="Vector" d="M77.29 153.92C77.39 154.34 78.89 154.3 80.6 154.68C82.32 155.06 83.67 155.69 83.93 155.35C84.05 155.17 83.85 154.77 83.32 154.34C82.62 153.8 81.81 153.42 80.94 153.23C80.07 153.04 79.17 153.05 78.3 153.26C77.6 153.44 77.25 153.73 77.29 153.92Z" fill="#263238" fill-opacity="1.000000" fill-rule="nonzero"/>
	<path id="Vector" d="M63.56 153.79C63.79 154.16 64.85 153.91 66.07 154.02C67.3 154.13 68.31 154.47 68.58 154.14C68.7 153.98 68.58 153.63 68.15 153.27C67.58 152.83 66.9 152.57 66.18 152.52C65.47 152.47 64.76 152.63 64.14 152.99C63.64 153.29 63.46 153.62 63.56 153.79Z" fill="#263238" fill-opacity="1.000000" fill-rule="nonzero"/>
	<path id="Vector" d="M92.23 166.38C92.4 166.32 99.04 165.09 98.16 171.64C97.29 178.19 90.89 175.98 90.91 175.79C90.93 175.6 92.23 166.38 92.23 166.38Z" fill="#FFBE9D" fill-opacity="1.000000" fill-rule="nonzero"/>
	<path id="Vector" d="M93.24 173.57C93.24 173.57 93.34 173.66 93.52 173.78C93.78 173.93 94.08 173.97 94.37 173.91C94.83 173.7 95.22 173.36 95.51 172.95C95.8 172.53 95.98 172.05 96.02 171.54C96.11 170.98 96.08 170.41 95.92 169.87C95.88 169.65 95.8 169.44 95.67 169.27C95.54 169.09 95.37 168.95 95.17 168.86C95.05 168.81 94.91 168.8 94.78 168.84C94.65 168.88 94.53 168.97 94.46 169.08C94.34 169.25 94.37 169.39 94.33 169.39C94.29 169.39 94.21 169.26 94.33 169C94.39 168.85 94.5 168.71 94.64 168.63C94.84 168.52 95.07 168.49 95.29 168.54C95.54 168.64 95.77 168.8 95.94 169C96.12 169.21 96.24 169.45 96.3 169.71C96.5 170.32 96.55 170.97 96.45 171.6C96.4 172.18 96.19 172.74 95.83 173.2C95.48 173.67 94.99 174.02 94.44 174.21C94.26 174.23 94.08 174.22 93.9 174.16C93.73 174.11 93.57 174.01 93.44 173.89C93.23 173.73 93.22 173.58 93.24 173.57Z" fill="#EB996E" fill-opacity="1.000000" fill-rule="nonzero"/>
	<path id="Vector" d="M61.79 144.17C62.91 142.4 64.46 140.94 66.29 139.92C70.14 137.53 74.64 136.41 79.16 136.72C83.69 137.07 87.91 139.17 90.93 142.58C93.23 145.37 94.67 148.78 95.05 152.38C95.43 155.97 95.09 159.6 94.05 163.05C93.73 164.61 92.96 166.03 91.83 167.16C91.08 167.8 89.82 168.16 89.15 167.48C88.78 167.03 88.56 166.47 88.54 165.88C87.79 160.68 87.08 155.09 89.43 150.4C88.39 148.59 87 147.02 85.33 145.78C84.49 145.17 83.54 144.72 82.53 144.48C81.51 144.24 80.46 144.2 79.44 144.37C76.43 144.97 74.32 147.64 71.78 149.38C69.95 150.62 67.85 151.41 65.66 151.67C63.47 151.94 61.24 151.68 59.17 150.92L61.79 144.17Z" fill="#263238" fill-opacity="1.000000" fill-rule="nonzero"/>
	<path id="Vector" d="M69.32 174.16C69.4 174.78 69.56 175.39 69.81 175.97C69.94 176.25 70.13 176.51 70.36 176.72C70.6 176.93 70.87 177.09 71.17 177.19C71.5 177.26 71.84 177.24 72.16 177.15C72.48 177.05 72.77 176.88 73.01 176.64C73.47 176.15 73.76 175.53 73.85 174.86C73.95 174.26 73.85 173.51 73.26 173.31C73.01 173.25 72.76 173.25 72.51 173.31L69.16 173.92L69.32 174.16Z" fill="#EB996E" fill-opacity="1.000000" fill-rule="nonzero"/>
	<path id="Vector" d="M70.03 176.96C70.58 177.11 71.15 177.15 71.71 177.1C72.3 177 72.82 176.69 73.19 176.23C73.4 175.94 73.55 175.62 73.63 175.27C73.71 174.93 73.72 174.57 73.65 174.22C73.62 174.04 73.56 173.87 73.48 173.71C73.39 173.55 73.41 173.56 73.27 173.56C73.09 173.58 72.91 173.61 72.74 173.65L72.18 173.75L70.28 174.07C69.7 174.21 69.1 174.26 68.5 174.22C69.03 173.95 69.61 173.76 70.2 173.68C70.74 173.54 71.37 173.4 72.08 173.24L72.63 173.12C72.83 173.12 72.98 173.03 73.24 173.01C73.4 172.99 73.56 173.03 73.7 173.12C73.82 173.21 73.91 173.32 73.98 173.46C74.08 173.66 74.16 173.88 74.2 174.11C74.29 174.54 74.28 174.98 74.17 175.4C74.07 175.83 73.87 176.22 73.59 176.56C73.13 177.1 72.47 177.43 71.76 177.49C71.3 177.55 70.84 177.47 70.42 177.28C70.13 177.12 70.01 176.99 70.03 176.96Z" fill="#263238" fill-opacity="1.000000" fill-rule="nonzero"/>
	<path id="Vector" d="M45.59 160.02L44.04 159.6L19.82 183.13L0.17 185.5C0.17 185.5 0.37 179.57 7.75 172C14.37 165.24 29.78 157.21 34.99 153.06C35.67 152.49 36.43 152.03 37.25 151.71L45.59 160.02Z" fill="#FFBE9D" fill-opacity="1.000000" fill-rule="nonzero"/>
	<path id="Vector" d="M45.6 148.82L48.08 148.12L53.92 145.35L60.56 147.83C60.56 147.83 60.41 150.1 58.67 149.47L65.63 151.77C65.63 151.77 65.06 153.43 64.75 153.54C64.44 153.65 68.83 154.01 68.83 154.01C68.83 154.01 68.83 156.25 64.67 156.21C60.5 156.17 58.89 155.46 58.89 155.46L55.55 156.35L55.68 158.36L60.23 158.28L60.02 160.83C58.09 161.24 56.13 161.54 54.16 161.74C54.16 161.74 47.14 161.84 45.23 160.91C43.32 159.99 40.89 158.68 40.89 158.68L37.25 151.73L45.6 148.82Z" fill="#FFBE9D" fill-opacity="1.000000" fill-rule="nonzero"/>
	<path id="Vector" d="M51.87 150C51.87 150.06 52.26 149.87 52.88 149.58C53.7 149.23 54.48 148.81 55.23 148.33L54.93 148.33L55.2 148.5C56.03 149.03 56.97 149.37 57.94 149.5C58.69 149.6 59.15 149.5 59.15 149.5C57.87 149.2 56.63 148.73 55.47 148.1L55.22 147.94L55.07 147.84L54.92 147.95C54.11 148.51 53.26 148.95 52.7 149.3C52.13 149.66 51.82 149.95 51.87 150Z" fill="#EB996E" fill-opacity="1.000000" fill-rule="nonzero"/>
	<path id="Vector" d="M54.01 153.54C54.01 153.54 54.46 153.7 55.13 153.41C55.81 153.12 56.56 152.4 57.51 152L57.27 152C57.7 152.29 58.15 152.55 58.62 152.77C59.79 153.33 61.07 153.64 62.37 153.69C62.9 153.76 63.45 153.7 63.96 153.52C62.2 153.38 60.47 152.96 58.84 152.29C58.39 152.09 57.96 151.85 57.55 151.58L57.42 151.51L57.31 151.51C56.23 152.06 55.6 152.8 55 153.1C54.41 153.4 54.01 153.46 54.01 153.54Z" fill="#EB996E" fill-opacity="1.000000" fill-rule="nonzero"/>
	<path id="Vector" d="M47.79 155.72C47.79 155.8 48.3 155.65 49.09 155.66C50.12 155.67 51.12 155.97 51.98 156.53C52.55 156.9 53.04 157.38 53.42 157.94L53.48 158.03L53.57 158.03C54.34 158.25 55.14 158.35 55.95 158.33C55.23 157.96 54.46 157.71 53.66 157.59L53.81 157.69C53.43 157.04 52.91 156.49 52.27 156.08C51.33 155.46 50.21 155.18 49.08 155.27C48.22 155.38 47.76 155.67 47.79 155.72Z" fill="#EB996E" fill-opacity="1.000000" fill-rule="nonzero"/>
	<path id="Vector" d="M40.89 158.66C40.96 158.71 41.02 158.75 41.1 158.79L41.73 159.15L44.16 160.46C44.73 160.81 45.35 161.09 45.99 161.28C46.77 161.47 47.56 161.59 48.35 161.67C50.06 161.84 52 161.91 54.16 161.91L56.78 161.64C57.75 161.56 58.71 161.39 59.65 161.14L59.75 161.14L59.75 161.01C59.89 160.14 60.04 159.19 60.2 158.21L60.25 157.93L59.97 157.93L55.64 158.11L55.9 158.34C55.9 157.72 55.81 157.04 55.77 156.33L55.58 156.59L58.93 155.7L58.76 155.7C60.38 156.19 62.07 156.45 63.77 156.46C64.66 156.51 65.54 156.47 66.41 156.33C66.89 156.27 67.35 156.11 67.76 155.86C68.17 155.61 68.52 155.28 68.79 154.88C68.94 154.62 69.03 154.32 69.05 154.02L69.05 153.79L68.8 153.79C67.8 153.7 66.72 153.61 65.71 153.5L64.97 153.4L64.81 153.4L64.81 153.45C64.84 153.48 64.86 153.51 64.87 153.55C64.88 153.59 64.88 153.63 64.87 153.67C64.87 153.76 64.69 153.88 64.73 153.84C64.79 153.82 64.84 153.78 64.89 153.74C65 153.63 65.09 153.5 65.16 153.36C65.39 152.9 65.59 152.42 65.76 151.93L65.85 151.68L65.6 151.6L58.58 149.31L58.42 149.78C58.7 149.88 59 149.91 59.3 149.88C59.6 149.82 59.88 149.66 60.08 149.42C60.42 148.99 60.61 148.46 60.64 147.91L60.64 147.74L60.46 147.67L53.81 145.22L53.73 145.22L53.65 145.22L47.82 148.02L45.38 148.72L43.25 149.47L39.88 150.7L37.76 151.48C37.51 151.56 37.27 151.66 37.04 151.78C37.3 151.73 37.55 151.66 37.79 151.57L39.94 150.88L43.34 149.75L45.47 149.03L47.92 148.37L53.78 145.63L53.61 145.63L60.25 148.13L60.09 147.89C60.07 148.34 59.91 148.77 59.64 149.12C59.5 149.27 59.31 149.36 59.11 149.4C58.91 149.43 58.7 149.41 58.52 149.32L58.36 149.8L65.31 152.1L65.15 151.77C65 152.24 64.8 152.69 64.58 153.12C64.53 153.21 64.48 153.29 64.42 153.37C64.44 153.4 64.46 153.44 64.48 153.49C64.38 153.23 64.48 153.42 64.41 153.37L64.34 153.37C64.29 153.41 64.26 153.46 64.25 153.52C64.24 153.56 64.24 153.61 64.25 153.65C64.26 153.69 64.29 153.73 64.32 153.76C64.4 153.84 64.38 153.81 64.4 153.82L64.49 153.82L64.7 153.82L65.47 153.92C66.47 154.04 67.48 154.13 68.57 154.22L68.34 153.97C68.32 154.18 68.25 154.38 68.15 154.56C67.92 154.89 67.62 155.17 67.27 155.37C66.93 155.58 66.54 155.71 66.14 155.76C65.31 155.89 64.46 155.93 63.61 155.88C61.98 155.87 60.35 155.63 58.79 155.17L58.69 155.17L58.62 155.17L55.27 156.08L55.07 156.08L55.07 156.28C55.07 156.97 55.16 157.65 55.21 158.28L55.21 158.53L55.45 158.53L59.77 158.33L59.53 158.05C59.38 159.06 59.23 159.99 59.1 160.86L59.22 160.7C58.32 160.93 57.41 161.09 56.49 161.17L53.89 161.47C51.75 161.47 49.82 161.47 48.12 161.31C47.34 161.25 46.56 161.14 45.79 160.98C45.16 160.8 44.55 160.55 43.99 160.22L41.52 159L40.87 158.7C40.98 158.68 40.91 158.65 40.89 158.66Z" fill="#EB996E" fill-opacity="1.000000" fill-rule="nonzero"/>
	<path id="Vector" d="M49.28 151.1C49.92 152.17 50.81 153.07 51.86 153.72C52.83 154.5 53.97 155.05 55.18 155.31C55.25 155.16 53.78 154.45 52.17 153.3C50.57 152.14 49.4 151 49.28 151.1Z" fill="#EB996E" fill-opacity="1.000000" fill-rule="nonzero"/>
	<path id="Vector" d="M0.38 184.77L19.82 183.13L42.74 191.85L47.76 194.92L40.61 219.43C40.61 219.43 4.7 198.26 3.17 196.46C1.8 194.88 0.84 192.99 0.35 190.95C-0.13 188.92 -0.12 186.8 0.38 184.77Z" fill="#FFB64F" fill-opacity="1.000000" fill-rule="nonzero"/>
	<path id="Vector" d="M104.15 202.78L110.83 206.92L95.4 267.69L98.2 302.72C94.18 306.19 84.15 309.17 65.08 308.09C46.01 307 33.29 298.7 33.29 298.7L35.12 262.67L39.46 222.01L44.33 194.2L59.02 195.26L64.75 191.87L67.32 193.16L70.61 202.29L79.18 196.09L89.21 191.26L92.88 198.09L104.15 202.78Z" fill="#FFB64F" fill-opacity="1.000000" fill-rule="nonzero"/>
	<path id="Vector" d="M44.33 201.27C44.11 201.71 43.94 202.16 43.81 202.62C43.48 203.5 43.08 204.79 42.6 206.39C41.37 210.57 40.37 214.81 39.59 219.1C38.84 223.38 38.31 227.7 38 232.04C37.89 233.71 37.84 235.05 37.83 235.99C37.78 236.47 37.78 236.96 37.83 237.44C37.93 236.96 37.99 236.48 38 236C38.1 234.99 38.21 233.66 38.35 232.07C38.66 228.76 39.19 224.18 40.08 219.19C40.98 214.19 42.04 209.71 42.89 206.49C43.3 204.96 43.66 203.67 43.9 202.68C44.09 202.23 44.24 201.76 44.33 201.27Z" fill="#263238" fill-opacity="1.000000" fill-rule="nonzero"/>
	<path id="Vector" d="M73.35 201.76C73.84 201.67 74.31 201.5 74.73 201.24C75.92 200.62 76.95 199.73 77.74 198.65L77.38 198.55C77.59 201.54 78.19 204.49 79.18 207.33L79.29 207.65L79.57 207.46L80.27 206.96C83.73 204.59 86.84 202.41 89.08 200.8L91.71 198.89C92.05 198.67 92.36 198.41 92.63 198.12C92.28 198.28 91.94 198.48 91.63 198.72L88.91 200.5C86.61 202.02 83.47 204.15 80.02 206.52L79.31 207L79.71 207.13C78.73 204.34 78.1 201.44 77.82 198.5L77.82 197.95L77.51 198.39C76.76 199.46 75.8 200.36 74.69 201.03C73.82 201.53 73.33 201.71 73.35 201.76Z" fill="#263238" fill-opacity="1.000000" fill-rule="nonzero"/>
	<path id="Vector" d="M59.61 196.35C60.6 197.66 61.69 198.9 62.87 200.05L63.05 200.24L63.23 200.04C63.91 199.25 64.63 198.51 65.41 197.82C65.83 197.46 66.24 197.12 66.66 196.82L67.27 196.37C67.31 196.36 67.36 196.35 67.41 196.35C67.41 196.35 67.41 196.35 67.5 196.5L68.43 198.89C68.69 199.64 69.02 200.36 69.43 201.04C69.31 200.26 69.09 199.49 68.79 198.76C68.53 198 68.25 197.19 67.96 196.33C67.93 196.24 67.89 196.15 67.83 196.08C67.77 196 67.69 195.94 67.61 195.9C67.51 195.86 67.41 195.85 67.31 195.87C67.21 195.89 67.11 195.93 67.03 195.99L66.38 196.45C65.95 196.76 65.52 197.11 65.1 197.45C64.3 198.15 63.56 198.92 62.89 199.75L63.25 199.75C62.13 198.52 60.91 197.39 59.61 196.35Z" fill="#263238" fill-opacity="1.000000" fill-rule="nonzero"/>
	<path id="Vector" d="M63.58 305.46C57.15 304.25 50.52 304.58 44.24 306.41C37.96 308.25 32.2 311.55 27.43 316.03C22.66 320.52 19.02 326.07 16.8 332.23C14.59 338.38 13.85 344.98 14.67 351.48C15.48 357.97 17.82 364.18 21.49 369.6C25.16 375.02 30.05 379.5 35.78 382.67C41.51 385.84 47.9 387.61 54.45 387.85C60.99 388.08 67.49 386.76 73.43 384C81.41 380.28 88 374.13 92.26 366.43C96.52 358.72 98.22 349.86 97.12 341.13C96.02 332.39 92.18 324.23 86.14 317.82C80.11 311.42 72.2 307.09 63.54 305.47L63.58 305.46ZM48.76 384.41C39.69 382.7 31.52 377.8 25.74 370.59C19.96 363.39 16.94 354.36 17.23 345.13C17.52 335.9 21.09 327.07 27.31 320.25C33.53 313.42 41.99 309.04 51.15 307.89C60.32 306.75 69.59 308.92 77.3 314C85 319.09 90.64 326.76 93.19 335.64C95.74 344.52 95.04 354.01 91.21 362.41C87.38 370.82 80.67 377.58 72.29 381.47C64.95 384.89 56.72 385.91 48.76 384.41Z" fill="#455A64" fill-opacity="1.000000" fill-rule="nonzero"/>
	<path id="Vector" d="M55.99 389.89C66.93 389.9 77.49 385.82 85.57 378.43C93.65 371.05 98.68 360.9 99.65 350C100.62 339.09 97.47 328.22 90.82 319.53C84.17 310.83 74.5 304.94 63.72 303.02C52.94 301.1 41.84 303.29 32.59 309.16C23.35 315.03 16.64 324.14 13.79 334.71C10.93 345.28 12.15 356.54 17.18 366.26C22.22 375.98 30.72 383.46 41 387.22C45.8 388.99 50.87 389.89 55.99 389.89ZM55.9 309.5C61.02 309.5 66.08 310.56 70.77 312.63C75.45 314.69 79.65 317.71 83.1 321.5C86.55 325.28 89.18 329.74 90.8 334.59C92.43 339.45 93.03 344.59 92.55 349.69C92.08 354.78 90.55 359.73 88.06 364.2C85.57 368.67 82.17 372.57 78.08 375.66C73.99 378.74 69.31 380.94 64.32 382.1C59.34 383.27 54.16 383.39 49.13 382.44C43.39 381.35 37.99 378.92 33.37 375.33C28.75 371.75 25.05 367.12 22.57 361.82C19.97 356.22 18.81 350.05 19.22 343.88C19.63 337.71 21.58 331.75 24.9 326.53C28.22 321.32 32.8 317.03 38.22 314.05C43.64 311.07 49.72 309.51 55.9 309.5Z" fill="#455A64" fill-opacity="1.000000" fill-rule="nonzero"/>
	<path id="Vector" d="M157.05 305.73L156.68 304.82C155.89 302.89 154.17 301.75 152.82 302.31L92.07 327.02C91.77 327.14 91.67 327.59 91.84 328.03L94.43 334.39C94.61 334.82 94.99 335.07 95.29 334.95L156.05 310.18C157.39 309.63 157.84 307.62 157.05 305.73Z" fill="#455A64" fill-opacity="1.000000" fill-rule="nonzero"/>
	<path id="Vector" d="M100.31 235.72L107.62 259.9L103.95 309.17L114.73 310.52C114.73 310.52 127.07 268.6 125.85 261.01C124.63 253.43 119.59 231.33 119.59 231.33L100.31 235.72Z" fill="#FFBE9D" fill-opacity="1.000000" fill-rule="nonzero"/>
	<path id="Vector" d="M103.98 308.82L98.97 317.39L95.83 325.42L100.52 323.58C100.52 323.58 102.53 333.27 103.34 333.52C104.15 333.78 106.41 332.99 106.18 331.14C106.52 331.46 106.92 331.71 107.36 331.85C107.81 332 108.28 332.04 108.74 331.98C110.16 331.69 110.51 330.76 110.35 328.97C110.35 328.97 112 330.31 112.99 329.48C113.3 329.18 113.54 328.82 113.69 328.42C113.84 328.02 113.91 327.6 113.89 327.17C113.89 327.17 116.05 327.35 116.35 326.24C116.66 324.41 116.7 322.54 116.47 320.7C116.22 319.48 115.17 314.5 115.17 314.5L114.69 310.48L103.98 308.82Z" fill="#FFBE9D" fill-opacity="1.000000" fill-rule="nonzero"/>
	<path id="Vector" d="M105.16 325.55C105.55 326.42 105.8 327.35 105.91 328.3C106.16 329.22 106.26 330.18 106.22 331.14C105.83 330.26 105.57 329.34 105.47 328.39C105.22 327.46 105.12 326.5 105.16 325.55Z" fill="#EB996E" fill-opacity="1.000000" fill-rule="nonzero"/>
	<path id="Vector" d="M109.55 324.43C109.92 325.11 110.15 325.85 110.23 326.62C110.45 327.36 110.53 328.14 110.46 328.91C110.1 328.22 109.87 327.48 109.78 326.71C109.57 325.97 109.49 325.2 109.55 324.43Z" fill="#EB996E" fill-opacity="1.000000" fill-rule="nonzero"/>
	<path id="Vector" d="M113.23 323.4C113.44 324.01 113.56 324.65 113.57 325.29C113.74 326.3 114.01 327.15 113.88 327.2C113.43 326.69 113.17 326.04 113.13 325.37C112.97 324.71 113.01 324.03 113.23 323.4Z" fill="#EB996E" fill-opacity="1.000000" fill-rule="nonzero"/>
	<path id="Vector" d="M100.19 320.78C100.58 321.64 100.85 322.54 100.99 323.47C101.28 324.36 101.46 325.29 101.52 326.23C101.03 325.41 100.71 324.51 100.56 323.58C100.27 322.68 100.14 321.73 100.19 320.78Z" fill="#EB996E" fill-opacity="1.000000" fill-rule="nonzero"/>
	<path id="Vector" d="M126.44 277.29C126.44 276.47 129.81 264.99 128.79 259.04C127.77 253.08 115.52 212.87 113.88 210C112.58 208.07 110.77 206.53 108.65 205.57C106.29 206.85 104.21 208.59 102.53 210.69C100.86 212.8 99.63 215.21 98.91 217.8C96.45 226.62 96.45 237.69 96.45 237.69L106.29 262.1L105.12 275.97L126.44 277.29Z" fill="#FFB64F" fill-opacity="1.000000" fill-rule="nonzero"/>
	<path id="Vector" d="M97.07 236.89C97.17 236.89 96.98 235.08 97.07 232.19C97.13 230.51 97.3 228.84 97.56 227.17C98.2 223.08 99.46 219.1 101.3 215.38C102.04 213.87 102.88 212.39 103.81 210.98C105.39 208.55 106.57 207.2 106.5 207.13C106.18 207.41 105.88 207.71 105.62 208.05C104.87 208.9 104.17 209.8 103.53 210.74C102.56 212.14 101.68 213.61 100.9 215.13C99 218.88 97.73 222.91 97.12 227.07C96.88 228.77 96.75 230.48 96.74 232.19C96.72 233.34 96.78 234.49 96.91 235.63C96.92 236.06 96.98 236.48 97.07 236.89Z" fill="#263238" fill-opacity="1.000000" fill-rule="nonzero"/>
	<path id="Vector" d="M97.7 242C97.95 243.03 98.28 244.03 98.71 245.01C99.42 246.86 100.49 249.38 101.72 252.13L104.89 259.16C105.27 260.15 105.73 261.12 106.25 262.06C106.01 261.02 105.67 260.02 105.25 259.04C104.54 257.19 103.46 254.67 102.24 251.92L99.07 244.9C98.68 243.9 98.22 242.93 97.7 242Z" fill="#263238" fill-opacity="1.000000" fill-rule="nonzero"/>
	<path id="Vector" d="M105.72 263.05C107.89 261.89 110.14 260.91 112.46 260.12C114.84 259.5 117.26 259.07 119.71 258.84C118.99 258.69 118.25 258.65 117.52 258.72C115.76 258.81 114.01 259.11 112.31 259.62C110.62 260.12 108.99 260.84 107.48 261.75C106.83 262.09 106.23 262.53 105.72 263.05Z" fill="#263238" fill-opacity="1.000000" fill-rule="nonzero"/>
	<path id="Vector" d="M41.64 332.2C41.55 332.31 49.46 339.22 59.31 347.66C69.16 356.1 77.22 362.84 77.31 362.72C77.4 362.6 69.49 355.69 59.64 347.26C49.79 338.83 41.73 332.09 41.64 332.2Z" fill="#FFFFFF" fill-opacity="1.000000" fill-rule="nonzero"/>
	<path id="Vector" d="M31.46 332.2C31.36 332.31 38.03 338.22 46.34 345.34C54.66 352.45 61.47 358.19 61.57 358.08C61.67 357.97 54.99 352.06 46.69 344.94C38.38 337.83 31.55 332.09 31.46 332.2Z" fill="#FFFFFF" fill-opacity="1.000000" fill-rule="nonzero"/>
	<path id="Vector" d="M16.48 346.3C16.48 346.3 16.48 346.09 16.54 345.67C16.6 345.24 16.6 344.6 16.66 343.79C16.66 343.38 16.66 342.92 16.74 342.41C16.82 341.91 16.9 341.36 16.99 340.76C17.08 340.16 17.18 339.52 17.29 338.84C17.4 338.16 17.63 337.46 17.8 336.69C18.73 333.01 20.2 329.48 22.18 326.23C24.76 321.91 28.15 318.13 32.16 315.09L33.86 313.82C34.46 313.43 35.08 313.08 35.71 312.7C36.33 312.32 36.94 311.9 37.62 311.59L39.63 310.58L40.63 310.09L41.73 309.7L43.93 308.9C44.69 308.65 45.47 308.49 46.24 308.28C47.02 308.05 47.82 307.87 48.62 307.73C50.26 307.43 51.91 307.24 53.58 307.16C54.42 307.16 55.27 307.05 56.14 307.06L58.73 307.2C59.17 307.2 59.61 307.2 60.04 307.28L61.35 307.48C62.22 307.63 63.11 307.73 63.98 307.91C65.76 308.31 67.51 308.82 69.21 309.45C70.96 310.08 72.67 310.83 74.32 311.7C75.15 312.15 75.95 312.7 76.77 313.15C77.17 313.41 77.59 313.63 77.97 313.92L79.13 314.79C82.35 317.09 85.18 319.91 87.48 323.14L88.38 324.34L89.17 325.64L89.96 326.93C90.23 327.36 90.48 327.8 90.69 328.27L92.01 331.03C92.37 332.03 92.72 332.96 93.08 333.94C95.77 341.96 95.77 350.64 93.08 358.66C92.71 359.66 92.36 360.6 92.01 361.56C91.66 362.52 91.12 363.41 90.68 364.33L90.35 365.01L89.95 365.67L89.16 366.96L88.37 368.25L87.47 369.46C86.29 371.04 85.01 372.55 83.64 373.96C82.24 375.32 80.76 376.58 79.2 377.75L78.04 378.61C77.65 378.9 77.23 379.11 76.83 379.37C76.01 379.85 75.21 380.38 74.39 380.83C72.74 381.7 71.03 382.45 69.27 383.08C67.57 383.7 65.82 384.22 64.04 384.61C63.17 384.79 62.28 384.89 61.41 385.04L60.1 385.24C59.66 385.3 59.23 385.29 58.79 385.32L56.2 385.46C55.33 385.46 54.48 385.39 53.64 385.36C51.98 385.29 50.32 385.1 48.68 384.79C47.88 384.66 47.08 384.48 46.3 384.25C45.53 384.04 44.74 383.88 44 383.64L41.79 382.83L40.69 382.43L39.69 381.94L37.68 380.94C37 380.63 36.4 380.19 35.77 379.82C35.13 379.46 34.52 379.09 33.92 378.7L32.22 377.44C28.21 374.4 24.82 370.62 22.24 366.3C20.25 363.07 18.76 359.57 17.8 355.9C17.63 355.14 17.37 354.45 17.29 353.75C17.21 353.06 17.08 352.43 16.99 351.84C16.9 351.25 16.79 350.69 16.74 350.19C16.69 349.69 16.68 349.19 16.66 348.81C16.6 348 16.56 347.38 16.54 346.94C16.54 346.52 16.48 346.3 16.48 346.3C16.48 346.3 16.48 346.52 16.48 346.94C16.48 347.36 16.48 348 16.55 348.82C16.55 349.23 16.57 349.69 16.61 350.2C16.61 350.7 16.75 351.26 16.83 351.86L17.11 353.78C17.24 354.51 17.41 355.24 17.61 355.95C18.5 359.68 19.95 363.24 21.93 366.52C24.51 370.89 27.92 374.72 31.96 377.8L33.67 379.08C34.27 379.47 34.9 379.84 35.53 380.23C36.15 380.61 36.77 381.04 37.45 381.36L39.51 382.36L40.51 382.86L41.62 383.27L43.84 384.08C44.6 384.34 45.39 384.5 46.18 384.71C46.97 384.95 47.77 385.14 48.58 385.26C50.24 385.58 51.91 385.78 53.6 385.86C54.46 385.86 55.31 385.98 56.19 385.97L58.82 385.84C59.25 385.84 59.7 385.84 60.14 385.76L61.47 385.55C62.35 385.4 63.24 385.3 64.13 385.12C65.93 384.73 67.7 384.21 69.42 383.58C71.21 382.95 72.94 382.19 74.61 381.31C75.44 380.86 76.25 380.31 77.08 379.84C77.49 379.58 77.92 379.36 78.31 379.07L79.45 378.18C81.04 377.01 82.54 375.73 83.95 374.36C85.36 372.92 86.66 371.38 87.85 369.76L88.77 368.55L89.56 367.23L90.37 365.92L90.77 365.26L91.11 364.56L92.49 361.76L93.58 358.82C96.31 350.68 96.31 341.87 93.58 333.73L92.49 330.81C92.04 329.88 91.59 328.95 91.15 328.01C90.93 327.55 90.68 327.1 90.41 326.66L89.6 325.35L88.8 324.04L87.89 322.83C86.69 321.21 85.39 319.67 83.99 318.23C82.58 316.86 81.08 315.58 79.49 314.41L78.31 313.53C77.92 313.25 77.51 312.99 77.09 312.75C76.26 312.27 75.45 311.75 74.62 311.29C72.95 310.41 71.21 309.65 69.43 309.02C67.71 308.39 65.94 307.87 64.15 307.47C63.25 307.29 62.36 307.19 61.48 307.04L60.15 306.84C59.71 306.79 59.27 306.79 58.83 306.76L56.2 306.63C55.33 306.63 54.47 306.71 53.62 306.74C51.93 306.82 50.26 307.02 48.6 307.33C47.79 307.47 46.99 307.65 46.2 307.88C45.42 308.1 44.63 308.27 43.86 308.52L41.64 309.33L40.54 309.74L39.54 310.24L37.53 311.25C36.87 311.59 36.22 311.96 35.6 312.37C34.97 312.75 34.34 313.12 33.74 313.51L32.03 314.8C27.99 317.88 24.58 321.71 22 326.08C20.02 329.36 18.57 332.92 17.68 336.64C17.51 337.41 17.26 338.12 17.18 338.81C17.1 339.5 16.99 340.15 16.9 340.74C16.81 341.33 16.72 341.89 16.68 342.39C16.64 342.9 16.68 343.4 16.62 343.78C16.62 344.59 16.62 345.21 16.55 345.66C16.48 346.1 16.48 346.3 16.48 346.3Z" fill="#263238" fill-opacity="1.000000" fill-rule="nonzero"/>
	<path id="Vector" d="M31.04 367.24C30.73 366.77 30.4 366.32 30.04 365.9C29.12 364.69 28.29 363.44 27.53 362.13C24.99 357.84 23.41 353.06 22.89 348.1C22.37 343.15 22.92 338.14 24.52 333.41C25 331.98 25.56 330.58 26.19 329.21C26.46 328.72 26.69 328.22 26.89 327.69C26.89 327.69 26.79 327.8 26.63 328.04C26.48 328.29 26.26 328.64 26.01 329.12C25.3 330.46 24.68 331.86 24.18 333.29C22.46 338.05 21.83 343.13 22.36 348.15C22.88 353.18 24.53 358.03 27.19 362.32C27.99 363.62 28.88 364.86 29.86 366.03C30.2 366.44 30.5 366.74 30.69 366.95C30.88 367.16 31.02 367.25 31.04 367.24Z" fill="#263238" fill-opacity="1.000000" fill-rule="nonzero"/>
	<path id="Vector" d="M33.12 370.84C33.05 370.97 33.36 371.29 33.81 371.55C34.26 371.81 34.69 371.91 34.76 371.79C34.83 371.67 34.52 371.35 34.07 371.08C33.62 370.82 33.19 370.72 33.12 370.84Z" fill="#263238" fill-opacity="1.000000" fill-rule="nonzero"/>
	<path id="Vector" d="M84.86 363.19C84.96 363.04 85.04 362.88 85.1 362.72C85.24 362.4 85.46 361.94 85.69 361.32C86.36 359.58 86.89 357.79 87.29 355.96C88.61 349.91 88.45 343.62 86.83 337.64C85.22 331.65 82.19 326.15 77.99 321.58C76.74 320.2 75.38 318.92 73.92 317.75C73.42 317.33 72.99 317.05 72.71 316.84C72.42 316.63 72.27 316.54 72.25 316.56C72.23 316.57 72.8 317.05 73.79 317.91C75.19 319.12 76.5 320.43 77.72 321.82C81.79 326.4 84.74 331.86 86.34 337.78C87.93 343.69 88.13 349.9 86.91 355.9C86.55 357.71 86.07 359.5 85.47 361.25C85.08 362.49 84.82 363.18 84.86 363.19Z" fill="#FFFFFF" fill-opacity="1.000000" fill-rule="nonzero"/>
	<path id="Vector" d="M61.57 314.01C63.08 314.48 64.68 314.61 66.25 314.4C65.52 314.07 64.73 313.92 63.93 313.94C63.15 313.79 62.34 313.81 61.57 314.01Z" fill="#FFFFFF" fill-opacity="1.000000" fill-rule="nonzero"/>
</svg>
