<svg width="56.000000" height="16.218567" viewBox="0 0 56 16.2186" fill="none" xmlns="http://www.w3.org/2000/svg" xmlns:xlink="http://www.w3.org/1999/xlink">
	<desc>
			Created with Pixso.
	</desc>
	<defs/>
	<path id="Name" d="M53.53 14.12C54.63 14.12 55.41 13.92 56 13.49L56 11.55C55.4 11.96 54.68 12.22 53.67 12.22C51.97 12.22 51.27 10.9 51.27 8.82C51.27 6.64 52.12 5.52 53.68 5.52C54.6 5.52 55.51 5.84 55.98 6.15L55.98 4.13C55.48 3.85 54.6 3.65 53.41 3.65C50.36 3.65 48.79 5.84 48.79 8.9C48.8 12.25 50.35 14.12 53.53 14.12ZM38.64 13.23L38.64 11.29C37.91 11.79 36.66 12.24 35.51 12.24C33.76 12.24 33.11 11.41 33 9.73L38.75 9.73L38.75 8.47C38.75 4.97 37.21 3.65 34.83 3.65C31.93 3.65 30.55 5.87 30.55 8.92C30.55 12.42 32.28 14.12 35.31 14.12C36.82 14.12 37.94 13.7 38.64 13.23ZM16.81 3.84L16.81 7.81L13.63 7.81L13.63 3.84L11.24 3.84L11.24 13.92L13.63 13.92L13.63 9.71L16.81 9.71L16.81 13.92L19.2 13.92L19.2 3.84L16.81 3.84ZM29.95 12.02L28.9 12.02L28.9 3.84L21.95 3.84L21.95 4.69C21.95 7.16 21.8 10.34 20.96 12.02L20.19 12.02L20.19 16.21L22.4 16.21L22.4 13.92L27.74 13.92L27.74 16.21L29.94 16.21L29.94 12.02L29.95 12.02ZM46.25 13.92L48.96 13.92L45.13 8.49L48.5 3.84L46.1 3.84L42.73 8.49L42.73 3.84L40.34 3.84L40.34 13.92L42.73 13.92L42.73 8.96L46.25 13.92ZM34.77 5.52C35.95 5.52 36.32 6.5 36.32 7.77L36.32 7.97L33 7.97C33.06 6.36 33.64 5.52 34.77 5.52ZM26.51 12.02L23.14 12.02C23.8 10.51 23.99 7.75 23.99 6.01L23.99 5.7L26.51 5.7L26.51 12.02Z" fill="#000000" fill-opacity="1.000000" fill-rule="nonzero"/>
	<path id="Glyph" d="M9.25 13.92L6.82 13.92L6.82 1.88L5.73 1.88C3.74 1.88 2.7 2.87 2.7 4.36C2.7 6.04 3.42 6.82 4.91 7.81L6.13 8.64L2.61 13.92L0 13.92L3.16 9.21C1.34 7.91 0.32 6.64 0.32 4.49C0.32 1.82 2.18 0 5.72 0L9.24 0L9.24 13.92L9.25 13.92Z" fill="#FC3F1D" fill-opacity="1.000000" fill-rule="nonzero"/>
</svg>
